<ttFont>
    <TTGlyph name=".notdef" xMin="256" yMin="0" xMax="1280" yMax="1280">
      <contour>
        <pt x="256" y="0" on="1"/>
        <pt x="256" y="1280" on="1"/>
        <pt x="1280" y="1280" on="1"/>
        <pt x="1280" y="0" on="1"/>
      </contour>
      <contour>
        <pt x="288" y="32" on="1"/>
        <pt x="1248" y="32" on="1"/>
        <pt x="1248" y="1248" on="1"/>
        <pt x="288" y="1248" on="1"/>
      </contour>
    </TTGlyph>
    <TTGlyph name="ampersand" xMin="106" yMin="-47" xMax="1304" yMax="1452">
      <contour>
        <pt x="1009" y="684" on="1"/>
        <pt x="1173" y="684" on="1"/>
        <pt x="1173" y="492" on="0"/>
        <pt x="1054" y="309" on="1"/>
        <pt x="1304" y="0" on="1"/>
        <pt x="1081" y="0" on="1"/>
        <pt x="954" y="160" on="1"/>
        <pt x="854" y="61" on="0"/>
        <pt x="796" y="27" on="1"/>
        <pt x="681" y="-47" on="0"/>
        <pt x="526" y="-47" on="1"/>
        <pt x="288" y="-47" on="0"/>
        <pt x="174" y="121" on="1"/>
        <pt x="106" y="221" on="0"/>
        <pt x="106" y="360" on="1"/>
        <pt x="106" y="526" on="0"/>
        <pt x="212" y="635" on="1"/>
        <pt x="286" y="709" on="0"/>
        <pt x="438" y="797" on="1"/>
        <pt x="294" y="977" on="0"/>
        <pt x="276" y="1075" on="1"/>
        <pt x="272" y="1102" on="0"/>
        <pt x="272" y="1130" on="1"/>
        <pt x="272" y="1288" on="0"/>
        <pt x="405" y="1384" on="1"/>
        <pt x="499" y="1452" on="0"/>
        <pt x="622" y="1452" on="1"/>
        <pt x="806" y="1452" on="0"/>
        <pt x="901" y="1317" on="1"/>
        <pt x="931" y="1260" on="1"/>
        <pt x="950" y="1217" on="0"/>
        <pt x="954" y="1167" on="1"/>
        <pt x="956" y="1149" on="0"/>
        <pt x="956" y="1130" on="1"/>
        <pt x="956" y="989" on="0"/>
        <pt x="843" y="889" on="1"/>
        <pt x="784" y="836" on="0"/>
        <pt x="673" y="774" on="1"/>
        <pt x="946" y="440" on="1"/>
        <pt x="1009" y="552" on="0"/>
        <pt x="1009" y="676" on="1"/>
      </contour>
      <contour>
        <pt x="583" y="883" on="1"/>
        <pt x="749" y="987" on="0"/>
        <pt x="780" y="1063" on="1"/>
        <pt x="794" y="1094" on="0"/>
        <pt x="794" y="1135" on="1"/>
        <pt x="794" y="1241" on="0"/>
        <pt x="702" y="1288" on="1"/>
        <pt x="663" y="1309" on="0"/>
        <pt x="616" y="1309" on="1"/>
        <pt x="493" y="1309" on="0"/>
        <pt x="452" y="1206" on="1"/>
        <pt x="440" y="1174" on="0"/>
        <pt x="440" y="1133" on="1"/>
        <pt x="440" y="1065" on="0"/>
        <pt x="491" y="993" on="1"/>
      </contour>
      <contour>
        <pt x="856" y="281" on="1"/>
        <pt x="528" y="690" on="1"/>
        <pt x="335" y="567" on="0"/>
        <pt x="294" y="465" on="1"/>
        <pt x="278" y="424" on="0"/>
        <pt x="278" y="375" on="1"/>
        <pt x="278" y="242" on="0"/>
        <pt x="389" y="164" on="1"/>
        <pt x="460" y="113" on="0"/>
        <pt x="546" y="113" on="1"/>
        <pt x="684" y="113" on="0"/>
        <pt x="823" y="246" on="1"/>
        <pt x="839" y="262" on="0"/>
      </contour>
    </TTGlyph>
    <TTGlyph name="asterisk" xMin="450" yMin="903" xMax="1071" yMax="1493">
      <contour>
        <pt x="696" y="1493" on="1"/>
        <pt x="825" y="1493" on="1"/>
        <pt x="815" y="1264" on="1"/>
        <pt x="1032" y="1341" on="1"/>
        <pt x="1071" y="1221" on="1"/>
        <pt x="849" y="1159" on="1"/>
        <pt x="993" y="977" on="1"/>
        <pt x="888" y="903" on="1"/>
        <pt x="761" y="1094" on="1"/>
        <pt x="632" y="903" on="1"/>
        <pt x="530" y="977" on="1"/>
        <pt x="671" y="1159" on="1"/>
        <pt x="450" y="1221" on="1"/>
        <pt x="489" y="1341" on="1"/>
        <pt x="706" y="1264" on="1"/>
      </contour>
    </TTGlyph>
    <TTGlyph name="at" xMin="69" yMin="-290" xMax="1947" yMax="1518">
      <contour>
        <pt x="1361" y="1026" on="1"/>
        <pt x="1531" y="1026" on="1"/>
        <pt x="1347" y="453" on="1"/>
        <pt x="1322" y="381" on="0"/>
        <pt x="1322" y="350" on="1"/>
        <pt x="1322" y="295" on="0"/>
        <pt x="1382" y="268" on="1"/>
        <pt x="1402" y="260" on="0"/>
        <pt x="1425" y="260" on="1"/>
        <pt x="1556" y="260" on="0"/>
        <pt x="1664" y="408" on="1"/>
        <pt x="1769" y="553" on="0"/>
        <pt x="1769" y="731" on="1"/>
        <pt x="1769" y="977" on="0"/>
        <pt x="1570" y="1159" on="1"/>
        <pt x="1367" y="1348" on="0"/>
        <pt x="1079" y="1360" on="1"/>
        <pt x="1048" y="1360" on="1"/>
        <pt x="747" y="1360" on="0"/>
        <pt x="515" y="1151" on="1"/>
        <pt x="446" y="1081" on="1"/>
        <pt x="243" y="850" on="0"/>
        <pt x="243" y="559" on="1"/>
        <pt x="243" y="270" on="0"/>
        <pt x="458" y="72" on="1"/>
        <pt x="679" y="-133" on="0"/>
        <pt x="1011" y="-133" on="1"/>
        <pt x="1173" y="-133" on="0"/>
        <pt x="1406" y="-67" on="1"/>
        <pt x="1464" y="-204" on="1"/>
        <pt x="1234" y="-290" on="0"/>
        <pt x="1001" y="-290" on="1"/>
        <pt x="632" y="-290" on="0"/>
        <pt x="364" y="-71" on="1"/>
        <pt x="114" y="133" on="0"/>
        <pt x="75" y="434" on="1"/>
        <pt x="69" y="481" on="0"/>
        <pt x="69" y="528" on="1"/>
        <pt x="69" y="844" on="0"/>
        <pt x="264" y="1110" on="1"/>
        <pt x="321" y="1190" on="0"/>
        <pt x="393" y="1253" on="1"/>
        <pt x="614" y="1454" on="0"/>
        <pt x="923" y="1505" on="1"/>
        <pt x="999" y="1518" on="0"/>
        <pt x="1075" y="1518" on="1"/>
        <pt x="1415" y="1518" on="0"/>
        <pt x="1666" y="1311" on="1"/>
        <pt x="1904" y="1118" on="0"/>
        <pt x="1941" y="842" on="1"/>
        <pt x="1947" y="799" on="0"/>
        <pt x="1947" y="756" on="1"/>
        <pt x="1947" y="508" on="0"/>
        <pt x="1771" y="299" on="1"/>
        <pt x="1615" y="117" on="0"/>
        <pt x="1390" y="117" on="1"/>
        <pt x="1193" y="117" on="0"/>
        <pt x="1165" y="274" on="1"/>
        <pt x="1030" y="127" on="0"/>
        <pt x="874" y="127" on="1"/>
        <pt x="706" y="127" on="0"/>
        <pt x="610" y="268" on="1"/>
        <pt x="540" y="369" on="0"/>
        <pt x="540" y="502" on="1"/>
        <pt x="540" y="725" on="0"/>
        <pt x="702" y="897" on="1"/>
        <pt x="860" y="1067" on="0"/>
        <pt x="1066" y="1069" on="1"/>
        <pt x="1238" y="1069" on="0"/>
        <pt x="1316" y="891" on="1"/>
      </contour>
      <contour>
        <pt x="1054" y="938" on="1"/>
        <pt x="919" y="938" on="0"/>
        <pt x="817" y="793" on="1"/>
        <pt x="724" y="664" on="0"/>
        <pt x="724" y="500" on="1"/>
        <pt x="724" y="362" on="0"/>
        <pt x="821" y="293" on="1"/>
        <pt x="870" y="258" on="0"/>
        <pt x="927" y="258" on="1"/>
        <pt x="1046" y="258" on="0"/>
        <pt x="1136" y="391" on="1"/>
        <pt x="1204" y="489" on="0"/>
        <pt x="1236" y="662" on="1"/>
        <pt x="1245" y="707" on="0"/>
        <pt x="1247" y="741" on="1"/>
        <pt x="1247" y="755" on="1"/>
        <pt x="1247" y="856" on="0"/>
        <pt x="1163" y="909" on="1"/>
        <pt x="1113" y="938" on="0"/>
      </contour>
    </TTGlyph>
    <TTGlyph name="colon" xMin="225" yMin="0" xMax="438" yMax="1073">
      <contour>
        <pt x="438" y="213" on="1"/>
        <pt x="438" y="0" on="1"/>
        <pt x="225" y="0" on="1"/>
        <pt x="225" y="213" on="1"/>
      </contour>
      <contour>
        <pt x="438" y="1073" on="1"/>
        <pt x="438" y="860" on="1"/>
        <pt x="225" y="860" on="1"/>
        <pt x="225" y="1073" on="1"/>
      </contour>
    </TTGlyph>
    <TTGlyph name="comma" xMin="178" yMin="-301" xMax="393" yMax="213">
      <contour>
        <pt x="178" y="213" on="1"/>
        <pt x="393" y="213" on="1"/>
        <pt x="393" y="-32" on="1"/>
        <pt x="393" y="-301" on="0"/>
        <pt x="178" y="-301" on="1"/>
        <pt x="178" y="-223" on="1"/>
        <pt x="266" y="-219" on="0"/>
        <pt x="287" y="-155" on="1"/>
        <pt x="301" y="-116" on="0"/>
        <pt x="301" y="-36" on="1"/>
        <pt x="301" y="0" on="1"/>
        <pt x="178" y="0" on="1"/>
      </contour>
    </TTGlyph>
    <TTGlyph name="dollar" xMin="70" yMin="-258" xMax="1064" yMax="1577">
      <contour>
        <pt x="501" y="1577" on="1"/>
        <pt x="622" y="1577" on="1"/>
        <pt x="622" y="1466" on="1"/>
        <pt x="880" y="1448" on="0"/>
        <pt x="976" y="1257" on="1"/>
        <pt x="1015" y="1180" on="0"/>
        <pt x="1019" y="1083" on="1"/>
        <pt x="1019" y="1063" on="1"/>
        <pt x="858" y="1063" on="1"/>
        <pt x="856" y="1221" on="0"/>
        <pt x="739" y="1290" on="1"/>
        <pt x="698" y="1313" on="0"/>
        <pt x="649" y="1321" on="1"/>
        <pt x="636" y="1323" on="0"/>
        <pt x="622" y="1323" on="1"/>
        <pt x="622" y="813" on="1"/>
        <pt x="827" y="750" on="0"/>
        <pt x="890" y="715" on="1"/>
        <pt x="1064" y="616" on="0"/>
        <pt x="1064" y="399" on="1"/>
        <pt x="1064" y="186" on="0"/>
        <pt x="925" y="61" on="1"/>
        <pt x="903" y="41" on="0"/>
        <pt x="876" y="25" on="1"/>
        <pt x="776" y="-34" on="0"/>
        <pt x="622" y="-47" on="1"/>
        <pt x="622" y="-258" on="1"/>
        <pt x="501" y="-258" on="1"/>
        <pt x="501" y="-47" on="1"/>
        <pt x="186" y="-26" on="0"/>
        <pt x="98" y="213" on="1"/>
        <pt x="70" y="293" on="0"/>
        <pt x="70" y="390" on="1"/>
        <pt x="70" y="408" on="0"/>
        <pt x="71" y="426" on="1"/>
        <pt x="233" y="426" on="1"/>
        <pt x="247" y="274" on="0"/>
        <pt x="276" y="225" on="1"/>
        <pt x="280" y="219" on="0"/>
        <pt x="284" y="211" on="1"/>
        <pt x="356" y="113" on="0"/>
        <pt x="501" y="94" on="1"/>
        <pt x="501" y="651" on="1"/>
        <pt x="311" y="709" on="0"/>
        <pt x="243" y="758" on="1"/>
        <pt x="98" y="862" on="0"/>
        <pt x="98" y="1057" on="1"/>
        <pt x="98" y="1356" on="0"/>
        <pt x="384" y="1442" on="1"/>
        <pt x="438" y="1458" on="0"/>
        <pt x="501" y="1466" on="1"/>
      </contour>
      <contour>
        <pt x="501" y="829" on="1"/>
        <pt x="501" y="1321" on="1"/>
        <pt x="305" y="1294" on="0"/>
        <pt x="270" y="1139" on="1"/>
        <pt x="264" y="1110" on="0"/>
        <pt x="264" y="1077" on="1"/>
        <pt x="264" y="893" on="0"/>
      </contour>
      <contour>
        <pt x="622" y="633" on="1"/>
        <pt x="622" y="94" on="1"/>
        <pt x="747" y="109" on="0"/>
        <pt x="810" y="170" on="1"/>
        <pt x="896" y="252" on="0"/>
        <pt x="896" y="375" on="1"/>
        <pt x="896" y="500" on="0"/>
        <pt x="800" y="561" on="1"/>
        <pt x="741" y="598" on="0"/>
      </contour>
    </TTGlyph>
    <TTGlyph name="eight" xMin="74" yMin="0" xMax="1004" yMax="1500">
      <contour>
        <pt x="539" y="1350" on="1"/>
        <pt x="254" y="1350" on="0"/>
        <pt x="254" y="1100" on="1"/>
        <pt x="254" y="850" on="0"/>
        <pt x="539" y="850" on="1"/>
        <pt x="824" y="850" on="0"/>
        <pt x="824" y="1100" on="1"/>
        <pt x="824" y="1350" on="0"/>
      </contour>
      <contour>
        <pt x="539" y="700" on="1"/>
        <pt x="224" y="700" on="0"/>
        <pt x="224" y="425" on="1"/>
        <pt x="224" y="150" on="0"/>
        <pt x="539" y="150" on="1"/>
        <pt x="854" y="150" on="0"/>
        <pt x="854" y="425" on="1"/>
        <pt x="854" y="700" on="0"/>
      </contour>
      <contour>
        <pt x="237" y="780" on="1"/>
        <pt x="104" y="878" on="0"/>
        <pt x="104" y="1100" on="1"/>
        <pt x="104" y="1500" on="0"/>
        <pt x="539" y="1500" on="1"/>
        <pt x="974" y="1500" on="0"/>
        <pt x="974" y="1100" on="1"/>
        <pt x="974" y="878" on="0"/>
        <pt x="841" y="780" on="1"/>
        <pt x="1004" y="677" on="0"/>
        <pt x="1004" y="425" on="1"/>
        <pt x="1004" y="0" on="0"/>
        <pt x="539" y="0" on="1"/>
        <pt x="74" y="0" on="0"/>
        <pt x="74" y="425" on="1"/>
        <pt x="74" y="677" on="0"/>
      </contour>
    </TTGlyph>
    <TTGlyph name="equal" xMin="102" yMin="227" xMax="1093" yMax="723">
      <contour>
        <pt x="1093" y="723" on="1"/>
        <pt x="1093" y="580" on="1"/>
        <pt x="102" y="580" on="1"/>
        <pt x="102" y="723" on="1"/>
      </contour>
      <contour>
        <pt x="1093" y="371" on="1"/>
        <pt x="1093" y="227" on="1"/>
        <pt x="102" y="227" on="1"/>
        <pt x="102" y="371" on="1"/>
      </contour>
    </TTGlyph>
    <TTGlyph name="exclam" xMin="450" yMin="0" xMax="622" yMax="1493">
      <contour>
        <pt x="612" y="1493" on="1"/>
        <pt x="612" y="801" on="1"/>
        <pt x="572" y="344" on="1"/>
        <pt x="502" y="344" on="1"/>
        <pt x="462" y="801" on="1"/>
        <pt x="462" y="1493" on="1"/>
      </contour>
      <contour>
        <pt x="622" y="213" on="1"/>
        <pt x="622" y="0" on="1"/>
        <pt x="450" y="0" on="1"/>
        <pt x="450" y="213" on="1"/>
      </contour>
    </TTGlyph>
    <TTGlyph name="five" xMin="124" yMin="0" xMax="1039" yMax="1500">
      <contour>
        <pt x="1039" y="500" on="1"/>
        <pt x="1039" y="0" on="0"/>
        <pt x="602" y="0" on="1"/>
        <pt x="174" y="0" on="0"/>
        <pt x="124" y="397" on="1"/>
        <pt x="274" y="397" on="1"/>
        <pt x="324" y="150" on="0"/>
        <pt x="602" y="150" on="1"/>
        <pt x="889" y="150" on="0"/>
        <pt x="889" y="500" on="1"/>
        <pt x="889" y="850" on="0"/>
        <pt x="612" y="850" on="1"/>
        <pt x="410" y="850" on="0"/>
        <pt x="324" y="722" on="1"/>
        <pt x="179" y="722" on="1"/>
        <pt x="249" y="1500" on="1"/>
        <pt x="969" y="1500" on="1"/>
        <pt x="969" y="1350" on="1"/>
        <pt x="384" y="1350" on="1"/>
        <pt x="347" y="949" on="1"/>
        <pt x="454" y="1000" on="0"/>
        <pt x="612" y="1000" on="1"/>
        <pt x="1039" y="1000" on="0"/>
      </contour>
    </TTGlyph>
    <TTGlyph name="four" xMin="40" yMin="0" xMax="1040" yMax="1500">
      <contour>
        <pt x="698" y="1231" on="1"/>
        <pt x="221" y="519" on="1"/>
        <pt x="698" y="519" on="1"/>
      </contour>
      <contour>
        <pt x="698" y="1500" on="1"/>
        <pt x="848" y="1500" on="1"/>
        <pt x="848" y="519" on="1"/>
        <pt x="1040" y="519" on="1"/>
        <pt x="1040" y="369" on="1"/>
        <pt x="848" y="369" on="1"/>
        <pt x="848" y="0" on="1"/>
        <pt x="698" y="0" on="1"/>
        <pt x="698" y="369" on="1"/>
        <pt x="40" y="369" on="1"/>
        <pt x="40" y="519" on="1"/>
      </contour>
    </TTGlyph>
    <TTGlyph name="glyph139" xMin="-1348" yMin="-650" xMax="848" yMax="1500">
      <contour>
        <pt x="-934" y="-261" on="0"/>
        <pt x="-988" y="-335" on="0"/>
        <pt x="-991" y="-405" on="1"/>
        <pt x="-993" y="-410" on="0"/>
        <pt x="-993" y="-415" on="1"/>
        <pt x="-993" y="-466" on="0"/>
        <pt x="-798" y="-466" on="1"/>
        <pt x="-520" y="-466" on="0"/>
        <pt x="-496" y="-369" on="1"/>
        <pt x="-466" y="-189" on="1"/>
        <pt x="-449" y="-100" on="0"/>
        <pt x="-349" y="-100" on="1"/>
        <pt x="-264" y="-100" on="0"/>
        <pt x="-264" y="-179" on="1"/>
        <pt x="-264" y="-191" on="0"/>
        <pt x="-266" y="-206" on="1"/>
        <pt x="-305" y="-410" on="1"/>
        <pt x="-213" y="-466" on="0"/>
        <pt x="-88" y="-466" on="1"/>
        <pt x="250" y="-466" on="0"/>
        <pt x="314" y="-95" on="1"/>
        <pt x="437" y="603" on="1"/>
        <pt x="480" y="849" on="0"/>
        <pt x="480" y="955" on="1"/>
        <pt x="480" y="1022" on="0"/>
        <pt x="463" y="1033" on="1"/>
        <pt x="239" y="1174" on="1"/>
        <pt x="177" y="1212" on="0"/>
        <pt x="177" y="1288" on="1"/>
        <pt x="177" y="1322" on="0"/>
        <pt x="191" y="1365" on="1"/>
        <pt x="232" y="1500" on="0"/>
        <pt x="386" y="1500" on="1"/>
        <pt x="648" y="1500" on="1"/>
        <pt x="848" y="1500" on="0"/>
        <pt x="848" y="1400" on="1"/>
        <pt x="848" y="1300" on="0"/>
        <pt x="648" y="1300" on="1"/>
        <pt x="375" y="1300" on="1"/>
        <pt x="551" y="1195" on="1"/>
        <pt x="667" y="1125" on="0"/>
        <pt x="667" y="879" on="1"/>
        <pt x="667" y="752" on="0"/>
        <pt x="636" y="579" on="1"/>
        <pt x="509" y="-137" on="1"/>
        <pt x="419" y="-650" on="0"/>
        <pt x="-88" y="-650" on="1"/>
        <pt x="-320" y="-650" on="0"/>
        <pt x="-443" y="-575" on="1"/>
        <pt x="-639" y="-650" on="0"/>
        <pt x="-798" y="-650" on="1"/>
        <pt x="-1206" y="-650" on="0"/>
        <pt x="-1206" y="-450" on="1"/>
        <pt x="-1206" y="-423" on="0"/>
        <pt x="-1199" y="-394" on="1"/>
        <pt x="-1163" y="-338" on="0"/>
        <pt x="-1163" y="-310" on="1"/>
        <pt x="-1163" y="-283" on="0"/>
        <pt x="-1198" y="-283" on="1"/>
        <pt x="-1348" y="-283" on="0"/>
        <pt x="-1348" y="-191" on="1"/>
        <pt x="-1348" y="-100" on="0"/>
        <pt x="-1198" y="-100" on="1"/>
        <pt x="-934" y="-100" on="0"/>
        <pt x="-934" y="-188" on="1"/>
      </contour>
    </TTGlyph>
    <TTGlyph name="glyph144" xMin="-1338" yMin="-650" xMax="848" yMax="1500">
      <contour>
        <pt x="-629" y="-405" on="1"/>
        <pt x="-634" y="-415" on="0"/>
        <pt x="-634" y="-424" on="1"/>
        <pt x="-634" y="-466" on="0"/>
        <pt x="-508" y="-466" on="1"/>
        <pt x="-350" y="-466" on="0"/>
        <pt x="-328" y="-373" on="1"/>
        <pt x="-296" y="-189" on="1"/>
        <pt x="-279" y="-100" on="0"/>
        <pt x="-179" y="-100" on="1"/>
        <pt x="-94" y="-100" on="0"/>
        <pt x="-94" y="-179" on="1"/>
        <pt x="-94" y="-191" on="0"/>
        <pt x="-96" y="-206" on="1"/>
        <pt x="-129" y="-410" on="1"/>
        <pt x="-113" y="-466" on="0"/>
        <pt x="2" y="-466" on="1"/>
        <pt x="250" y="-466" on="0"/>
        <pt x="314" y="-95" on="1"/>
        <pt x="437" y="603" on="1"/>
        <pt x="480" y="849" on="0"/>
        <pt x="480" y="955" on="1"/>
        <pt x="480" y="1022" on="0"/>
        <pt x="463" y="1033" on="1"/>
        <pt x="239" y="1174" on="1"/>
        <pt x="177" y="1212" on="0"/>
        <pt x="177" y="1288" on="1"/>
        <pt x="177" y="1322" on="0"/>
        <pt x="191" y="1365" on="1"/>
        <pt x="232" y="1500" on="0"/>
        <pt x="386" y="1500" on="1"/>
        <pt x="648" y="1500" on="1"/>
        <pt x="848" y="1500" on="0"/>
        <pt x="848" y="1400" on="1"/>
        <pt x="848" y="1300" on="0"/>
        <pt x="648" y="1300" on="1"/>
        <pt x="375" y="1300" on="1"/>
        <pt x="551" y="1195" on="1"/>
        <pt x="667" y="1125" on="0"/>
        <pt x="667" y="879" on="1"/>
        <pt x="667" y="752" on="0"/>
        <pt x="636" y="579" on="1"/>
        <pt x="509" y="-137" on="1"/>
        <pt x="419" y="-650" on="0"/>
        <pt x="2" y="-650" on="1"/>
        <pt x="-220" y="-650" on="0"/>
        <pt x="-240" y="-572" on="1"/>
        <pt x="-379" y="-650" on="0"/>
        <pt x="-508" y="-650" on="1"/>
        <pt x="-834" y="-650" on="0"/>
        <pt x="-834" y="-428" on="1"/>
        <pt x="-834" y="-401" on="0"/>
        <pt x="-829" y="-372" on="1"/>
        <pt x="-826" y="-363" on="0"/>
        <pt x="-826" y="-354" on="1"/>
        <pt x="-826" y="-283" on="0"/>
        <pt x="-1068" y="-283" on="1"/>
        <pt x="-1118" y="-283" on="0"/>
        <pt x="-1130" y="-369" on="1"/>
        <pt x="-1133" y="-389" on="0"/>
        <pt x="-1133" y="-403" on="1"/>
        <pt x="-1133" y="-450" on="0"/>
        <pt x="-1100" y="-450" on="1"/>
        <pt x="-1000" y="-450" on="0"/>
        <pt x="-1000" y="-550" on="1"/>
        <pt x="-1000" y="-650" on="0"/>
        <pt x="-1100" y="-650" on="1"/>
        <pt x="-1181" y="-650" on="1"/>
        <pt x="-1338" y="-650" on="0"/>
        <pt x="-1338" y="-459" on="1"/>
        <pt x="-1338" y="-405" on="0"/>
        <pt x="-1326" y="-338" on="1"/>
        <pt x="-1286" y="-100" on="0"/>
        <pt x="-1068" y="-100" on="1"/>
        <pt x="-623" y="-100" on="0"/>
        <pt x="-623" y="-347" on="1"/>
        <pt x="-623" y="-374" on="0"/>
      </contour>
    </TTGlyph>
    <TTGlyph name="glyph146" xMin="-2269" yMin="-650" xMax="-430" yMax="-50">
      <contour>
        <pt x="-1181" y="-301" on="1"/>
        <pt x="-1187" y="-334" on="1"/>
        <pt x="-1205" y="-387" on="0"/>
        <pt x="-1280" y="-387" on="1"/>
        <pt x="-1388" y="-387" on="0"/>
        <pt x="-1388" y="-332" on="1"/>
        <pt x="-1388" y="-323" on="0"/>
        <pt x="-1385" y="-312" on="1"/>
        <pt x="-1386" y="-270" on="1"/>
        <pt x="-1385" y="-267" on="0"/>
        <pt x="-1385" y="-264" on="1"/>
        <pt x="-1385" y="-247" on="0"/>
        <pt x="-1416" y="-231" on="1"/>
        <pt x="-1453" y="-213" on="0"/>
        <pt x="-1460" y="-213" on="1"/>
        <pt x="-1517" y="-213" on="0"/>
        <pt x="-1572" y="-251" on="1"/>
        <pt x="-1638" y="-288" on="0"/>
        <pt x="-1687" y="-288" on="1"/>
        <pt x="-1732" y="-288" on="0"/>
        <pt x="-1908" y="-213" on="0"/>
        <pt x="-1965" y="-212" on="1"/>
        <pt x="-1973" y="-212" on="1"/>
        <pt x="-2039" y="-212" on="0"/>
        <pt x="-2055" y="-242" on="1"/>
        <pt x="-2059" y="-249" on="0"/>
        <pt x="-2059" y="-255" on="1"/>
        <pt x="-2059" y="-275" on="0"/>
        <pt x="-2007" y="-275" on="1"/>
        <pt x="-1953" y="-275" on="0"/>
        <pt x="-1953" y="-330" on="1"/>
        <pt x="-1953" y="-331" on="1"/>
        <pt x="-1954" y="-388" on="0"/>
        <pt x="-2052" y="-389" on="1"/>
        <pt x="-2180" y="-389" on="0"/>
        <pt x="-2232" y="-351" on="1"/>
        <pt x="-2269" y="-323" on="0"/>
        <pt x="-2269" y="-277" on="1"/>
        <pt x="-2269" y="-258" on="0"/>
        <pt x="-2263" y="-237" on="1"/>
        <pt x="-2254" y="-199" on="1"/>
        <pt x="-2233" y="-125" on="0"/>
        <pt x="-2163" y="-88" on="1"/>
        <pt x="-2093" y="-51" on="0"/>
        <pt x="-1973" y="-51" on="1"/>
        <pt x="-1864" y="-51" on="0"/>
        <pt x="-1765" y="-85" on="1"/>
        <pt x="-1671" y="-124" on="1"/>
        <pt x="-1528" y="-50" on="0"/>
        <pt x="-1462" y="-50" on="1"/>
        <pt x="-1395" y="-50" on="0"/>
        <pt x="-1265" y="-97" on="1"/>
        <pt x="-1219" y="-113" on="0"/>
        <pt x="-1192" y="-134" on="1"/>
        <pt x="-1008" y="-74" on="1"/>
        <pt x="-899" y="-50" on="0"/>
        <pt x="-812" y="-50" on="1"/>
        <pt x="-726" y="-50" on="0"/>
        <pt x="-602" y="-92" on="1"/>
        <pt x="-502" y="-123" on="0"/>
        <pt x="-461" y="-166" on="1"/>
        <pt x="-430" y="-197" on="0"/>
        <pt x="-430" y="-236" on="1"/>
        <pt x="-430" y="-250" on="0"/>
        <pt x="-434" y="-264" on="1"/>
        <pt x="-452" y="-324" on="1"/>
        <pt x="-470" y="-387" on="0"/>
        <pt x="-548" y="-387" on="1"/>
        <pt x="-656" y="-387" on="0"/>
        <pt x="-656" y="-333" on="1"/>
        <pt x="-656" y="-323" on="0"/>
        <pt x="-653" y="-312" on="1"/>
        <pt x="-652" y="-303" on="0"/>
        <pt x="-652" y="-294" on="1"/>
        <pt x="-652" y="-241" on="0"/>
        <pt x="-707" y="-228" on="1"/>
        <pt x="-772" y="-213" on="0"/>
        <pt x="-815" y="-213" on="1"/>
        <pt x="-858" y="-213" on="0"/>
        <pt x="-940" y="-231" on="1"/>
      </contour>
      <contour>
        <pt x="-705" y="-454" on="1"/>
        <pt x="-636" y="-426" on="0"/>
        <pt x="-562" y="-426" on="1"/>
        <pt x="-557" y="-426" on="1"/>
        <pt x="-492" y="-426" on="0"/>
        <pt x="-492" y="-467" on="1"/>
        <pt x="-492" y="-474" on="0"/>
        <pt x="-494" y="-482" on="1"/>
        <pt x="-519" y="-566" on="0"/>
        <pt x="-696" y="-608" on="1"/>
        <pt x="-873" y="-650" on="0"/>
        <pt x="-1203" y="-650" on="1"/>
        <pt x="-1445" y="-650" on="0"/>
        <pt x="-1689" y="-623" on="1"/>
        <pt x="-1932" y="-596" on="0"/>
        <pt x="-2055" y="-570" on="1"/>
        <pt x="-2177" y="-544" on="1"/>
        <pt x="-2244" y="-529" on="0"/>
        <pt x="-2244" y="-492" on="1"/>
        <pt x="-2244" y="-482" on="0"/>
        <pt x="-2239" y="-471" on="1"/>
        <pt x="-2222" y="-430" on="0"/>
        <pt x="-2165" y="-430" on="1"/>
        <pt x="-2146" y="-430" on="0"/>
        <pt x="-2122" y="-435" on="1"/>
        <pt x="-1900" y="-455" on="0"/>
        <pt x="-1430" y="-487" on="0"/>
        <pt x="-1203" y="-487" on="1"/>
        <pt x="-934" y="-487" on="0"/>
        <pt x="-795" y="-468" on="1"/>
      </contour>
    </TTGlyph>
    <TTGlyph name="glyph150" xMin="-1466" yMin="-650" xMax="848" yMax="1500">
      <contour>
        <pt x="-576" y="-321" on="1"/>
        <pt x="-607" y="-300" on="0"/>
        <pt x="-662" y="-300" on="1"/>
        <pt x="-774" y="-300" on="0"/>
        <pt x="-828" y="-405" on="1"/>
        <pt x="-846" y="-440" on="0"/>
        <pt x="-876" y="-440" on="1"/>
        <pt x="-906" y="-440" on="0"/>
        <pt x="-929" y="-405" on="1"/>
        <pt x="-997" y="-300" on="0"/>
        <pt x="-1079" y="-300" on="1"/>
        <pt x="-1243" y="-300" on="0"/>
        <pt x="-1262" y="-412" on="1"/>
        <pt x="-1263" y="-419" on="0"/>
        <pt x="-1263" y="-424" on="1"/>
        <pt x="-1263" y="-450" on="0"/>
        <pt x="-1236" y="-450" on="1"/>
        <pt x="-1208" y="-450" on="0"/>
        <pt x="-1202" y="-400" on="1"/>
        <pt x="-1202" y="-398" on="1"/>
        <pt x="-1202" y="-322" on="0"/>
        <pt x="-1120" y="-319" on="1"/>
        <pt x="-1116" y="-319" on="1"/>
        <pt x="-1037" y="-319" on="0"/>
        <pt x="-1037" y="-423" on="1"/>
        <pt x="-1070" y="-650" on="0"/>
        <pt x="-1236" y="-650" on="1"/>
        <pt x="-1466" y="-650" on="0"/>
        <pt x="-1466" y="-451" on="1"/>
        <pt x="-1466" y="-416" on="0"/>
        <pt x="-1459" y="-375" on="1"/>
        <pt x="-1411" y="-100" on="0"/>
        <pt x="-1163" y="-100" on="1"/>
        <pt x="-999" y="-100" on="0"/>
        <pt x="-876" y="-200" on="1"/>
        <pt x="-735" y="-100" on="0"/>
        <pt x="-610" y="-100" on="1"/>
        <pt x="-385" y="-100" on="0"/>
        <pt x="-344" y="-320" on="1"/>
        <pt x="-302" y="-320" on="1"/>
        <pt x="-238" y="-320" on="0"/>
        <pt x="-179" y="-347" on="1"/>
        <pt x="-118" y="-375" on="0"/>
        <pt x="-59" y="-432" on="1"/>
        <pt x="-5" y="-486" on="0"/>
        <pt x="122" y="-486" on="1"/>
        <pt x="140" y="-486" on="1"/>
        <pt x="244" y="-483" on="0"/>
        <pt x="268" y="-354" on="1"/>
        <pt x="437" y="603" on="1"/>
        <pt x="480" y="849" on="0"/>
        <pt x="480" y="955" on="1"/>
        <pt x="480" y="1022" on="0"/>
        <pt x="463" y="1033" on="1"/>
        <pt x="239" y="1174" on="1"/>
        <pt x="177" y="1212" on="0"/>
        <pt x="177" y="1288" on="1"/>
        <pt x="177" y="1322" on="0"/>
        <pt x="191" y="1365" on="1"/>
        <pt x="232" y="1500" on="0"/>
        <pt x="386" y="1500" on="1"/>
        <pt x="648" y="1500" on="1"/>
        <pt x="848" y="1500" on="0"/>
        <pt x="848" y="1400" on="1"/>
        <pt x="848" y="1300" on="0"/>
        <pt x="648" y="1300" on="1"/>
        <pt x="375" y="1300" on="1"/>
        <pt x="551" y="1195" on="1"/>
        <pt x="667" y="1125" on="0"/>
        <pt x="667" y="879" on="1"/>
        <pt x="667" y="752" on="0"/>
        <pt x="636" y="579" on="1"/>
        <pt x="465" y="-386" on="1"/>
        <pt x="434" y="-548" on="0"/>
        <pt x="238" y="-650" on="0"/>
        <pt x="140" y="-650" on="1"/>
        <pt x="10" y="-650" on="0"/>
        <pt x="-140" y="-572" on="0"/>
        <pt x="-253" y="-480" on="0"/>
        <pt x="-305" y="-480" on="1"/>
        <pt x="-332" y="-480" on="1"/>
        <pt x="-349" y="-564" on="1"/>
        <pt x="-364" y="-650" on="0"/>
        <pt x="-485" y="-650" on="1"/>
        <pt x="-585" y="-650" on="0"/>
        <pt x="-638" y="-613" on="1"/>
        <pt x="-692" y="-576" on="0"/>
        <pt x="-699" y="-503" on="1"/>
        <pt x="-700" y="-489" on="0"/>
        <pt x="-700" y="-477" on="1"/>
        <pt x="-700" y="-404" on="0"/>
        <pt x="-655" y="-365" on="1"/>
        <pt x="-613" y="-329" on="0"/>
      </contour>
    </TTGlyph>
    <TTGlyph name="glyph157" xMin="-619" yMin="-650" xMax="848" yMax="1500">
      <contour>
        <pt x="437" y="603" on="1"/>
        <pt x="480" y="849" on="0"/>
        <pt x="480" y="955" on="1"/>
        <pt x="480" y="1022" on="0"/>
        <pt x="463" y="1033" on="1"/>
        <pt x="239" y="1174" on="1"/>
        <pt x="177" y="1212" on="0"/>
        <pt x="177" y="1288" on="1"/>
        <pt x="177" y="1322" on="0"/>
        <pt x="191" y="1365" on="1"/>
        <pt x="232" y="1500" on="0"/>
        <pt x="386" y="1500" on="1"/>
        <pt x="648" y="1500" on="1"/>
        <pt x="848" y="1500" on="0"/>
        <pt x="848" y="1400" on="1"/>
        <pt x="848" y="1300" on="0"/>
        <pt x="648" y="1300" on="1"/>
        <pt x="375" y="1300" on="1"/>
        <pt x="551" y="1195" on="1"/>
        <pt x="667" y="1125" on="0"/>
        <pt x="667" y="879" on="1"/>
        <pt x="667" y="752" on="0"/>
        <pt x="636" y="579" on="1"/>
        <pt x="488" y="-270" on="1"/>
        <pt x="424" y="-650" on="0"/>
        <pt x="212" y="-650" on="1"/>
        <pt x="74" y="-650" on="0"/>
        <pt x="-55" y="-513" on="1"/>
        <pt x="-119" y="-450" on="0"/>
        <pt x="-190" y="-450" on="1"/>
        <pt x="-277" y="-450" on="0"/>
        <pt x="-345" y="-525" on="1"/>
        <pt x="-452" y="-650" on="0"/>
        <pt x="-551" y="-650" on="1"/>
        <pt x="-619" y="-650" on="0"/>
        <pt x="-619" y="-588" on="1"/>
        <pt x="-619" y="-577" on="0"/>
        <pt x="-617" y="-565" on="1"/>
        <pt x="-544" y="-200" on="1"/>
        <pt x="-524" y="-100" on="0"/>
        <pt x="-426" y="-100" on="1"/>
        <pt x="-348" y="-100" on="0"/>
        <pt x="-348" y="-190" on="1"/>
        <pt x="-348" y="-218" on="0"/>
        <pt x="-356" y="-255" on="1"/>
        <pt x="-370" y="-336" on="1"/>
        <pt x="-303" y="-250" on="0"/>
        <pt x="-190" y="-250" on="1"/>
        <pt x="-52" y="-250" on="0"/>
        <pt x="59" y="-377" on="1"/>
        <pt x="131" y="-450" on="0"/>
        <pt x="192" y="-450" on="1"/>
        <pt x="253" y="-450" on="0"/>
        <pt x="294" y="-213" on="1"/>
      </contour>
    </TTGlyph>
    <TTGlyph name="glyph162" xMin="-569" yMin="-650" xMax="848" yMax="1500">
      <contour>
        <pt x="437" y="603" on="1"/>
        <pt x="480" y="849" on="0"/>
        <pt x="480" y="955" on="1"/>
        <pt x="480" y="1022" on="0"/>
        <pt x="463" y="1033" on="1"/>
        <pt x="239" y="1174" on="1"/>
        <pt x="177" y="1212" on="0"/>
        <pt x="177" y="1288" on="1"/>
        <pt x="177" y="1322" on="0"/>
        <pt x="191" y="1365" on="1"/>
        <pt x="232" y="1500" on="0"/>
        <pt x="386" y="1500" on="1"/>
        <pt x="648" y="1500" on="1"/>
        <pt x="848" y="1500" on="0"/>
        <pt x="848" y="1400" on="1"/>
        <pt x="848" y="1300" on="0"/>
        <pt x="648" y="1300" on="1"/>
        <pt x="375" y="1300" on="1"/>
        <pt x="551" y="1195" on="1"/>
        <pt x="667" y="1125" on="0"/>
        <pt x="667" y="879" on="1"/>
        <pt x="667" y="752" on="0"/>
        <pt x="636" y="579" on="1"/>
        <pt x="488" y="-270" on="1"/>
        <pt x="424" y="-650" on="0"/>
        <pt x="-100" y="-650" on="1"/>
        <pt x="-569" y="-650" on="0"/>
        <pt x="-569" y="-367" on="1"/>
        <pt x="-569" y="-331" on="0"/>
        <pt x="-562" y="-291" on="1"/>
        <pt x="-544" y="-200" on="1"/>
        <pt x="-524" y="-100" on="0"/>
        <pt x="-426" y="-100" on="1"/>
        <pt x="-348" y="-100" on="0"/>
        <pt x="-348" y="-190" on="1"/>
        <pt x="-348" y="-218" on="0"/>
        <pt x="-356" y="-255" on="1"/>
        <pt x="-370" y="-336" on="1"/>
        <pt x="-372" y="-345" on="0"/>
        <pt x="-372" y="-352" on="1"/>
        <pt x="-372" y="-450" on="0"/>
        <pt x="-100" y="-450" on="1"/>
        <pt x="253" y="-450" on="0"/>
        <pt x="294" y="-213" on="1"/>
      </contour>
    </TTGlyph>
    <TTGlyph name="glyph166" xMin="-652" yMin="-650" xMax="848" yMax="1500">
      <contour>
        <pt x="-370" y="-336" on="1"/>
        <pt x="-372" y="-345" on="0"/>
        <pt x="-372" y="-352" on="1"/>
        <pt x="-372" y="-450" on="0"/>
        <pt x="-100" y="-450" on="1"/>
        <pt x="253" y="-450" on="0"/>
        <pt x="294" y="-213" on="1"/>
        <pt x="331" y="0" on="1"/>
        <pt x="250" y="0" on="1"/>
        <pt x="100" y="0" on="0"/>
        <pt x="100" y="100" on="1"/>
        <pt x="100" y="200" on="0"/>
        <pt x="250" y="200" on="1"/>
        <pt x="366" y="200" on="1"/>
        <pt x="437" y="603" on="1"/>
        <pt x="480" y="849" on="0"/>
        <pt x="480" y="955" on="1"/>
        <pt x="480" y="1022" on="0"/>
        <pt x="463" y="1033" on="1"/>
        <pt x="239" y="1174" on="1"/>
        <pt x="177" y="1212" on="0"/>
        <pt x="177" y="1288" on="1"/>
        <pt x="177" y="1322" on="0"/>
        <pt x="191" y="1365" on="1"/>
        <pt x="232" y="1500" on="0"/>
        <pt x="386" y="1500" on="1"/>
        <pt x="648" y="1500" on="1"/>
        <pt x="848" y="1500" on="0"/>
        <pt x="848" y="1400" on="1"/>
        <pt x="848" y="1300" on="0"/>
        <pt x="648" y="1300" on="1"/>
        <pt x="375" y="1300" on="1"/>
        <pt x="551" y="1195" on="1"/>
        <pt x="667" y="1125" on="0"/>
        <pt x="667" y="879" on="1"/>
        <pt x="667" y="752" on="0"/>
        <pt x="636" y="579" on="1"/>
        <pt x="570" y="200" on="1"/>
        <pt x="620" y="200" on="1"/>
        <pt x="770" y="200" on="0"/>
        <pt x="770" y="100" on="1"/>
        <pt x="770" y="0" on="0"/>
        <pt x="620" y="0" on="1"/>
        <pt x="535" y="0" on="1"/>
        <pt x="488" y="-270" on="1"/>
        <pt x="424" y="-650" on="0"/>
        <pt x="-100" y="-650" on="1"/>
        <pt x="-569" y="-650" on="0"/>
        <pt x="-569" y="-367" on="1"/>
        <pt x="-569" y="-335" on="0"/>
        <pt x="-563" y="-299" on="1"/>
        <pt x="-564" y="-300" on="1"/>
        <pt x="-652" y="-300" on="0"/>
        <pt x="-652" y="-200" on="1"/>
        <pt x="-652" y="-100" on="0"/>
        <pt x="-536" y="-100" on="1"/>
        <pt x="-356" y="-100" on="0"/>
        <pt x="-356" y="-236" on="1"/>
        <pt x="-356" y="-259" on="0"/>
        <pt x="-361" y="-287" on="1"/>
      </contour>
    </TTGlyph>
    <TTGlyph name="glyph169" xMin="-705" yMin="-1200" xMax="-423" yMax="-700">
      <contour>
        <pt x="-488" y="-1151" on="1"/>
        <pt x="-509" y="-1200" on="0"/>
        <pt x="-590" y="-1200" on="1"/>
        <pt x="-671" y="-1200" on="0"/>
        <pt x="-694" y="-1144" on="1"/>
        <pt x="-705" y="-1118" on="0"/>
        <pt x="-705" y="-1094" on="1"/>
        <pt x="-705" y="-1064" on="0"/>
        <pt x="-689" y="-1037" on="1"/>
        <pt x="-661" y="-988" on="0"/>
        <pt x="-651" y="-926" on="1"/>
        <pt x="-627" y="-800" on="1"/>
        <pt x="-628" y="-792" on="0"/>
        <pt x="-628" y="-784" on="1"/>
        <pt x="-628" y="-700" on="0"/>
        <pt x="-519" y="-700" on="1"/>
        <pt x="-423" y="-700" on="0"/>
        <pt x="-423" y="-787" on="1"/>
        <pt x="-423" y="-809" on="0"/>
        <pt x="-430" y="-837" on="1"/>
      </contour>
    </TTGlyph>
    <TTGlyph name="glyph170" xMin="-1098" yMin="-1200" xMax="-423" yMax="-700">
      <contour>
        <pt x="-479" y="-700" on="1"/>
        <pt x="-423" y="-700" on="0"/>
        <pt x="-423" y="-743" on="1"/>
        <pt x="-423" y="-762" on="0"/>
        <pt x="-434" y="-789" on="1"/>
        <pt x="-485" y="-901" on="1"/>
        <pt x="-551" y="-1050" on="0"/>
        <pt x="-624" y="-1125" on="1"/>
        <pt x="-696" y="-1200" on="0"/>
        <pt x="-835" y="-1200" on="1"/>
        <pt x="-1025" y="-1200" on="0"/>
        <pt x="-1073" y="-1116" on="1"/>
        <pt x="-1098" y="-1072" on="0"/>
        <pt x="-1098" y="-1004" on="1"/>
        <pt x="-1098" y="-945" on="0"/>
        <pt x="-1079" y="-868" on="1"/>
        <pt x="-1052" y="-764" on="1"/>
        <pt x="-1035" y="-700" on="0"/>
        <pt x="-909" y="-700" on="1"/>
        <pt x="-850" y="-700" on="0"/>
        <pt x="-850" y="-753" on="1"/>
        <pt x="-850" y="-769" on="0"/>
        <pt x="-855" y="-790" on="1"/>
        <pt x="-882" y="-894" on="1"/>
        <pt x="-897" y="-954" on="0"/>
        <pt x="-897" y="-985" on="1"/>
        <pt x="-897" y="-1000" on="0"/>
        <pt x="-893" y="-1008" on="1"/>
        <pt x="-882" y="-1033" on="0"/>
        <pt x="-837" y="-1033" on="1"/>
        <pt x="-802" y="-1033" on="0"/>
        <pt x="-728" y="-973" on="0"/>
        <pt x="-680" y="-871" on="1"/>
        <pt x="-635" y="-770" on="1"/>
        <pt x="-608" y="-700" on="0"/>
      </contour>
    </TTGlyph>
    <TTGlyph name="glyph171" xMin="-1197" yMin="-1200" xMax="-423" yMax="-700">
      <contour>
        <pt x="-508" y="-700" on="1"/>
        <pt x="-423" y="-700" on="0"/>
        <pt x="-423" y="-744" on="1"/>
        <pt x="-423" y="-763" on="0"/>
        <pt x="-433" y="-790" on="1"/>
        <pt x="-494" y="-1017" on="1"/>
        <pt x="-535" y="-1200" on="0"/>
        <pt x="-684" y="-1200" on="1"/>
        <pt x="-778" y="-1200" on="0"/>
        <pt x="-876" y="-1105" on="1"/>
        <pt x="-925" y="-1073" on="0"/>
        <pt x="-961" y="-1073" on="1"/>
        <pt x="-978" y="-1073" on="0"/>
        <pt x="-993" y="-1134" on="1"/>
        <pt x="-1010" y="-1200" on="0"/>
        <pt x="-1137" y="-1200" on="1"/>
        <pt x="-1197" y="-1200" on="0"/>
        <pt x="-1197" y="-1149" on="1"/>
        <pt x="-1197" y="-1136" on="0"/>
        <pt x="-1193" y="-1120" on="1"/>
        <pt x="-1101" y="-765" on="1"/>
        <pt x="-1084" y="-700" on="0"/>
        <pt x="-988" y="-700" on="1"/>
        <pt x="-900" y="-700" on="0"/>
        <pt x="-900" y="-762" on="1"/>
        <pt x="-900" y="-775" on="0"/>
        <pt x="-904" y="-791" on="1"/>
        <pt x="-945" y="-946" on="1"/>
        <pt x="-877" y="-946" on="0"/>
        <pt x="-781" y="-1031" on="0"/>
        <pt x="-746" y="-1031" on="1"/>
        <pt x="-711" y="-1031" on="0"/>
        <pt x="-690" y="-987" on="1"/>
        <pt x="-634" y="-771" on="1"/>
        <pt x="-607" y="-700" on="0"/>
      </contour>
    </TTGlyph>
    <TTGlyph name="glyph172" xMin="-1150" yMin="2050" xMax="0" yMax="2500">
      <contour>
        <pt x="-1150" y="2270" on="1"/>
        <pt x="-1150" y="2500" on="0"/>
        <pt x="-700" y="2500" on="1"/>
        <pt x="-340" y="2500" on="0"/>
        <pt x="-85" y="2264" on="1"/>
        <pt x="0" y="2185" on="0"/>
        <pt x="0" y="2140" on="1"/>
        <pt x="0" y="2050" on="0"/>
        <pt x="-100" y="2050" on="1"/>
        <pt x="-900" y="2050" on="1"/>
        <pt x="-1150" y="2050" on="0"/>
      </contour>
      <contour>
        <pt x="-950" y="2230" on="0"/>
        <pt x="-900" y="2230" on="1"/>
        <pt x="-330" y="2230" on="1"/>
        <pt x="-469" y="2320" on="0"/>
        <pt x="-700" y="2320" on="1"/>
        <pt x="-753" y="2323" on="0"/>
        <pt x="-795" y="2323" on="1"/>
        <pt x="-950" y="2323" on="0"/>
        <pt x="-950" y="2282" on="1"/>
      </contour>
    </TTGlyph>
    <TTGlyph name="glyph173" xMin="-1150" yMin="2050" xMax="50" yMax="2500">
      <contour>
        <pt x="-900" y="2199" on="1"/>
        <pt x="-330" y="2199" on="1"/>
        <pt x="-469" y="2274" on="0"/>
        <pt x="-700" y="2274" on="1"/>
        <pt x="-751" y="2276" on="0"/>
        <pt x="-791" y="2276" on="1"/>
        <pt x="-950" y="2276" on="0"/>
        <pt x="-950" y="2242" on="1"/>
        <pt x="-950" y="2199" on="0"/>
      </contour>
      <contour>
        <pt x="-16" y="2163" on="1"/>
        <pt x="0" y="2141" on="0"/>
        <pt x="0" y="2125" on="1"/>
        <pt x="0" y="2050" on="0"/>
        <pt x="-100" y="2050" on="1"/>
        <pt x="-900" y="2050" on="1"/>
        <pt x="-1150" y="2050" on="0"/>
        <pt x="-1150" y="2232" on="1"/>
        <pt x="-1150" y="2423" on="0"/>
        <pt x="-700" y="2423" on="1"/>
        <pt x="-409" y="2423" on="0"/>
        <pt x="-187" y="2296" on="1"/>
        <pt x="-147" y="2469" on="1"/>
        <pt x="-122" y="2500" on="0"/>
        <pt x="-67" y="2500" on="1"/>
        <pt x="-56" y="2500" on="0"/>
        <pt x="-44" y="2499" on="1"/>
        <pt x="30" y="2491" on="0"/>
        <pt x="50" y="2443" on="1"/>
      </contour>
    </TTGlyph>
    <TTGlyph name="glyph174" xMin="-1150" yMin="2050" xMax="50" yMax="2500">
      <contour>
        <pt x="-900" y="2188" on="1"/>
        <pt x="-330" y="2188" on="1"/>
        <pt x="-469" y="2258" on="0"/>
        <pt x="-700" y="2258" on="1"/>
        <pt x="-754" y="2260" on="0"/>
        <pt x="-796" y="2260" on="1"/>
        <pt x="-950" y="2260" on="0"/>
        <pt x="-950" y="2229" on="1"/>
        <pt x="-950" y="2188" on="0"/>
      </contour>
      <contour>
        <pt x="-430" y="2368" on="1"/>
        <pt x="-409" y="2500" on="0"/>
        <pt x="-203" y="2500" on="1"/>
        <pt x="50" y="2500" on="0"/>
        <pt x="50" y="2335" on="1"/>
        <pt x="50" y="2231" on="0"/>
        <pt x="-58" y="2195" on="1"/>
        <pt x="0" y="2148" on="0"/>
        <pt x="0" y="2119" on="1"/>
        <pt x="0" y="2050" on="0"/>
        <pt x="-100" y="2050" on="1"/>
        <pt x="-900" y="2050" on="1"/>
        <pt x="-1150" y="2050" on="0"/>
        <pt x="-1150" y="2219" on="1"/>
        <pt x="-1150" y="2396" on="0"/>
        <pt x="-700" y="2396" on="1"/>
        <pt x="-556" y="2396" on="0"/>
      </contour>
      <contour>
        <pt x="-282" y="2321" on="1"/>
        <pt x="-236" y="2303" on="0"/>
        <pt x="-190" y="2279" on="1"/>
        <pt x="-124" y="2285" on="0"/>
        <pt x="-124" y="2333" on="1"/>
        <pt x="-124" y="2337" on="1"/>
        <pt x="-126" y="2390" on="0"/>
        <pt x="-200" y="2390" on="1"/>
        <pt x="-206" y="2390" on="1"/>
        <pt x="-283" y="2388" on="0"/>
        <pt x="-283" y="2336" on="1"/>
        <pt x="-283" y="2332" on="1"/>
        <pt x="-283" y="2327" on="0"/>
      </contour>
    </TTGlyph>
    <TTGlyph name="glyph175" xMin="-1150" yMin="2050" xMax="50" yMax="2500">
      <contour>
        <pt x="-900" y="2188" on="1"/>
        <pt x="-330" y="2188" on="1"/>
        <pt x="-469" y="2258" on="0"/>
        <pt x="-700" y="2258" on="1"/>
        <pt x="-754" y="2260" on="0"/>
        <pt x="-796" y="2260" on="1"/>
        <pt x="-950" y="2260" on="0"/>
        <pt x="-950" y="2229" on="1"/>
        <pt x="-950" y="2188" on="0"/>
      </contour>
      <contour>
        <pt x="-494" y="2380" on="1"/>
        <pt x="-471" y="2471" on="1"/>
        <pt x="-446" y="2500" on="0"/>
        <pt x="-391" y="2500" on="1"/>
        <pt x="-380" y="2500" on="0"/>
        <pt x="-368" y="2499" on="1"/>
        <pt x="-294" y="2492" on="0"/>
        <pt x="-274" y="2447" on="1"/>
        <pt x="-302" y="2330" on="1"/>
        <pt x="-243" y="2308" on="0"/>
        <pt x="-187" y="2278" on="1"/>
        <pt x="-147" y="2439" on="1"/>
        <pt x="-122" y="2468" on="0"/>
        <pt x="-67" y="2468" on="1"/>
        <pt x="-56" y="2468" on="0"/>
        <pt x="-44" y="2467" on="1"/>
        <pt x="30" y="2460" on="0"/>
        <pt x="50" y="2416" on="1"/>
        <pt x="-16" y="2155" on="1"/>
        <pt x="0" y="2134" on="0"/>
        <pt x="0" y="2119" on="1"/>
        <pt x="0" y="2050" on="0"/>
        <pt x="-100" y="2050" on="1"/>
        <pt x="-900" y="2050" on="1"/>
        <pt x="-1150" y="2050" on="0"/>
        <pt x="-1150" y="2219" on="1"/>
        <pt x="-1150" y="2396" on="0"/>
        <pt x="-700" y="2396" on="1"/>
        <pt x="-592" y="2396" on="0"/>
      </contour>
    </TTGlyph>
    <TTGlyph name="glyph176" xMin="-900" yMin="2050" xMax="-300" yMax="2500">
      <contour>
        <pt x="-700" y="2275" on="1"/>
        <pt x="-700" y="2238" on="0"/>
        <pt x="-650" y="2200" on="0"/>
        <pt x="-600" y="2200" on="1"/>
        <pt x="-550" y="2200" on="0"/>
        <pt x="-500" y="2238" on="0"/>
        <pt x="-500" y="2275" on="1"/>
        <pt x="-500" y="2313" on="0"/>
        <pt x="-550" y="2350" on="0"/>
        <pt x="-600" y="2350" on="1"/>
        <pt x="-650" y="2350" on="0"/>
        <pt x="-700" y="2313" on="0"/>
      </contour>
      <contour>
        <pt x="-300" y="2275" on="1"/>
        <pt x="-300" y="2162" on="0"/>
        <pt x="-374" y="2106" on="1"/>
        <pt x="-449" y="2050" on="0"/>
        <pt x="-600" y="2050" on="1"/>
        <pt x="-750" y="2050" on="0"/>
        <pt x="-825" y="2106" on="1"/>
        <pt x="-900" y="2162" on="0"/>
        <pt x="-900" y="2275" on="1"/>
        <pt x="-900" y="2388" on="0"/>
        <pt x="-825" y="2444" on="1"/>
        <pt x="-750" y="2500" on="0"/>
        <pt x="-600" y="2500" on="1"/>
        <pt x="-449" y="2500" on="0"/>
        <pt x="-374" y="2444" on="1"/>
        <pt x="-300" y="2388" on="0"/>
      </contour>
    </TTGlyph>
    <TTGlyph name="glyph177" xMin="-996" yMin="2050" xMax="-308" yMax="2500">
      <contour>
        <pt x="-565" y="2211" on="1"/>
        <pt x="-591" y="2107" on="1"/>
        <pt x="-606" y="2054" on="0"/>
        <pt x="-707" y="2051" on="1"/>
        <pt x="-711" y="2050" on="0"/>
        <pt x="-715" y="2050" on="1"/>
        <pt x="-792" y="2050" on="0"/>
        <pt x="-792" y="2101" on="1"/>
        <pt x="-792" y="2111" on="0"/>
        <pt x="-789" y="2124" on="1"/>
        <pt x="-763" y="2226" on="1"/>
        <pt x="-915" y="2242" on="1"/>
        <pt x="-996" y="2252" on="0"/>
        <pt x="-996" y="2306" on="1"/>
        <pt x="-996" y="2316" on="1"/>
        <pt x="-996" y="2320" on="0"/>
        <pt x="-995" y="2324" on="1"/>
        <pt x="-985" y="2360" on="0"/>
        <pt x="-918" y="2360" on="1"/>
        <pt x="-900" y="2360" on="0"/>
        <pt x="-879" y="2358" on="1"/>
        <pt x="-731" y="2343" on="1"/>
        <pt x="-709" y="2441" on="1"/>
        <pt x="-695" y="2496" on="0"/>
        <pt x="-593" y="2500" on="1"/>
        <pt x="-584" y="2500" on="1"/>
        <pt x="-507" y="2500" on="0"/>
        <pt x="-507" y="2452" on="1"/>
        <pt x="-507" y="2442" on="0"/>
        <pt x="-510" y="2431" on="1"/>
        <pt x="-537" y="2328" on="1"/>
        <pt x="-396" y="2313" on="1"/>
        <pt x="-309" y="2303" on="0"/>
        <pt x="-308" y="2256" on="1"/>
        <pt x="-308" y="2251" on="0"/>
        <pt x="-310" y="2244" on="1"/>
        <pt x="-325" y="2195" on="0"/>
        <pt x="-402" y="2195" on="1"/>
        <pt x="-416" y="2195" on="0"/>
        <pt x="-431" y="2196" on="1"/>
      </contour>
    </TTGlyph>
    <TTGlyph name="glyph178" xMin="-1000" yMin="2050" xMax="100" yMax="2500">
      <contour>
        <pt x="-740" y="2344" on="1"/>
        <pt x="-625" y="2344" on="0"/>
        <pt x="-500" y="2294" on="0"/>
        <pt x="-500" y="2250" on="1"/>
        <pt x="-500" y="2210" on="0"/>
        <pt x="-625" y="2210" on="1"/>
        <pt x="-700" y="2210" on="0"/>
        <pt x="-700" y="2237" on="1"/>
        <pt x="-797" y="2237" on="0"/>
        <pt x="-797" y="2210" on="1"/>
        <pt x="-797" y="2183" on="0"/>
        <pt x="-747" y="2170" on="1"/>
        <pt x="-698" y="2157" on="0"/>
        <pt x="-510" y="2157" on="1"/>
        <pt x="-325" y="2157" on="0"/>
        <pt x="-100" y="2210" on="0"/>
        <pt x="-100" y="2296" on="1"/>
        <pt x="-100" y="2335" on="0"/>
        <pt x="-161" y="2381" on="0"/>
        <pt x="-272" y="2395" on="1"/>
        <pt x="-343" y="2403" on="0"/>
        <pt x="-343" y="2449" on="1"/>
        <pt x="-343" y="2459" on="0"/>
        <pt x="-340" y="2470" on="1"/>
        <pt x="-325" y="2500" on="0"/>
        <pt x="-265" y="2500" on="1"/>
        <pt x="-249" y="2500" on="0"/>
        <pt x="-229" y="2498" on="1"/>
        <pt x="-64" y="2478" on="0"/>
        <pt x="18" y="2422" on="1"/>
        <pt x="100" y="2367" on="0"/>
        <pt x="100" y="2296" on="1"/>
        <pt x="100" y="2170" on="0"/>
        <pt x="-200" y="2050" on="0"/>
        <pt x="-510" y="2050" on="1"/>
        <pt x="-715" y="2050" on="0"/>
        <pt x="-1000" y="2117" on="0"/>
        <pt x="-1000" y="2210" on="1"/>
        <pt x="-1000" y="2274" on="0"/>
        <pt x="-855" y="2344" on="0"/>
      </contour>
    </TTGlyph>
    <TTGlyph name="glyph179" xMin="273" yMin="0" xMax="2556" yMax="1500">
      <contour>
        <pt x="1478" y="748" on="1"/>
        <pt x="1499" y="867" on="1"/>
        <pt x="1526" y="1018" on="1"/>
        <pt x="1534" y="1061" on="0"/>
        <pt x="1534" y="1097" on="1"/>
        <pt x="1534" y="1245" on="0"/>
        <pt x="1407" y="1292" on="1"/>
        <pt x="1389" y="1298" on="0"/>
        <pt x="1372" y="1298" on="1"/>
        <pt x="1258" y="1298" on="0"/>
        <pt x="1160" y="1018" on="1"/>
        <pt x="1134" y="958" on="0"/>
        <pt x="1037" y="958" on="1"/>
        <pt x="941" y="958" on="0"/>
        <pt x="941" y="1042" on="1"/>
        <pt x="941" y="1058" on="1"/>
        <pt x="941" y="1300" on="0"/>
        <pt x="802" y="1300" on="1"/>
        <pt x="634" y="1300" on="0"/>
        <pt x="596" y="1084" on="1"/>
        <pt x="486" y="465" on="1"/>
        <pt x="471" y="377" on="0"/>
        <pt x="471" y="316" on="1"/>
        <pt x="471" y="207" on="0"/>
        <pt x="520" y="186" on="1"/>
        <pt x="548" y="174" on="0"/>
        <pt x="571" y="174" on="1"/>
        <pt x="611" y="174" on="0"/>
        <pt x="635" y="210" on="1"/>
        <pt x="653" y="242" on="0"/>
        <pt x="653" y="267" on="1"/>
        <pt x="653" y="315" on="0"/>
        <pt x="582" y="331" on="1"/>
        <pt x="492" y="339" on="0"/>
        <pt x="492" y="401" on="1"/>
        <pt x="492" y="414" on="0"/>
        <pt x="496" y="430" on="1"/>
        <pt x="512" y="492" on="0"/>
        <pt x="575" y="492" on="1"/>
        <pt x="601" y="492" on="0"/>
        <pt x="634" y="482" on="1"/>
        <pt x="832" y="430" on="0"/>
        <pt x="832" y="284" on="1"/>
        <pt x="832" y="210" on="0"/>
        <pt x="780" y="111" on="1"/>
        <pt x="701" y="0" on="0"/>
        <pt x="573" y="0" on="1"/>
        <pt x="513" y="0" on="0"/>
        <pt x="441" y="26" on="1"/>
        <pt x="273" y="84" on="0"/>
        <pt x="273" y="330" on="1"/>
        <pt x="273" y="409" on="0"/>
        <pt x="290" y="507" on="1"/>
        <pt x="400" y="1121" on="1"/>
        <pt x="466" y="1500" on="0"/>
        <pt x="802" y="1500" on="1"/>
        <pt x="1001" y="1500" on="0"/>
        <pt x="1081" y="1300" on="1"/>
        <pt x="1205" y="1500" on="0"/>
        <pt x="1368" y="1500" on="1"/>
        <pt x="1420" y="1500" on="0"/>
        <pt x="1476" y="1479" on="1"/>
        <pt x="1592" y="1437" on="0"/>
        <pt x="1656" y="1359" on="1"/>
        <pt x="1789" y="1500" on="0"/>
        <pt x="2067" y="1500" on="1"/>
        <pt x="2556" y="1500" on="0"/>
        <pt x="2556" y="1053" on="1"/>
        <pt x="2556" y="966" on="0"/>
        <pt x="2538" y="863" on="1"/>
        <pt x="2394" y="50" on="1"/>
        <pt x="2373" y="0" on="0"/>
        <pt x="2292" y="0" on="1"/>
        <pt x="2211" y="0" on="0"/>
        <pt x="2188" y="57" on="1"/>
        <pt x="2177" y="83" on="0"/>
        <pt x="2177" y="107" on="1"/>
        <pt x="2177" y="136" on="0"/>
        <pt x="2193" y="164" on="1"/>
        <pt x="2221" y="213" on="0"/>
        <pt x="2231" y="275" on="1"/>
        <pt x="2341" y="896" on="1"/>
        <pt x="2355" y="968" on="0"/>
        <pt x="2355" y="1027" on="1"/>
        <pt x="2355" y="1300" on="0"/>
        <pt x="2067" y="1300" on="1"/>
        <pt x="1779" y="1300" on="0"/>
        <pt x="1741" y="1084" on="1"/>
        <pt x="1692" y="807" on="1"/>
        <pt x="1558" y="50" on="1"/>
        <pt x="1537" y="0" on="0"/>
        <pt x="1456" y="0" on="1"/>
        <pt x="1375" y="0" on="0"/>
        <pt x="1352" y="57" on="1"/>
        <pt x="1341" y="83" on="0"/>
        <pt x="1341" y="107" on="1"/>
        <pt x="1341" y="136" on="0"/>
        <pt x="1357" y="164" on="1"/>
        <pt x="1385" y="213" on="0"/>
        <pt x="1395" y="275" on="1"/>
      </contour>
    </TTGlyph>
    <TTGlyph name="glyph180" xMin="-2425" yMin="-650" xMax="-1295" yMax="-100">
      <contour>
        <pt x="-2166" y="-650" on="1"/>
        <pt x="-2425" y="-650" on="0"/>
        <pt x="-2425" y="-445" on="1"/>
        <pt x="-2425" y="-412" on="0"/>
        <pt x="-2419" y="-375" on="1"/>
        <pt x="-2371" y="-100" on="0"/>
        <pt x="-1966" y="-100" on="1"/>
        <pt x="-1295" y="-100" on="0"/>
        <pt x="-1295" y="-431" on="1"/>
        <pt x="-1295" y="-462" on="0"/>
        <pt x="-1301" y="-498" on="1"/>
        <pt x="-1314" y="-574" on="1"/>
        <pt x="-1327" y="-650" on="0"/>
        <pt x="-1428" y="-650" on="1"/>
        <pt x="-1517" y="-650" on="0"/>
        <pt x="-1517" y="-583" on="1"/>
        <pt x="-1517" y="-573" on="0"/>
        <pt x="-1515" y="-562" on="1"/>
        <pt x="-1499" y="-475" on="1"/>
        <pt x="-1497" y="-465" on="0"/>
        <pt x="-1497" y="-456" on="1"/>
        <pt x="-1497" y="-300" on="0"/>
        <pt x="-1966" y="-300" on="1"/>
        <pt x="-2203" y="-300" on="0"/>
        <pt x="-2222" y="-412" on="1"/>
        <pt x="-2223" y="-416" on="0"/>
        <pt x="-2223" y="-419" on="1"/>
        <pt x="-2223" y="-450" on="0"/>
        <pt x="-2166" y="-450" on="1"/>
        <pt x="-2108" y="-450" on="0"/>
        <pt x="-2102" y="-400" on="1"/>
        <pt x="-2102" y="-398" on="1"/>
        <pt x="-2102" y="-322" on="0"/>
        <pt x="-2024" y="-319" on="1"/>
        <pt x="-2020" y="-319" on="1"/>
        <pt x="-1945" y="-319" on="0"/>
        <pt x="-1937" y="-423" on="1"/>
        <pt x="-1970" y="-650" on="0"/>
      </contour>
    </TTGlyph>
    <TTGlyph name="glyph181" xMin="-1635" yMin="-1200" xMax="-1353" yMax="-700">
      <contour>
        <pt x="-1418" y="-1151" on="1"/>
        <pt x="-1439" y="-1200" on="0"/>
        <pt x="-1520" y="-1200" on="1"/>
        <pt x="-1601" y="-1200" on="0"/>
        <pt x="-1624" y="-1144" on="1"/>
        <pt x="-1635" y="-1118" on="0"/>
        <pt x="-1635" y="-1094" on="1"/>
        <pt x="-1635" y="-1064" on="0"/>
        <pt x="-1619" y="-1037" on="1"/>
        <pt x="-1591" y="-988" on="0"/>
        <pt x="-1581" y="-926" on="1"/>
        <pt x="-1557" y="-800" on="1"/>
        <pt x="-1558" y="-792" on="0"/>
        <pt x="-1558" y="-784" on="1"/>
        <pt x="-1558" y="-700" on="0"/>
        <pt x="-1449" y="-700" on="1"/>
        <pt x="-1353" y="-700" on="0"/>
        <pt x="-1353" y="-787" on="1"/>
        <pt x="-1353" y="-809" on="0"/>
        <pt x="-1360" y="-837" on="1"/>
      </contour>
    </TTGlyph>
    <TTGlyph name="glyph182" xMin="-2028" yMin="-1200" xMax="-1353" yMax="-700">
      <contour>
        <pt x="-1409" y="-700" on="1"/>
        <pt x="-1353" y="-700" on="0"/>
        <pt x="-1353" y="-743" on="1"/>
        <pt x="-1353" y="-762" on="0"/>
        <pt x="-1364" y="-789" on="1"/>
        <pt x="-1415" y="-901" on="1"/>
        <pt x="-1481" y="-1050" on="0"/>
        <pt x="-1554" y="-1125" on="1"/>
        <pt x="-1626" y="-1200" on="0"/>
        <pt x="-1765" y="-1200" on="1"/>
        <pt x="-1955" y="-1200" on="0"/>
        <pt x="-2003" y="-1116" on="1"/>
        <pt x="-2028" y="-1072" on="0"/>
        <pt x="-2028" y="-1004" on="1"/>
        <pt x="-2028" y="-945" on="0"/>
        <pt x="-2009" y="-868" on="1"/>
        <pt x="-1982" y="-764" on="1"/>
        <pt x="-1965" y="-700" on="0"/>
        <pt x="-1839" y="-700" on="1"/>
        <pt x="-1780" y="-700" on="0"/>
        <pt x="-1780" y="-753" on="1"/>
        <pt x="-1780" y="-769" on="0"/>
        <pt x="-1785" y="-790" on="1"/>
        <pt x="-1812" y="-894" on="1"/>
        <pt x="-1827" y="-954" on="0"/>
        <pt x="-1827" y="-985" on="1"/>
        <pt x="-1827" y="-1000" on="0"/>
        <pt x="-1823" y="-1008" on="1"/>
        <pt x="-1812" y="-1033" on="0"/>
        <pt x="-1767" y="-1033" on="1"/>
        <pt x="-1732" y="-1033" on="0"/>
        <pt x="-1658" y="-973" on="0"/>
        <pt x="-1610" y="-871" on="1"/>
        <pt x="-1565" y="-770" on="1"/>
        <pt x="-1538" y="-700" on="0"/>
      </contour>
    </TTGlyph>
    <TTGlyph name="glyph183" xMin="-2127" yMin="-1200" xMax="-1353" yMax="-700">
      <contour>
        <pt x="-1438" y="-700" on="1"/>
        <pt x="-1353" y="-700" on="0"/>
        <pt x="-1353" y="-744" on="1"/>
        <pt x="-1353" y="-763" on="0"/>
        <pt x="-1363" y="-790" on="1"/>
        <pt x="-1424" y="-1017" on="1"/>
        <pt x="-1465" y="-1200" on="0"/>
        <pt x="-1614" y="-1200" on="1"/>
        <pt x="-1708" y="-1200" on="0"/>
        <pt x="-1806" y="-1105" on="1"/>
        <pt x="-1855" y="-1073" on="0"/>
        <pt x="-1891" y="-1073" on="1"/>
        <pt x="-1908" y="-1073" on="0"/>
        <pt x="-1923" y="-1134" on="1"/>
        <pt x="-1940" y="-1200" on="0"/>
        <pt x="-2067" y="-1200" on="1"/>
        <pt x="-2127" y="-1200" on="0"/>
        <pt x="-2127" y="-1149" on="1"/>
        <pt x="-2127" y="-1136" on="0"/>
        <pt x="-2123" y="-1120" on="1"/>
        <pt x="-2031" y="-765" on="1"/>
        <pt x="-2014" y="-700" on="0"/>
        <pt x="-1918" y="-700" on="1"/>
        <pt x="-1830" y="-700" on="0"/>
        <pt x="-1830" y="-762" on="1"/>
        <pt x="-1830" y="-775" on="0"/>
        <pt x="-1834" y="-791" on="1"/>
        <pt x="-1875" y="-946" on="1"/>
        <pt x="-1807" y="-946" on="0"/>
        <pt x="-1711" y="-1031" on="0"/>
        <pt x="-1676" y="-1031" on="1"/>
        <pt x="-1641" y="-1031" on="0"/>
        <pt x="-1620" y="-987" on="1"/>
        <pt x="-1564" y="-771" on="1"/>
        <pt x="-1537" y="-700" on="0"/>
      </contour>
    </TTGlyph>
    <TTGlyph name="glyph185" xMin="-668" yMin="-1200" xMax="707" yMax="2500">
      <contour>
        <pt x="-350" y="2050" on="1"/>
        <pt x="220" y="2050" on="1"/>
        <pt x="81" y="2150" on="0"/>
        <pt x="-150" y="2150" on="1"/>
        <pt x="-204" y="2153" on="0"/>
        <pt x="-246" y="2153" on="1"/>
        <pt x="-400" y="2153" on="0"/>
        <pt x="-400" y="2108" on="1"/>
        <pt x="-400" y="2050" on="0"/>
      </contour>
      <contour>
        <pt x="536" y="1997" on="1"/>
        <pt x="707" y="1924" on="0"/>
        <pt x="707" y="1749" on="1"/>
        <pt x="707" y="1715" on="0"/>
        <pt x="700" y="1676" on="1"/>
        <pt x="622" y="1223" on="1"/>
        <pt x="538" y="739" on="1"/>
        <pt x="275" y="-727" on="1"/>
        <pt x="192" y="-1200" on="0"/>
        <pt x="-233" y="-1200" on="1"/>
        <pt x="-668" y="-1200" on="0"/>
        <pt x="-668" y="-909" on="1"/>
        <pt x="-668" y="-869" on="0"/>
        <pt x="-660" y="-825" on="1"/>
        <pt x="-652" y="-775" on="1"/>
        <pt x="-639" y="-700" on="0"/>
        <pt x="-537" y="-700" on="1"/>
        <pt x="-451" y="-700" on="0"/>
        <pt x="-451" y="-772" on="1"/>
        <pt x="-451" y="-785" on="0"/>
        <pt x="-454" y="-800" on="1"/>
        <pt x="-463" y="-850" on="1"/>
        <pt x="-466" y="-865" on="0"/>
        <pt x="-466" y="-878" on="1"/>
        <pt x="-466" y="-1000" on="0"/>
        <pt x="-233" y="-1000" on="1"/>
        <pt x="25" y="-1000" on="0"/>
        <pt x="77" y="-706" on="1"/>
        <pt x="501" y="1703" on="1"/>
        <pt x="503" y="1714" on="0"/>
        <pt x="503" y="1724" on="1"/>
        <pt x="503" y="1850" on="0"/>
        <pt x="200" y="1850" on="1"/>
        <pt x="-350" y="1850" on="1"/>
        <pt x="-600" y="1850" on="0"/>
        <pt x="-600" y="2094" on="1"/>
        <pt x="-600" y="2350" on="0"/>
        <pt x="-150" y="2350" on="1"/>
        <pt x="-42" y="2350" on="0"/>
        <pt x="56" y="2327" on="1"/>
        <pt x="79" y="2458" on="1"/>
        <pt x="104" y="2500" on="0"/>
        <pt x="159" y="2500" on="1"/>
        <pt x="170" y="2500" on="0"/>
        <pt x="182" y="2498" on="1"/>
        <pt x="256" y="2488" on="0"/>
        <pt x="276" y="2424" on="1"/>
        <pt x="248" y="2254" on="1"/>
        <pt x="307" y="2222" on="0"/>
        <pt x="363" y="2180" on="1"/>
        <pt x="403" y="2412" on="1"/>
        <pt x="428" y="2454" on="0"/>
        <pt x="483" y="2454" on="1"/>
        <pt x="494" y="2454" on="0"/>
        <pt x="506" y="2452" on="1"/>
        <pt x="580" y="2442" on="0"/>
        <pt x="600" y="2378" on="1"/>
        <pt x="534" y="2001" on="1"/>
        <pt x="535" y="1999" on="0"/>
      </contour>
    </TTGlyph>
    <TTGlyph name="glyph186" xMin="-668" yMin="-1200" xMax="707" yMax="2500">
      <contour>
        <pt x="501" y="1703" on="1"/>
        <pt x="503" y="1714" on="0"/>
        <pt x="503" y="1724" on="1"/>
        <pt x="503" y="1850" on="0"/>
        <pt x="200" y="1850" on="1"/>
        <pt x="4" y="1850" on="1"/>
        <pt x="-159" y="1850" on="0"/>
        <pt x="-159" y="2005" on="1"/>
        <pt x="-159" y="2037" on="0"/>
        <pt x="-152" y="2075" on="1"/>
        <pt x="-132" y="2188" on="1"/>
        <pt x="-128" y="2209" on="0"/>
        <pt x="-128" y="2226" on="1"/>
        <pt x="-128" y="2300" on="0"/>
        <pt x="-200" y="2300" on="1"/>
        <pt x="-300" y="2300" on="0"/>
        <pt x="-300" y="2400" on="1"/>
        <pt x="-300" y="2500" on="0"/>
        <pt x="-200" y="2500" on="1"/>
        <pt x="76" y="2500" on="0"/>
        <pt x="76" y="2257" on="1"/>
        <pt x="76" y="2214" on="0"/>
        <pt x="67" y="2163" on="1"/>
        <pt x="47" y="2050" on="1"/>
        <pt x="200" y="2050" on="1"/>
        <pt x="707" y="2050" on="0"/>
        <pt x="707" y="1749" on="1"/>
        <pt x="707" y="1715" on="0"/>
        <pt x="700" y="1676" on="1"/>
        <pt x="622" y="1223" on="1"/>
        <pt x="275" y="-727" on="1"/>
        <pt x="192" y="-1200" on="0"/>
        <pt x="-233" y="-1200" on="1"/>
        <pt x="-668" y="-1200" on="0"/>
        <pt x="-668" y="-909" on="1"/>
        <pt x="-668" y="-869" on="0"/>
        <pt x="-660" y="-825" on="1"/>
        <pt x="-652" y="-775" on="1"/>
        <pt x="-639" y="-700" on="0"/>
        <pt x="-537" y="-700" on="1"/>
        <pt x="-451" y="-700" on="0"/>
        <pt x="-451" y="-772" on="1"/>
        <pt x="-451" y="-785" on="0"/>
        <pt x="-454" y="-800" on="1"/>
        <pt x="-463" y="-850" on="1"/>
        <pt x="-466" y="-865" on="0"/>
        <pt x="-466" y="-878" on="1"/>
        <pt x="-466" y="-1000" on="0"/>
        <pt x="-233" y="-1000" on="1"/>
        <pt x="25" y="-1000" on="0"/>
        <pt x="77" y="-706" on="1"/>
      </contour>
    </TTGlyph>
    <TTGlyph name="glyph187" xMin="-1455" yMin="-1200" xMax="848" yMax="1500">
      <contour>
        <pt x="-1041" y="-861" on="0"/>
        <pt x="-1088" y="-955" on="1"/>
        <pt x="-1090" y="-960" on="0"/>
        <pt x="-1090" y="-965" on="1"/>
        <pt x="-1090" y="-1016" on="0"/>
        <pt x="-895" y="-1016" on="1"/>
        <pt x="-617" y="-1016" on="0"/>
        <pt x="-593" y="-919" on="1"/>
        <pt x="-572" y="-789" on="1"/>
        <pt x="-555" y="-700" on="0"/>
        <pt x="-455" y="-700" on="1"/>
        <pt x="-370" y="-700" on="0"/>
        <pt x="-370" y="-779" on="1"/>
        <pt x="-370" y="-791" on="0"/>
        <pt x="-372" y="-806" on="1"/>
        <pt x="-402" y="-960" on="1"/>
        <pt x="-310" y="-1016" on="0"/>
        <pt x="-185" y="-1016" on="1"/>
        <pt x="153" y="-1016" on="0"/>
        <pt x="217" y="-645" on="1"/>
        <pt x="437" y="603" on="1"/>
        <pt x="480" y="849" on="0"/>
        <pt x="480" y="955" on="1"/>
        <pt x="480" y="1022" on="0"/>
        <pt x="463" y="1033" on="1"/>
        <pt x="239" y="1174" on="1"/>
        <pt x="177" y="1212" on="0"/>
        <pt x="177" y="1288" on="1"/>
        <pt x="177" y="1322" on="0"/>
        <pt x="191" y="1365" on="1"/>
        <pt x="232" y="1500" on="0"/>
        <pt x="386" y="1500" on="1"/>
        <pt x="648" y="1500" on="1"/>
        <pt x="848" y="1500" on="0"/>
        <pt x="848" y="1400" on="1"/>
        <pt x="848" y="1300" on="0"/>
        <pt x="648" y="1300" on="1"/>
        <pt x="375" y="1300" on="1"/>
        <pt x="551" y="1195" on="1"/>
        <pt x="667" y="1125" on="0"/>
        <pt x="667" y="879" on="1"/>
        <pt x="667" y="752" on="0"/>
        <pt x="636" y="579" on="1"/>
        <pt x="412" y="-687" on="1"/>
        <pt x="322" y="-1200" on="0"/>
        <pt x="-185" y="-1200" on="1"/>
        <pt x="-417" y="-1200" on="0"/>
        <pt x="-540" y="-1125" on="1"/>
        <pt x="-736" y="-1200" on="0"/>
        <pt x="-895" y="-1200" on="1"/>
        <pt x="-1303" y="-1200" on="0"/>
        <pt x="-1303" y="-1000" on="1"/>
        <pt x="-1303" y="-973" on="0"/>
        <pt x="-1296" y="-944" on="1"/>
        <pt x="-1277" y="-916" on="0"/>
        <pt x="-1277" y="-901" on="1"/>
        <pt x="-1277" y="-883" on="0"/>
        <pt x="-1305" y="-883" on="1"/>
        <pt x="-1455" y="-883" on="0"/>
        <pt x="-1455" y="-791" on="1"/>
        <pt x="-1455" y="-700" on="0"/>
        <pt x="-1305" y="-700" on="1"/>
        <pt x="-1041" y="-700" on="0"/>
        <pt x="-1041" y="-788" on="1"/>
      </contour>
    </TTGlyph>
    <TTGlyph name="glyph188" xMin="-1435" yMin="-1200" xMax="848" yMax="1500">
      <contour>
        <pt x="-726" y="-955" on="1"/>
        <pt x="-731" y="-965" on="0"/>
        <pt x="-731" y="-974" on="1"/>
        <pt x="-731" y="-1016" on="0"/>
        <pt x="-605" y="-1016" on="1"/>
        <pt x="-447" y="-1016" on="0"/>
        <pt x="-425" y="-923" on="1"/>
        <pt x="-399" y="-793" on="1"/>
        <pt x="-382" y="-700" on="0"/>
        <pt x="-282" y="-700" on="1"/>
        <pt x="-197" y="-700" on="0"/>
        <pt x="-197" y="-782" on="1"/>
        <pt x="-197" y="-795" on="0"/>
        <pt x="-199" y="-810" on="1"/>
        <pt x="-226" y="-960" on="1"/>
        <pt x="-210" y="-1016" on="0"/>
        <pt x="-95" y="-1016" on="1"/>
        <pt x="153" y="-1016" on="0"/>
        <pt x="217" y="-645" on="1"/>
        <pt x="437" y="603" on="1"/>
        <pt x="480" y="849" on="0"/>
        <pt x="480" y="955" on="1"/>
        <pt x="480" y="1022" on="0"/>
        <pt x="463" y="1033" on="1"/>
        <pt x="239" y="1174" on="1"/>
        <pt x="177" y="1212" on="0"/>
        <pt x="177" y="1288" on="1"/>
        <pt x="177" y="1322" on="0"/>
        <pt x="191" y="1365" on="1"/>
        <pt x="232" y="1500" on="0"/>
        <pt x="386" y="1500" on="1"/>
        <pt x="648" y="1500" on="1"/>
        <pt x="848" y="1500" on="0"/>
        <pt x="848" y="1400" on="1"/>
        <pt x="848" y="1300" on="0"/>
        <pt x="648" y="1300" on="1"/>
        <pt x="375" y="1300" on="1"/>
        <pt x="551" y="1195" on="1"/>
        <pt x="667" y="1125" on="0"/>
        <pt x="667" y="879" on="1"/>
        <pt x="667" y="752" on="0"/>
        <pt x="636" y="579" on="1"/>
        <pt x="412" y="-687" on="1"/>
        <pt x="322" y="-1200" on="0"/>
        <pt x="-95" y="-1200" on="1"/>
        <pt x="-317" y="-1200" on="0"/>
        <pt x="-337" y="-1122" on="1"/>
        <pt x="-476" y="-1200" on="0"/>
        <pt x="-605" y="-1200" on="1"/>
        <pt x="-931" y="-1200" on="0"/>
        <pt x="-931" y="-1018" on="1"/>
        <pt x="-931" y="-996" on="0"/>
        <pt x="-926" y="-972" on="1"/>
        <pt x="-924" y="-965" on="0"/>
        <pt x="-924" y="-959" on="1"/>
        <pt x="-924" y="-883" on="0"/>
        <pt x="-1175" y="-883" on="1"/>
        <pt x="-1225" y="-883" on="0"/>
        <pt x="-1227" y="-929" on="1"/>
        <pt x="-1230" y="-946" on="0"/>
        <pt x="-1230" y="-959" on="1"/>
        <pt x="-1230" y="-1000" on="0"/>
        <pt x="-1197" y="-1000" on="1"/>
        <pt x="-1097" y="-1000" on="0"/>
        <pt x="-1097" y="-1100" on="1"/>
        <pt x="-1097" y="-1200" on="0"/>
        <pt x="-1197" y="-1200" on="1"/>
        <pt x="-1278" y="-1200" on="1"/>
        <pt x="-1435" y="-1200" on="0"/>
        <pt x="-1435" y="-1009" on="1"/>
        <pt x="-1435" y="-955" on="0"/>
        <pt x="-1423" y="-888" on="1"/>
        <pt x="-1393" y="-700" on="0"/>
        <pt x="-1175" y="-700" on="1"/>
        <pt x="-722" y="-700" on="0"/>
        <pt x="-722" y="-914" on="1"/>
        <pt x="-722" y="-934" on="0"/>
      </contour>
    </TTGlyph>
    <TTGlyph name="glyph189" xMin="-1562" yMin="-1200" xMax="848" yMax="1500">
      <contour>
        <pt x="-672" y="-900" on="1"/>
        <pt x="-703" y="-881" on="0"/>
        <pt x="-758" y="-881" on="1"/>
        <pt x="-870" y="-881" on="0"/>
        <pt x="-924" y="-977" on="1"/>
        <pt x="-942" y="-1009" on="0"/>
        <pt x="-972" y="-1009" on="1"/>
        <pt x="-1002" y="-1009" on="0"/>
        <pt x="-1025" y="-977" on="1"/>
        <pt x="-1093" y="-881" on="0"/>
        <pt x="-1175" y="-881" on="1"/>
        <pt x="-1339" y="-881" on="0"/>
        <pt x="-1358" y="-983" on="1"/>
        <pt x="-1359" y="-989" on="0"/>
        <pt x="-1359" y="-994" on="1"/>
        <pt x="-1359" y="-1018" on="0"/>
        <pt x="-1332" y="-1018" on="1"/>
        <pt x="-1304" y="-1018" on="0"/>
        <pt x="-1298" y="-972" on="1"/>
        <pt x="-1298" y="-970" on="1"/>
        <pt x="-1298" y="-901" on="0"/>
        <pt x="-1216" y="-899" on="1"/>
        <pt x="-1213" y="-899" on="1"/>
        <pt x="-1133" y="-899" on="0"/>
        <pt x="-1133" y="-993" on="1"/>
        <pt x="-1166" y="-1200" on="0"/>
        <pt x="-1332" y="-1200" on="1"/>
        <pt x="-1562" y="-1200" on="0"/>
        <pt x="-1562" y="-1019" on="1"/>
        <pt x="-1562" y="-987" on="0"/>
        <pt x="-1555" y="-950" on="1"/>
        <pt x="-1507" y="-700" on="0"/>
        <pt x="-1259" y="-700" on="1"/>
        <pt x="-1095" y="-700" on="0"/>
        <pt x="-972" y="-790" on="1"/>
        <pt x="-831" y="-700" on="0"/>
        <pt x="-706" y="-700" on="1"/>
        <pt x="-481" y="-700" on="0"/>
        <pt x="-440" y="-900" on="1"/>
        <pt x="-398" y="-900" on="1"/>
        <pt x="-334" y="-900" on="0"/>
        <pt x="-275" y="-924" on="1"/>
        <pt x="-214" y="-950" on="0"/>
        <pt x="-155" y="-1002" on="1"/>
        <pt x="-101" y="-1050" on="0"/>
        <pt x="24" y="-1050" on="1"/>
        <pt x="44" y="-1050" on="1"/>
        <pt x="148" y="-1048" on="0"/>
        <pt x="167" y="-930" on="1"/>
        <pt x="437" y="603" on="1"/>
        <pt x="480" y="849" on="0"/>
        <pt x="480" y="955" on="1"/>
        <pt x="480" y="1022" on="0"/>
        <pt x="463" y="1033" on="1"/>
        <pt x="239" y="1174" on="1"/>
        <pt x="177" y="1212" on="0"/>
        <pt x="177" y="1288" on="1"/>
        <pt x="177" y="1322" on="0"/>
        <pt x="191" y="1365" on="1"/>
        <pt x="232" y="1500" on="0"/>
        <pt x="386" y="1500" on="1"/>
        <pt x="648" y="1500" on="1"/>
        <pt x="848" y="1500" on="0"/>
        <pt x="848" y="1400" on="1"/>
        <pt x="848" y="1300" on="0"/>
        <pt x="648" y="1300" on="1"/>
        <pt x="375" y="1300" on="1"/>
        <pt x="551" y="1195" on="1"/>
        <pt x="667" y="1125" on="0"/>
        <pt x="667" y="879" on="1"/>
        <pt x="667" y="752" on="0"/>
        <pt x="636" y="579" on="1"/>
        <pt x="364" y="-960" on="1"/>
        <pt x="338" y="-1107" on="0"/>
        <pt x="142" y="-1200" on="0"/>
        <pt x="44" y="-1200" on="1"/>
        <pt x="-86" y="-1200" on="0"/>
        <pt x="-236" y="-1129" on="0"/>
        <pt x="-349" y="-1045" on="0"/>
        <pt x="-401" y="-1045" on="1"/>
        <pt x="-428" y="-1045" on="1"/>
        <pt x="-445" y="-1121" on="1"/>
        <pt x="-460" y="-1200" on="0"/>
        <pt x="-581" y="-1200" on="1"/>
        <pt x="-681" y="-1200" on="0"/>
        <pt x="-734" y="-1166" on="1"/>
        <pt x="-788" y="-1132" on="0"/>
        <pt x="-795" y="-1066" on="1"/>
        <pt x="-796" y="-1053" on="0"/>
        <pt x="-796" y="-1042" on="1"/>
        <pt x="-796" y="-976" on="0"/>
        <pt x="-751" y="-940" on="1"/>
        <pt x="-709" y="-908" on="0"/>
      </contour>
    </TTGlyph>
    <TTGlyph name="glyph190" xMin="-717" yMin="-1200" xMax="848" yMax="1500">
      <contour>
        <pt x="437" y="603" on="1"/>
        <pt x="480" y="849" on="0"/>
        <pt x="480" y="955" on="1"/>
        <pt x="480" y="1022" on="0"/>
        <pt x="463" y="1033" on="1"/>
        <pt x="239" y="1174" on="1"/>
        <pt x="177" y="1212" on="0"/>
        <pt x="177" y="1288" on="1"/>
        <pt x="177" y="1322" on="0"/>
        <pt x="191" y="1365" on="1"/>
        <pt x="232" y="1500" on="0"/>
        <pt x="386" y="1500" on="1"/>
        <pt x="648" y="1500" on="1"/>
        <pt x="848" y="1500" on="0"/>
        <pt x="848" y="1400" on="1"/>
        <pt x="848" y="1300" on="0"/>
        <pt x="648" y="1300" on="1"/>
        <pt x="375" y="1300" on="1"/>
        <pt x="551" y="1195" on="1"/>
        <pt x="667" y="1125" on="0"/>
        <pt x="667" y="879" on="1"/>
        <pt x="667" y="752" on="0"/>
        <pt x="636" y="579" on="1"/>
        <pt x="389" y="-820" on="1"/>
        <pt x="326" y="-1200" on="0"/>
        <pt x="114" y="-1200" on="1"/>
        <pt x="-24" y="-1200" on="0"/>
        <pt x="-153" y="-1063" on="1"/>
        <pt x="-217" y="-1000" on="0"/>
        <pt x="-288" y="-1000" on="1"/>
        <pt x="-375" y="-1000" on="0"/>
        <pt x="-443" y="-1075" on="1"/>
        <pt x="-550" y="-1200" on="0"/>
        <pt x="-649" y="-1200" on="1"/>
        <pt x="-717" y="-1200" on="0"/>
        <pt x="-717" y="-1138" on="1"/>
        <pt x="-717" y="-1127" on="0"/>
        <pt x="-715" y="-1115" on="1"/>
        <pt x="-654" y="-804" on="1"/>
        <pt x="-634" y="-700" on="0"/>
        <pt x="-536" y="-700" on="1"/>
        <pt x="-451" y="-700" on="0"/>
        <pt x="-451" y="-773" on="1"/>
        <pt x="-451" y="-788" on="0"/>
        <pt x="-454" y="-805" on="1"/>
        <pt x="-468" y="-886" on="1"/>
        <pt x="-401" y="-800" on="0"/>
        <pt x="-288" y="-800" on="1"/>
        <pt x="-150" y="-800" on="0"/>
        <pt x="-39" y="-927" on="1"/>
        <pt x="33" y="-1000" on="0"/>
        <pt x="94" y="-1000" on="1"/>
        <pt x="155" y="-1000" on="0"/>
        <pt x="196" y="-763" on="1"/>
      </contour>
    </TTGlyph>
    <TTGlyph name="glyph191" xMin="-668" yMin="-1200" xMax="848" yMax="1500">
      <contour>
        <pt x="437" y="603" on="1"/>
        <pt x="480" y="849" on="0"/>
        <pt x="480" y="955" on="1"/>
        <pt x="480" y="1022" on="0"/>
        <pt x="463" y="1033" on="1"/>
        <pt x="239" y="1174" on="1"/>
        <pt x="177" y="1212" on="0"/>
        <pt x="177" y="1288" on="1"/>
        <pt x="177" y="1322" on="0"/>
        <pt x="191" y="1365" on="1"/>
        <pt x="232" y="1500" on="0"/>
        <pt x="386" y="1500" on="1"/>
        <pt x="648" y="1500" on="1"/>
        <pt x="848" y="1500" on="0"/>
        <pt x="848" y="1400" on="1"/>
        <pt x="848" y="1300" on="0"/>
        <pt x="648" y="1300" on="1"/>
        <pt x="375" y="1300" on="1"/>
        <pt x="551" y="1195" on="1"/>
        <pt x="667" y="1125" on="0"/>
        <pt x="667" y="879" on="1"/>
        <pt x="667" y="752" on="0"/>
        <pt x="636" y="579" on="1"/>
        <pt x="389" y="-818" on="1"/>
        <pt x="325" y="-1200" on="0"/>
        <pt x="-199" y="-1200" on="1"/>
        <pt x="-668" y="-1200" on="0"/>
        <pt x="-668" y="-917" on="1"/>
        <pt x="-668" y="-881" on="0"/>
        <pt x="-661" y="-841" on="1"/>
        <pt x="-653" y="-801" on="1"/>
        <pt x="-633" y="-700" on="0"/>
        <pt x="-535" y="-700" on="1"/>
        <pt x="-457" y="-700" on="0"/>
        <pt x="-457" y="-790" on="1"/>
        <pt x="-457" y="-819" on="0"/>
        <pt x="-465" y="-856" on="1"/>
        <pt x="-469" y="-886" on="1"/>
        <pt x="-471" y="-895" on="0"/>
        <pt x="-471" y="-902" on="1"/>
        <pt x="-471" y="-1000" on="0"/>
        <pt x="-199" y="-1000" on="1"/>
        <pt x="154" y="-1000" on="0"/>
        <pt x="196" y="-763" on="1"/>
      </contour>
    </TTGlyph>
    <TTGlyph name="glyph192" xMin="177" yMin="-1200" xMax="1483" yMax="1500">
      <contour>
        <pt x="437" y="603" on="1"/>
        <pt x="480" y="849" on="0"/>
        <pt x="480" y="955" on="1"/>
        <pt x="480" y="1022" on="0"/>
        <pt x="463" y="1033" on="1"/>
        <pt x="239" y="1174" on="1"/>
        <pt x="177" y="1212" on="0"/>
        <pt x="177" y="1288" on="1"/>
        <pt x="177" y="1322" on="0"/>
        <pt x="191" y="1365" on="1"/>
        <pt x="232" y="1500" on="0"/>
        <pt x="386" y="1500" on="1"/>
        <pt x="648" y="1500" on="1"/>
        <pt x="848" y="1500" on="0"/>
        <pt x="848" y="1400" on="1"/>
        <pt x="848" y="1300" on="0"/>
        <pt x="648" y="1300" on="1"/>
        <pt x="375" y="1300" on="1"/>
        <pt x="551" y="1195" on="1"/>
        <pt x="667" y="1125" on="0"/>
        <pt x="667" y="879" on="1"/>
        <pt x="667" y="752" on="0"/>
        <pt x="636" y="579" on="1"/>
        <pt x="405" y="-728" on="1"/>
        <pt x="401" y="-753" on="0"/>
        <pt x="401" y="-776" on="1"/>
        <pt x="401" y="-1000" on="0"/>
        <pt x="818" y="-1000" on="1"/>
        <pt x="1243" y="-1000" on="0"/>
        <pt x="1273" y="-885" on="1"/>
        <pt x="1251" y="-889" on="0"/>
        <pt x="1232" y="-889" on="1"/>
        <pt x="1138" y="-889" on="0"/>
        <pt x="1138" y="-792" on="1"/>
        <pt x="1138" y="-700" on="0"/>
        <pt x="1324" y="-700" on="1"/>
        <pt x="1483" y="-700" on="0"/>
        <pt x="1483" y="-819" on="1"/>
        <pt x="1483" y="-850" on="0"/>
        <pt x="1479" y="-885" on="1"/>
        <pt x="1467" y="-1200" on="0"/>
        <pt x="818" y="-1200" on="1"/>
        <pt x="198" y="-1200" on="0"/>
        <pt x="198" y="-806" on="1"/>
        <pt x="198" y="-756" on="0"/>
        <pt x="208" y="-699" on="1"/>
      </contour>
    </TTGlyph>
    <TTGlyph name="glyph193" xMin="-750" yMin="-1200" xMax="848" yMax="1500">
      <contour>
        <pt x="-468" y="-886" on="1"/>
        <pt x="-470" y="-895" on="0"/>
        <pt x="-470" y="-902" on="1"/>
        <pt x="-470" y="-1000" on="0"/>
        <pt x="-198" y="-1000" on="1"/>
        <pt x="155" y="-1000" on="0"/>
        <pt x="196" y="-763" on="1"/>
        <pt x="331" y="0" on="1"/>
        <pt x="250" y="0" on="1"/>
        <pt x="100" y="0" on="0"/>
        <pt x="100" y="100" on="1"/>
        <pt x="100" y="200" on="0"/>
        <pt x="250" y="200" on="1"/>
        <pt x="366" y="200" on="1"/>
        <pt x="437" y="603" on="1"/>
        <pt x="480" y="849" on="0"/>
        <pt x="480" y="955" on="1"/>
        <pt x="480" y="1022" on="0"/>
        <pt x="463" y="1033" on="1"/>
        <pt x="239" y="1174" on="1"/>
        <pt x="177" y="1212" on="0"/>
        <pt x="177" y="1288" on="1"/>
        <pt x="177" y="1322" on="0"/>
        <pt x="191" y="1365" on="1"/>
        <pt x="232" y="1500" on="0"/>
        <pt x="386" y="1500" on="1"/>
        <pt x="648" y="1500" on="1"/>
        <pt x="848" y="1500" on="0"/>
        <pt x="848" y="1400" on="1"/>
        <pt x="848" y="1300" on="0"/>
        <pt x="648" y="1300" on="1"/>
        <pt x="375" y="1300" on="1"/>
        <pt x="551" y="1195" on="1"/>
        <pt x="667" y="1125" on="0"/>
        <pt x="667" y="879" on="1"/>
        <pt x="667" y="752" on="0"/>
        <pt x="636" y="579" on="1"/>
        <pt x="570" y="200" on="1"/>
        <pt x="620" y="200" on="1"/>
        <pt x="770" y="200" on="0"/>
        <pt x="770" y="100" on="1"/>
        <pt x="770" y="0" on="0"/>
        <pt x="620" y="0" on="1"/>
        <pt x="535" y="0" on="1"/>
        <pt x="391" y="-808" on="1"/>
        <pt x="326" y="-1200" on="0"/>
        <pt x="-198" y="-1200" on="1"/>
        <pt x="-667" y="-1200" on="0"/>
        <pt x="-667" y="-917" on="1"/>
        <pt x="-667" y="-885" on="0"/>
        <pt x="-661" y="-849" on="1"/>
        <pt x="-662" y="-850" on="1"/>
        <pt x="-750" y="-850" on="0"/>
        <pt x="-750" y="-750" on="1"/>
        <pt x="-750" y="-650" on="0"/>
        <pt x="-634" y="-650" on="1"/>
        <pt x="-454" y="-650" on="0"/>
        <pt x="-454" y="-786" on="1"/>
        <pt x="-454" y="-809" on="0"/>
        <pt x="-459" y="-837" on="1"/>
      </contour>
    </TTGlyph>
    <TTGlyph name="glyph194" xMin="-800" yMin="1850" xMax="200" yMax="2350">
      <contour>
        <pt x="-800" y="2094" on="1"/>
        <pt x="-800" y="2350" on="0"/>
        <pt x="-408" y="2350" on="1"/>
        <pt x="-95" y="2350" on="0"/>
        <pt x="126" y="2088" on="1"/>
        <pt x="200" y="2000" on="0"/>
        <pt x="200" y="1950" on="1"/>
        <pt x="200" y="1850" on="0"/>
        <pt x="113" y="1850" on="1"/>
        <pt x="-582" y="1850" on="1"/>
        <pt x="-800" y="1850" on="0"/>
      </contour>
      <contour>
        <pt x="-626" y="2050" on="0"/>
        <pt x="-582" y="2050" on="1"/>
        <pt x="-86" y="2050" on="1"/>
        <pt x="-207" y="2150" on="0"/>
        <pt x="-408" y="2150" on="1"/>
        <pt x="-455" y="2153" on="0"/>
        <pt x="-492" y="2153" on="1"/>
        <pt x="-626" y="2153" on="0"/>
        <pt x="-626" y="2108" on="1"/>
      </contour>
    </TTGlyph>
    <TTGlyph name="glyph195" xMin="-800" yMin="1850" xMax="200" yMax="2454">
      <contour>
        <pt x="-591" y="2050" on="1"/>
        <pt x="-116" y="2050" on="1"/>
        <pt x="-232" y="2150" on="0"/>
        <pt x="-425" y="2150" on="1"/>
        <pt x="-470" y="2153" on="0"/>
        <pt x="-505" y="2153" on="1"/>
        <pt x="-633" y="2153" on="0"/>
        <pt x="-633" y="2108" on="1"/>
        <pt x="-633" y="2050" on="0"/>
      </contour>
      <contour>
        <pt x="145" y="2001" on="1"/>
        <pt x="158" y="1972" on="0"/>
        <pt x="158" y="1950" on="1"/>
        <pt x="158" y="1850" on="0"/>
        <pt x="75" y="1850" on="1"/>
        <pt x="-591" y="1850" on="1"/>
        <pt x="-800" y="1850" on="0"/>
        <pt x="-800" y="2094" on="1"/>
        <pt x="-800" y="2350" on="0"/>
        <pt x="-425" y="2350" on="1"/>
        <pt x="-182" y="2350" on="0"/>
        <pt x="3" y="2180" on="1"/>
        <pt x="36" y="2412" on="1"/>
        <pt x="57" y="2454" on="0"/>
        <pt x="103" y="2454" on="1"/>
        <pt x="112" y="2454" on="0"/>
        <pt x="122" y="2452" on="1"/>
        <pt x="183" y="2442" on="0"/>
        <pt x="200" y="2378" on="1"/>
      </contour>
    </TTGlyph>
    <TTGlyph name="glyph196" xMin="-800" yMin="1850" xMax="200" yMax="2500">
      <contour>
        <pt x="-591" y="2050" on="1"/>
        <pt x="-116" y="2050" on="1"/>
        <pt x="-232" y="2150" on="0"/>
        <pt x="-425" y="2150" on="1"/>
        <pt x="-470" y="2153" on="0"/>
        <pt x="-505" y="2153" on="1"/>
        <pt x="-633" y="2153" on="0"/>
        <pt x="-633" y="2108" on="1"/>
        <pt x="-633" y="2050" on="0"/>
      </contour>
      <contour>
        <pt x="-200" y="2309" on="1"/>
        <pt x="-182" y="2500" on="0"/>
        <pt x="-10" y="2500" on="1"/>
        <pt x="200" y="2500" on="0"/>
        <pt x="200" y="2262" on="1"/>
        <pt x="200" y="2112" on="0"/>
        <pt x="110" y="2060" on="1"/>
        <pt x="158" y="1992" on="0"/>
        <pt x="158" y="1950" on="1"/>
        <pt x="158" y="1850" on="0"/>
        <pt x="75" y="1850" on="1"/>
        <pt x="-591" y="1850" on="1"/>
        <pt x="-800" y="1850" on="0"/>
        <pt x="-800" y="2094" on="1"/>
        <pt x="-800" y="2350" on="0"/>
        <pt x="-425" y="2350" on="1"/>
        <pt x="-305" y="2350" on="0"/>
      </contour>
      <contour>
        <pt x="-76" y="2242" on="1"/>
        <pt x="-38" y="2216" on="0"/>
        <pt x="0" y="2181" on="1"/>
        <pt x="55" y="2190" on="0"/>
        <pt x="55" y="2257" on="1"/>
        <pt x="55" y="2264" on="1"/>
        <pt x="53" y="2341" on="0"/>
        <pt x="-8" y="2341" on="1"/>
        <pt x="-13" y="2341" on="1"/>
        <pt x="-77" y="2338" on="0"/>
        <pt x="-77" y="2265" on="1"/>
        <pt x="-77" y="2258" on="1"/>
        <pt x="-77" y="2250" on="0"/>
      </contour>
    </TTGlyph>
    <TTGlyph name="glyph197" xMin="-800" yMin="1850" xMax="200" yMax="2500">
      <contour>
        <pt x="-591" y="2050" on="1"/>
        <pt x="-116" y="2050" on="1"/>
        <pt x="-232" y="2150" on="0"/>
        <pt x="-425" y="2150" on="1"/>
        <pt x="-470" y="2153" on="0"/>
        <pt x="-505" y="2153" on="1"/>
        <pt x="-633" y="2153" on="0"/>
        <pt x="-633" y="2108" on="1"/>
        <pt x="-633" y="2050" on="0"/>
      </contour>
      <contour>
        <pt x="-253" y="2327" on="1"/>
        <pt x="-234" y="2458" on="1"/>
        <pt x="-213" y="2500" on="0"/>
        <pt x="-167" y="2500" on="1"/>
        <pt x="-158" y="2500" on="0"/>
        <pt x="-148" y="2498" on="1"/>
        <pt x="-86" y="2488" on="0"/>
        <pt x="-70" y="2424" on="1"/>
        <pt x="-93" y="2254" on="1"/>
        <pt x="-44" y="2222" on="0"/>
        <pt x="3" y="2180" on="1"/>
        <pt x="36" y="2412" on="1"/>
        <pt x="57" y="2454" on="0"/>
        <pt x="103" y="2454" on="1"/>
        <pt x="112" y="2454" on="0"/>
        <pt x="122" y="2452" on="1"/>
        <pt x="183" y="2442" on="0"/>
        <pt x="200" y="2378" on="1"/>
        <pt x="145" y="2001" on="1"/>
        <pt x="158" y="1972" on="0"/>
        <pt x="158" y="1950" on="1"/>
        <pt x="158" y="1850" on="0"/>
        <pt x="75" y="1850" on="1"/>
        <pt x="-591" y="1850" on="1"/>
        <pt x="-800" y="1850" on="0"/>
        <pt x="-800" y="2094" on="1"/>
        <pt x="-800" y="2350" on="0"/>
        <pt x="-425" y="2350" on="1"/>
        <pt x="-335" y="2350" on="0"/>
      </contour>
    </TTGlyph>
    <TTGlyph name="glyph198" xMin="-600" yMin="1800" xMax="0" yMax="2400">
      <contour>
        <pt x="-400" y="2100" on="1"/>
        <pt x="-400" y="2050" on="0"/>
        <pt x="-350" y="2000" on="0"/>
        <pt x="-300" y="2000" on="1"/>
        <pt x="-250" y="2000" on="0"/>
        <pt x="-200" y="2050" on="0"/>
        <pt x="-200" y="2100" on="1"/>
        <pt x="-200" y="2150" on="0"/>
        <pt x="-250" y="2200" on="0"/>
        <pt x="-300" y="2200" on="1"/>
        <pt x="-350" y="2200" on="0"/>
        <pt x="-400" y="2150" on="0"/>
      </contour>
      <contour>
        <pt x="0" y="2100" on="1"/>
        <pt x="0" y="1949" on="0"/>
        <pt x="-74" y="1875" on="1"/>
        <pt x="-149" y="1800" on="0"/>
        <pt x="-300" y="1800" on="1"/>
        <pt x="-450" y="1800" on="0"/>
        <pt x="-525" y="1875" on="1"/>
        <pt x="-600" y="1949" on="0"/>
        <pt x="-600" y="2100" on="1"/>
        <pt x="-600" y="2251" on="0"/>
        <pt x="-525" y="2325" on="1"/>
        <pt x="-450" y="2400" on="0"/>
        <pt x="-300" y="2400" on="1"/>
        <pt x="-149" y="2400" on="0"/>
        <pt x="-74" y="2325" on="1"/>
        <pt x="0" y="2251" on="0"/>
      </contour>
    </TTGlyph>
    <TTGlyph name="glyph199" xMin="-636" yMin="1800" xMax="51" yMax="2400">
      <contour>
        <pt x="44" y="2263" on="1"/>
        <pt x="-32" y="1849" on="1"/>
        <pt x="-53" y="1800" on="0"/>
        <pt x="-134" y="1800" on="1"/>
        <pt x="-215" y="1800" on="0"/>
        <pt x="-238" y="1856" on="1"/>
        <pt x="-249" y="1882" on="0"/>
        <pt x="-249" y="1906" on="1"/>
        <pt x="-249" y="1936" on="0"/>
        <pt x="-233" y="1963" on="1"/>
        <pt x="-205" y="2012" on="0"/>
        <pt x="-195" y="2074" on="1"/>
        <pt x="-153" y="2300" on="1"/>
        <pt x="-154" y="2308" on="0"/>
        <pt x="-154" y="2316" on="1"/>
        <pt x="-154" y="2400" on="0"/>
        <pt x="-45" y="2400" on="1"/>
        <pt x="51" y="2400" on="0"/>
        <pt x="51" y="2313" on="1"/>
        <pt x="51" y="2291" on="0"/>
      </contour>
      <contour>
        <pt x="-629" y="1937" on="1"/>
        <pt x="-553" y="2351" on="1"/>
        <pt x="-532" y="2400" on="0"/>
        <pt x="-451" y="2400" on="1"/>
        <pt x="-370" y="2400" on="0"/>
        <pt x="-347" y="2344" on="1"/>
        <pt x="-336" y="2318" on="0"/>
        <pt x="-336" y="2294" on="1"/>
        <pt x="-336" y="2264" on="0"/>
        <pt x="-352" y="2237" on="1"/>
        <pt x="-380" y="2188" on="0"/>
        <pt x="-390" y="2126" on="1"/>
        <pt x="-432" y="1900" on="1"/>
        <pt x="-431" y="1892" on="0"/>
        <pt x="-431" y="1884" on="1"/>
        <pt x="-431" y="1800" on="0"/>
        <pt x="-540" y="1800" on="1"/>
        <pt x="-636" y="1800" on="0"/>
        <pt x="-636" y="1887" on="1"/>
        <pt x="-636" y="1909" on="0"/>
      </contour>
    </TTGlyph>
    <TTGlyph name="glyph200" xMin="-700" yMin="1650" xMax="600" yMax="2500">
      <contour>
        <pt x="-77" y="1750" on="1"/>
        <pt x="-77" y="1749" on="1"/>
        <pt x="-77" y="1650" on="0"/>
        <pt x="-176" y="1650" on="1"/>
        <pt x="-365" y="1650" on="0"/>
        <pt x="-534" y="1755" on="1"/>
        <pt x="-658" y="1829" on="0"/>
        <pt x="-690" y="1919" on="1"/>
        <pt x="-700" y="1949" on="0"/>
        <pt x="-700" y="1981" on="1"/>
        <pt x="-700" y="2044" on="0"/>
        <pt x="-659" y="2135" on="1"/>
        <pt x="-592" y="2255" on="0"/>
        <pt x="-470" y="2256" on="1"/>
        <pt x="-348" y="2256" on="0"/>
        <pt x="-172" y="2167" on="1"/>
        <pt x="-156" y="2158" on="0"/>
        <pt x="-140" y="2158" on="1"/>
        <pt x="-97" y="2158" on="0"/>
        <pt x="-55" y="2226" on="1"/>
        <pt x="79" y="2390" on="0"/>
        <pt x="150" y="2444" on="1"/>
        <pt x="221" y="2497" on="0"/>
        <pt x="295" y="2500" on="1"/>
        <pt x="303" y="2500" on="1"/>
        <pt x="375" y="2500" on="0"/>
        <pt x="440" y="2466" on="1"/>
        <pt x="508" y="2430" on="0"/>
        <pt x="573" y="2357" on="1"/>
        <pt x="600" y="2327" on="0"/>
        <pt x="600" y="2299" on="1"/>
        <pt x="600" y="2231" on="0"/>
        <pt x="536" y="2211" on="1"/>
        <pt x="518" y="2206" on="0"/>
        <pt x="502" y="2206" on="1"/>
        <pt x="458" y="2206" on="0"/>
        <pt x="422" y="2245" on="1"/>
        <pt x="363" y="2299" on="0"/>
        <pt x="290" y="2299" on="1"/>
        <pt x="285" y="2299" on="1"/>
        <pt x="209" y="2297" on="0"/>
        <pt x="73" y="2100" on="1"/>
        <pt x="7" y="1992" on="0"/>
        <pt x="-73" y="1963" on="1"/>
        <pt x="-102" y="1952" on="0"/>
        <pt x="-133" y="1952" on="1"/>
        <pt x="-187" y="1952" on="0"/>
        <pt x="-246" y="1984" on="1"/>
        <pt x="-331" y="2029" on="0"/>
        <pt x="-402" y="2043" on="1"/>
        <pt x="-419" y="2048" on="0"/>
        <pt x="-434" y="2048" on="1"/>
        <pt x="-462" y="2048" on="0"/>
        <pt x="-478" y="2028" on="1"/>
        <pt x="-488" y="2016" on="0"/>
        <pt x="-488" y="2001" on="1"/>
        <pt x="-488" y="1981" on="0"/>
        <pt x="-468" y="1957" on="1"/>
        <pt x="-434" y="1916" on="0"/>
        <pt x="-296" y="1850" on="0"/>
        <pt x="-176" y="1850" on="1"/>
        <pt x="-78" y="1850" on="0"/>
      </contour>
    </TTGlyph>
    <TTGlyph name="glyph201" xMin="-900" yMin="1850" xMax="593" yMax="2500">
      <contour>
        <pt x="-188" y="2059" on="1"/>
        <pt x="-309" y="2150" on="0"/>
        <pt x="-503" y="2150" on="1"/>
        <pt x="-551" y="2153" on="0"/>
        <pt x="-588" y="2153" on="1"/>
        <pt x="-723" y="2153" on="0"/>
        <pt x="-723" y="2108" on="1"/>
        <pt x="-723" y="2050" on="0"/>
        <pt x="-679" y="2050" on="1"/>
        <pt x="-185" y="2050" on="1"/>
        <pt x="-186" y="2053" on="0"/>
        <pt x="-188" y="2057" on="1"/>
      </contour>
      <contour>
        <pt x="67" y="1857" on="1"/>
        <pt x="50" y="1850" on="0"/>
        <pt x="26" y="1850" on="1"/>
        <pt x="-679" y="1850" on="1"/>
        <pt x="-900" y="1850" on="0"/>
        <pt x="-900" y="2094" on="1"/>
        <pt x="-900" y="2350" on="0"/>
        <pt x="-503" y="2350" on="1"/>
        <pt x="-310" y="2350" on="0"/>
        <pt x="-151" y="2254" on="1"/>
        <pt x="-114" y="2363" on="0"/>
        <pt x="-55" y="2364" on="1"/>
        <pt x="19" y="2364" on="0"/>
        <pt x="126" y="2296" on="1"/>
        <pt x="136" y="2289" on="0"/>
        <pt x="145" y="2289" on="1"/>
        <pt x="171" y="2289" on="0"/>
        <pt x="196" y="2341" on="1"/>
        <pt x="233" y="2416" on="0"/>
        <pt x="276" y="2457" on="1"/>
        <pt x="320" y="2498" on="0"/>
        <pt x="408" y="2500" on="1"/>
        <pt x="413" y="2500" on="1"/>
        <pt x="456" y="2500" on="0"/>
        <pt x="496" y="2474" on="1"/>
        <pt x="537" y="2447" on="0"/>
        <pt x="576" y="2391" on="1"/>
        <pt x="593" y="2368" on="0"/>
        <pt x="593" y="2347" on="1"/>
        <pt x="593" y="2295" on="0"/>
        <pt x="541" y="2265" on="1"/>
        <pt x="518" y="2252" on="0"/>
        <pt x="501" y="2252" on="1"/>
        <pt x="476" y="2252" on="0"/>
        <pt x="459" y="2276" on="1"/>
        <pt x="423" y="2317" on="0"/>
        <pt x="378" y="2317" on="1"/>
        <pt x="376" y="2317" on="1"/>
        <pt x="329" y="2315" on="0"/>
        <pt x="274" y="2195" on="1"/>
        <pt x="234" y="2113" on="0"/>
        <pt x="186" y="2091" on="1"/>
        <pt x="168" y="2083" on="0"/>
        <pt x="149" y="2083" on="1"/>
        <pt x="116" y="2083" on="0"/>
        <pt x="81" y="2107" on="1"/>
        <pt x="29" y="2141" on="0"/>
        <pt x="-13" y="2152" on="1"/>
        <pt x="-19" y="2154" on="0"/>
        <pt x="-23" y="2155" on="1"/>
        <pt x="9" y="2124" on="0"/>
        <pt x="39" y="2088" on="1"/>
        <pt x="80" y="2041" on="0"/>
        <pt x="98" y="2005" on="1"/>
        <pt x="111" y="2004" on="0"/>
        <pt x="123" y="2004" on="1"/>
        <pt x="182" y="2004" on="0"/>
        <pt x="183" y="1928" on="1"/>
        <pt x="183" y="1927" on="1"/>
        <pt x="183" y="1852" on="0"/>
        <pt x="123" y="1852" on="1"/>
        <pt x="95" y="1852" on="0"/>
      </contour>
    </TTGlyph>
    <TTGlyph name="glyph202" xMin="-1202" yMin="-650" xMax="-50" yMax="-100">
      <contour>
        <pt x="-1120" y="-650" on="1"/>
        <pt x="-1202" y="-650" on="0"/>
        <pt x="-1202" y="-559" on="1"/>
        <pt x="-1202" y="-538" on="0"/>
        <pt x="-1198" y="-512" on="1"/>
        <pt x="-1174" y="-375" on="1"/>
        <pt x="-1126" y="-100" on="0"/>
        <pt x="-721" y="-100" on="1"/>
        <pt x="-50" y="-100" on="0"/>
        <pt x="-50" y="-431" on="1"/>
        <pt x="-50" y="-462" on="0"/>
        <pt x="-56" y="-498" on="1"/>
        <pt x="-69" y="-574" on="1"/>
        <pt x="-82" y="-650" on="0"/>
        <pt x="-183" y="-650" on="1"/>
        <pt x="-272" y="-650" on="0"/>
        <pt x="-272" y="-583" on="1"/>
        <pt x="-272" y="-573" on="0"/>
        <pt x="-270" y="-562" on="1"/>
        <pt x="-254" y="-475" on="1"/>
        <pt x="-252" y="-465" on="0"/>
        <pt x="-252" y="-456" on="1"/>
        <pt x="-252" y="-300" on="0"/>
        <pt x="-721" y="-300" on="1"/>
        <pt x="-958" y="-300" on="0"/>
        <pt x="-977" y="-412" on="1"/>
        <pt x="-998" y="-531" on="1"/>
        <pt x="-1019" y="-650" on="0"/>
      </contour>
    </TTGlyph>
    <TTGlyph name="glyph203" xMin="-1084" yMin="-650" xMax="-50" yMax="-100">
      <contour>
        <pt x="-452" y="-100" on="1"/>
        <pt x="-50" y="-100" on="0"/>
        <pt x="-50" y="-214" on="1"/>
        <pt x="-50" y="-220" on="0"/>
        <pt x="-52" y="-227" on="1"/>
        <pt x="-60" y="-270" on="0"/>
        <pt x="-339" y="-360" on="1"/>
        <pt x="-619" y="-450" on="1"/>
        <pt x="-474" y="-450" on="1"/>
        <pt x="-334" y="-450" on="0"/>
        <pt x="-206" y="-414" on="1"/>
        <pt x="-172" y="-405" on="0"/>
        <pt x="-148" y="-405" on="1"/>
        <pt x="-94" y="-405" on="0"/>
        <pt x="-94" y="-453" on="1"/>
        <pt x="-94" y="-463" on="0"/>
        <pt x="-96" y="-474" on="1"/>
        <pt x="-113" y="-569" on="0"/>
        <pt x="-228" y="-609" on="1"/>
        <pt x="-344" y="-650" on="0"/>
        <pt x="-474" y="-650" on="1"/>
        <pt x="-791" y="-650" on="1"/>
        <pt x="-1084" y="-650" on="0"/>
        <pt x="-1084" y="-522" on="1"/>
        <pt x="-1084" y="-511" on="0"/>
        <pt x="-1082" y="-500" on="1"/>
        <pt x="-1074" y="-450" on="0"/>
        <pt x="-865" y="-375" on="1"/>
        <pt x="-657" y="-300" on="1"/>
        <pt x="-874" y="-300" on="1"/>
        <pt x="-1031" y="-300" on="0"/>
        <pt x="-1031" y="-218" on="1"/>
        <pt x="-1031" y="-209" on="0"/>
        <pt x="-1029" y="-200" on="1"/>
        <pt x="-1012" y="-100" on="0"/>
        <pt x="-874" y="-100" on="1"/>
      </contour>
    </TTGlyph>
    <TTGlyph name="glyph204" xMin="-1202" yMin="-650" xMax="-50" yMax="-100">
      <contour>
        <pt x="-987" y="-473" on="1"/>
        <pt x="-863" y="-424" on="1"/>
        <pt x="-729" y="-369" on="0"/>
        <pt x="-659" y="-369" on="1"/>
        <pt x="-633" y="-369" on="0"/>
        <pt x="-616" y="-377" on="1"/>
        <pt x="-519" y="-418" on="0"/>
        <pt x="-519" y="-484" on="1"/>
        <pt x="-519" y="-506" on="0"/>
        <pt x="-529" y="-530" on="1"/>
        <pt x="-556" y="-592" on="0"/>
        <pt x="-617" y="-592" on="1"/>
        <pt x="-652" y="-592" on="0"/>
        <pt x="-699" y="-572" on="1"/>
        <pt x="-717" y="-564" on="0"/>
        <pt x="-743" y="-564" on="1"/>
        <pt x="-814" y="-564" on="0"/>
        <pt x="-947" y="-618" on="1"/>
        <pt x="-1017" y="-646" on="1"/>
        <pt x="-1041" y="-650" on="0"/>
        <pt x="-1120" y="-650" on="1"/>
        <pt x="-1202" y="-650" on="0"/>
        <pt x="-1202" y="-559" on="1"/>
        <pt x="-1202" y="-538" on="0"/>
        <pt x="-1198" y="-512" on="1"/>
        <pt x="-1174" y="-375" on="1"/>
        <pt x="-1126" y="-100" on="0"/>
        <pt x="-721" y="-100" on="1"/>
        <pt x="-50" y="-100" on="0"/>
        <pt x="-50" y="-431" on="1"/>
        <pt x="-50" y="-462" on="0"/>
        <pt x="-56" y="-498" on="1"/>
        <pt x="-69" y="-574" on="1"/>
        <pt x="-82" y="-650" on="0"/>
        <pt x="-183" y="-650" on="1"/>
        <pt x="-272" y="-650" on="0"/>
        <pt x="-272" y="-583" on="1"/>
        <pt x="-272" y="-573" on="0"/>
        <pt x="-270" y="-562" on="1"/>
        <pt x="-254" y="-475" on="1"/>
        <pt x="-252" y="-465" on="0"/>
        <pt x="-252" y="-456" on="1"/>
        <pt x="-252" y="-300" on="0"/>
        <pt x="-721" y="-300" on="1"/>
        <pt x="-958" y="-300" on="0"/>
        <pt x="-977" y="-412" on="1"/>
      </contour>
    </TTGlyph>
    <TTGlyph name="glyph205" xMin="-1109" yMin="-650" xMax="-50" yMax="-100">
      <contour>
        <pt x="-709" y="-194" on="1"/>
        <pt x="-709" y="-289" on="0"/>
        <pt x="-808" y="-289" on="1"/>
        <pt x="-858" y="-289" on="0"/>
        <pt x="-908" y="-325" on="0"/>
        <pt x="-908" y="-362" on="1"/>
        <pt x="-908" y="-400" on="0"/>
        <pt x="-806" y="-450" on="0"/>
        <pt x="-729" y="-450" on="1"/>
        <pt x="-557" y="-450" on="0"/>
        <pt x="-366" y="-351" on="0"/>
        <pt x="-252" y="-164" on="1"/>
        <pt x="-233" y="-100" on="0"/>
        <pt x="-141" y="-100" on="1"/>
        <pt x="-50" y="-100" on="0"/>
        <pt x="-50" y="-158" on="1"/>
        <pt x="-50" y="-173" on="0"/>
        <pt x="-56" y="-192" on="1"/>
        <pt x="-122" y="-421" on="0"/>
        <pt x="-291" y="-535" on="1"/>
        <pt x="-460" y="-650" on="0"/>
        <pt x="-729" y="-650" on="1"/>
        <pt x="-886" y="-650" on="0"/>
        <pt x="-1109" y="-556" on="0"/>
        <pt x="-1109" y="-412" on="1"/>
        <pt x="-1109" y="-269" on="0"/>
        <pt x="-934" y="-100" on="0"/>
        <pt x="-809" y="-100" on="1"/>
        <pt x="-709" y="-100" on="0"/>
      </contour>
    </TTGlyph>
    <TTGlyph name="glyph206" xMin="-1161" yMin="-650" xMax="-50" yMax="-100">
      <contour>
        <pt x="-196" y="-388" on="1"/>
        <pt x="-136" y="-411" on="0"/>
        <pt x="-100" y="-439" on="1"/>
        <pt x="-50" y="-475" on="0"/>
        <pt x="-50" y="-539" on="1"/>
        <pt x="-50" y="-547" on="0"/>
        <pt x="-51" y="-555" on="1"/>
        <pt x="-58" y="-631" on="0"/>
        <pt x="-125" y="-636" on="1"/>
        <pt x="-136" y="-636" on="1"/>
        <pt x="-202" y="-636" on="0"/>
        <pt x="-208" y="-566" on="1"/>
        <pt x="-210" y="-538" on="0"/>
        <pt x="-321" y="-503" on="1"/>
        <pt x="-362" y="-531" on="0"/>
        <pt x="-413" y="-561" on="1"/>
        <pt x="-489" y="-605" on="0"/>
        <pt x="-580" y="-628" on="1"/>
        <pt x="-670" y="-650" on="0"/>
        <pt x="-774" y="-650" on="1"/>
        <pt x="-783" y="-650" on="1"/>
        <pt x="-901" y="-650" on="0"/>
        <pt x="-975" y="-631" on="1"/>
        <pt x="-1101" y="-611" on="0"/>
        <pt x="-1130" y="-573" on="1"/>
        <pt x="-1161" y="-530" on="0"/>
        <pt x="-1161" y="-491" on="1"/>
        <pt x="-1161" y="-472" on="0"/>
        <pt x="-1154" y="-454" on="1"/>
        <pt x="-1131" y="-399" on="0"/>
        <pt x="-1037" y="-353" on="1"/>
        <pt x="-923" y="-297" on="0"/>
        <pt x="-859" y="-246" on="1"/>
        <pt x="-796" y="-196" on="0"/>
        <pt x="-782" y="-152" on="1"/>
        <pt x="-767" y="-100" on="0"/>
        <pt x="-663" y="-100" on="1"/>
        <pt x="-653" y="-100" on="0"/>
        <pt x="-642" y="-102" on="1"/>
        <pt x="-582" y="-111" on="0"/>
        <pt x="-582" y="-154" on="1"/>
        <pt x="-582" y="-163" on="0"/>
        <pt x="-585" y="-174" on="1"/>
        <pt x="-604" y="-240" on="0"/>
        <pt x="-746" y="-425" on="0"/>
        <pt x="-904" y="-470" on="1"/>
        <pt x="-827" y="-481" on="0"/>
        <pt x="-762" y="-481" on="1"/>
        <pt x="-706" y="-481" on="0"/>
        <pt x="-659" y="-472" on="1"/>
        <pt x="-560" y="-455" on="0"/>
        <pt x="-499" y="-420" on="1"/>
        <pt x="-481" y="-410" on="0"/>
        <pt x="-465" y="-399" on="1"/>
        <pt x="-489" y="-387" on="0"/>
        <pt x="-499" y="-376" on="1"/>
        <pt x="-544" y="-350" on="0"/>
        <pt x="-544" y="-305" on="1"/>
        <pt x="-544" y="-276" on="0"/>
        <pt x="-524" y="-238" on="1"/>
        <pt x="-475" y="-147" on="0"/>
        <pt x="-351" y="-147" on="1"/>
        <pt x="-343" y="-147" on="1"/>
        <pt x="-275" y="-147" on="0"/>
        <pt x="-200" y="-187" on="1"/>
        <pt x="-137" y="-220" on="0"/>
        <pt x="-134" y="-271" on="1"/>
        <pt x="-134" y="-278" on="1"/>
        <pt x="-134" y="-325" on="0"/>
        <pt x="-170" y="-360" on="1"/>
        <pt x="-182" y="-374" on="0"/>
      </contour>
    </TTGlyph>
    <TTGlyph name="glyph207" xMin="-1142" yMin="-650" xMax="-40" yMax="-100">
      <contour>
        <pt x="-917" y="-149" on="1"/>
        <pt x="-908" y="-100" on="0"/>
        <pt x="-806" y="-100" on="1"/>
        <pt x="-714" y="-100" on="0"/>
        <pt x="-714" y="-152" on="1"/>
        <pt x="-714" y="-158" on="0"/>
        <pt x="-715" y="-164" on="1"/>
        <pt x="-744" y="-320" on="1"/>
        <pt x="-680" y="-320" on="0"/>
        <pt x="-621" y="-347" on="1"/>
        <pt x="-560" y="-375" on="0"/>
        <pt x="-501" y="-432" on="1"/>
        <pt x="-446" y="-487" on="0"/>
        <pt x="-357" y="-487" on="1"/>
        <pt x="-351" y="-487" on="0"/>
        <pt x="-345" y="-486" on="1"/>
        <pt x="-248" y="-483" on="0"/>
        <pt x="-238" y="-427" on="1"/>
        <pt x="-226" y="-354" on="1"/>
        <pt x="-224" y="-342" on="0"/>
        <pt x="-224" y="-332" on="1"/>
        <pt x="-224" y="-308" on="0"/>
        <pt x="-237" y="-291" on="1"/>
        <pt x="-255" y="-268" on="0"/>
        <pt x="-297" y="-268" on="1"/>
        <pt x="-352" y="-268" on="0"/>
        <pt x="-356" y="-303" on="1"/>
        <pt x="-357" y="-307" on="0"/>
        <pt x="-357" y="-310" on="1"/>
        <pt x="-357" y="-329" on="0"/>
        <pt x="-327" y="-329" on="1"/>
        <pt x="-325" y="-329" on="1"/>
        <pt x="-275" y="-329" on="0"/>
        <pt x="-269" y="-383" on="1"/>
        <pt x="-269" y="-392" on="1"/>
        <pt x="-269" y="-438" on="0"/>
        <pt x="-315" y="-439" on="1"/>
        <pt x="-426" y="-439" on="0"/>
        <pt x="-472" y="-391" on="1"/>
        <pt x="-508" y="-355" on="0"/>
        <pt x="-508" y="-309" on="1"/>
        <pt x="-508" y="-297" on="0"/>
        <pt x="-505" y="-284" on="1"/>
        <pt x="-493" y="-171" on="0"/>
        <pt x="-445" y="-140" on="1"/>
        <pt x="-396" y="-108" on="0"/>
        <pt x="-308" y="-108" on="1"/>
        <pt x="-201" y="-108" on="0"/>
        <pt x="-114" y="-166" on="1"/>
        <pt x="-40" y="-215" on="0"/>
        <pt x="-40" y="-339" on="1"/>
        <pt x="-40" y="-361" on="0"/>
        <pt x="-42" y="-386" on="1"/>
        <pt x="-58" y="-548" on="0"/>
        <pt x="-254" y="-650" on="0"/>
        <pt x="-362" y="-650" on="1"/>
        <pt x="-432" y="-650" on="0"/>
        <pt x="-582" y="-572" on="0"/>
        <pt x="-695" y="-480" on="0"/>
        <pt x="-747" y="-480" on="1"/>
        <pt x="-774" y="-480" on="1"/>
        <pt x="-791" y="-564" on="1"/>
        <pt x="-806" y="-650" on="0"/>
        <pt x="-927" y="-650" on="1"/>
        <pt x="-1027" y="-650" on="0"/>
        <pt x="-1080" y="-613" on="1"/>
        <pt x="-1134" y="-576" on="0"/>
        <pt x="-1141" y="-503" on="1"/>
        <pt x="-1142" y="-489" on="0"/>
        <pt x="-1142" y="-477" on="1"/>
        <pt x="-1142" y="-404" on="0"/>
        <pt x="-1097" y="-365" on="1"/>
        <pt x="-1045" y="-320" on="0"/>
        <pt x="-999" y="-320" on="1"/>
        <pt x="-949" y="-320" on="1"/>
      </contour>
    </TTGlyph>
    <TTGlyph name="glyph208" xMin="-1069" yMin="-650" xMax="100" yMax="-100">
      <contour>
        <pt x="-53" y="-250" on="1"/>
        <pt x="-28" y="-250" on="1"/>
        <pt x="100" y="-250" on="0"/>
        <pt x="100" y="-350" on="1"/>
        <pt x="100" y="-450" on="0"/>
        <pt x="-38" y="-450" on="1"/>
        <pt x="-103" y="-450" on="1"/>
        <pt x="-130" y="-511" on="0"/>
        <pt x="-171" y="-562" on="1"/>
        <pt x="-239" y="-649" on="0"/>
        <pt x="-340" y="-649" on="1"/>
        <pt x="-342" y="-649" on="1"/>
        <pt x="-488" y="-649" on="0"/>
        <pt x="-580" y="-540" on="1"/>
        <pt x="-675" y="-650" on="0"/>
        <pt x="-828" y="-650" on="1"/>
        <pt x="-975" y="-650" on="0"/>
        <pt x="-1032" y="-567" on="1"/>
        <pt x="-1061" y="-524" on="0"/>
        <pt x="-1067" y="-461" on="1"/>
        <pt x="-1069" y="-442" on="0"/>
        <pt x="-1069" y="-422" on="1"/>
        <pt x="-1069" y="-375" on="0"/>
        <pt x="-1058" y="-321" on="1"/>
        <pt x="-1038" y="-210" on="0"/>
        <pt x="-967" y="-155" on="1"/>
        <pt x="-898" y="-100" on="0"/>
        <pt x="-780" y="-100" on="1"/>
        <pt x="-681" y="-100" on="0"/>
        <pt x="-675" y="-180" on="1"/>
        <pt x="-675" y="-188" on="1"/>
        <pt x="-675" y="-260" on="0"/>
        <pt x="-768" y="-260" on="1"/>
        <pt x="-826" y="-260" on="0"/>
        <pt x="-851" y="-295" on="1"/>
        <pt x="-873" y="-326" on="0"/>
        <pt x="-873" y="-377" on="1"/>
        <pt x="-873" y="-390" on="1"/>
        <pt x="-870" y="-450" on="0"/>
        <pt x="-833" y="-450" on="1"/>
        <pt x="-790" y="-450" on="0"/>
        <pt x="-647" y="-365" on="0"/>
        <pt x="-591" y="-365" on="1"/>
        <pt x="-535" y="-365" on="0"/>
        <pt x="-428" y="-450" on="0"/>
        <pt x="-378" y="-450" on="1"/>
        <pt x="-328" y="-450" on="0"/>
        <pt x="-304" y="-425" on="1"/>
        <pt x="-374" y="-414" on="0"/>
        <pt x="-434" y="-361" on="1"/>
        <pt x="-499" y="-304" on="0"/>
        <pt x="-499" y="-243" on="1"/>
        <pt x="-499" y="-232" on="0"/>
        <pt x="-497" y="-220" on="1"/>
        <pt x="-486" y="-160" on="0"/>
        <pt x="-433" y="-130" on="1"/>
        <pt x="-380" y="-100" on="0"/>
        <pt x="-284" y="-100" on="1"/>
        <pt x="-158" y="-100" on="0"/>
        <pt x="-105" y="-150" on="1"/>
        <pt x="-53" y="-198" on="0"/>
        <pt x="-53" y="-245" on="1"/>
      </contour>
    </TTGlyph>
    <TTGlyph name="glyph209" xMin="-1673" yMin="-650" xMax="0" yMax="-100">
      <contour>
        <pt x="-249" y="-246" on="1"/>
        <pt x="-272" y="-231" on="0"/>
        <pt x="-272" y="-209" on="1"/>
        <pt x="-272" y="-176" on="0"/>
        <pt x="-215" y="-126" on="1"/>
        <pt x="-184" y="-100" on="0"/>
        <pt x="-149" y="-100" on="1"/>
        <pt x="-114" y="-100" on="0"/>
        <pt x="-68" y="-137" on="1"/>
        <pt x="0" y="-190" on="0"/>
        <pt x="0" y="-285" on="1"/>
        <pt x="0" y="-317" on="0"/>
        <pt x="-9" y="-356" on="1"/>
        <pt x="-41" y="-503" on="0"/>
        <pt x="-244" y="-650" on="0"/>
        <pt x="-455" y="-650" on="1"/>
        <pt x="-596" y="-650" on="0"/>
        <pt x="-819" y="-554" on="0"/>
        <pt x="-1095" y="-358" on="0"/>
        <pt x="-1250" y="-358" on="1"/>
        <pt x="-1392" y="-358" on="0"/>
        <pt x="-1506" y="-409" on="1"/>
        <pt x="-1541" y="-426" on="0"/>
        <pt x="-1569" y="-426" on="1"/>
        <pt x="-1627" y="-426" on="0"/>
        <pt x="-1659" y="-356" on="1"/>
        <pt x="-1673" y="-341" on="0"/>
        <pt x="-1673" y="-324" on="1"/>
        <pt x="-1673" y="-282" on="0"/>
        <pt x="-1586" y="-232" on="1"/>
        <pt x="-1453" y="-161" on="0"/>
        <pt x="-1247" y="-161" on="1"/>
        <pt x="-1060" y="-161" on="0"/>
        <pt x="-732" y="-378" on="0"/>
        <pt x="-560" y="-453" on="0"/>
        <pt x="-451" y="-453" on="1"/>
        <pt x="-353" y="-453" on="0"/>
        <pt x="-218" y="-400" on="0"/>
        <pt x="-207" y="-341" on="1"/>
        <pt x="-206" y="-332" on="0"/>
        <pt x="-206" y="-322" on="1"/>
        <pt x="-206" y="-277" on="0"/>
      </contour>
    </TTGlyph>
    <TTGlyph name="glyph210" xMin="-1180" yMin="-650" xMax="-50" yMax="-100">
      <contour>
        <pt x="-921" y="-650" on="1"/>
        <pt x="-1180" y="-650" on="0"/>
        <pt x="-1180" y="-445" on="1"/>
        <pt x="-1180" y="-412" on="0"/>
        <pt x="-1174" y="-375" on="1"/>
        <pt x="-1126" y="-100" on="0"/>
        <pt x="-721" y="-100" on="1"/>
        <pt x="-50" y="-100" on="0"/>
        <pt x="-50" y="-431" on="1"/>
        <pt x="-50" y="-462" on="0"/>
        <pt x="-56" y="-498" on="1"/>
        <pt x="-69" y="-574" on="1"/>
        <pt x="-82" y="-650" on="0"/>
        <pt x="-183" y="-650" on="1"/>
        <pt x="-272" y="-650" on="0"/>
        <pt x="-272" y="-583" on="1"/>
        <pt x="-272" y="-573" on="0"/>
        <pt x="-270" y="-562" on="1"/>
        <pt x="-254" y="-475" on="1"/>
        <pt x="-252" y="-465" on="0"/>
        <pt x="-252" y="-456" on="1"/>
        <pt x="-252" y="-300" on="0"/>
        <pt x="-721" y="-300" on="1"/>
        <pt x="-958" y="-300" on="0"/>
        <pt x="-977" y="-412" on="1"/>
        <pt x="-978" y="-416" on="0"/>
        <pt x="-978" y="-419" on="1"/>
        <pt x="-978" y="-450" on="0"/>
        <pt x="-921" y="-450" on="1"/>
        <pt x="-863" y="-450" on="0"/>
        <pt x="-857" y="-400" on="1"/>
        <pt x="-857" y="-398" on="1"/>
        <pt x="-857" y="-322" on="0"/>
        <pt x="-779" y="-319" on="1"/>
        <pt x="-775" y="-319" on="1"/>
        <pt x="-700" y="-319" on="0"/>
        <pt x="-692" y="-423" on="1"/>
        <pt x="-725" y="-650" on="0"/>
      </contour>
    </TTGlyph>
    <TTGlyph name="glyph211" xMin="-1580" yMin="-643" xMax="150" yMax="-43">
      <contour>
        <pt x="-1096" y="-397" on="1"/>
        <pt x="-1084" y="-465" on="0"/>
        <pt x="-1059" y="-483" on="0"/>
        <pt x="-996" y="-484" on="1"/>
        <pt x="-939" y="-484" on="0"/>
        <pt x="-871" y="-438" on="0"/>
        <pt x="-803" y="-350" on="1"/>
        <pt x="-1099" y="-381" on="1"/>
      </contour>
      <contour>
        <pt x="-536" y="-429" on="0"/>
        <pt x="-443" y="-484" on="0"/>
        <pt x="-399" y="-484" on="1"/>
        <pt x="-335" y="-483" on="0"/>
        <pt x="-304" y="-341" on="1"/>
        <pt x="-295" y="-312" on="1"/>
        <pt x="-603" y="-340" on="1"/>
      </contour>
      <contour>
        <pt x="-1300" y="-391" on="1"/>
        <pt x="-1316" y="-392" on="0"/>
        <pt x="-1331" y="-392" on="1"/>
        <pt x="-1402" y="-392" on="0"/>
        <pt x="-1474" y="-370" on="1"/>
        <pt x="-1577" y="-337" on="0"/>
        <pt x="-1580" y="-258" on="1"/>
        <pt x="-1580" y="-248" on="1"/>
        <pt x="-1580" y="-175" on="0"/>
        <pt x="-1525" y="-138" on="1"/>
        <pt x="-1467" y="-98" on="0"/>
        <pt x="-1347" y="-98" on="1"/>
        <pt x="-1257" y="-98" on="0"/>
        <pt x="-1195" y="-145" on="1"/>
        <pt x="-1137" y="-188" on="0"/>
        <pt x="-1122" y="-222" on="1"/>
        <pt x="-1090" y="-220" on="0"/>
        <pt x="-1056" y="-218" on="1"/>
        <pt x="-262" y="-150" on="1"/>
        <pt x="-247" y="-98" on="1"/>
        <pt x="-229" y="-43" on="0"/>
        <pt x="-120" y="-43" on="1"/>
        <pt x="-112" y="-43" on="0"/>
        <pt x="-104" y="-44" on="1"/>
        <pt x="-44" y="-51" on="0"/>
        <pt x="-44" y="-96" on="1"/>
        <pt x="-44" y="-105" on="0"/>
        <pt x="-47" y="-117" on="1"/>
        <pt x="-53" y="-138" on="1"/>
        <pt x="44" y="-131" on="1"/>
        <pt x="52" y="-130" on="0"/>
        <pt x="60" y="-130" on="1"/>
        <pt x="144" y="-130" on="0"/>
        <pt x="149" y="-203" on="1"/>
        <pt x="150" y="-207" on="0"/>
        <pt x="150" y="-210" on="1"/>
        <pt x="150" y="-282" on="0"/>
        <pt x="63" y="-289" on="1"/>
        <pt x="-90" y="-300" on="1"/>
        <pt x="-114" y="-370" on="1"/>
        <pt x="-150" y="-506" on="0"/>
        <pt x="-221" y="-574" on="1"/>
        <pt x="-292" y="-643" on="0"/>
        <pt x="-398" y="-643" on="1"/>
        <pt x="-489" y="-643" on="0"/>
        <pt x="-565" y="-601" on="1"/>
        <pt x="-641" y="-560" on="0"/>
        <pt x="-702" y="-478" on="1"/>
        <pt x="-767" y="-560" on="0"/>
        <pt x="-898" y="-643" on="0"/>
        <pt x="-993" y="-643" on="1"/>
        <pt x="-1125" y="-643" on="0"/>
        <pt x="-1200" y="-588" on="1"/>
        <pt x="-1276" y="-534" on="0"/>
        <pt x="-1295" y="-424" on="1"/>
      </contour>
    </TTGlyph>
    <TTGlyph name="glyph212" xMin="-1084" yMin="-700" xMax="-50" yMax="-100">
      <contour>
        <pt x="-502" y="-187" on="1"/>
        <pt x="-351" y="-100" on="0"/>
        <pt x="-221" y="-100" on="1"/>
        <pt x="-50" y="-100" on="0"/>
        <pt x="-50" y="-174" on="1"/>
        <pt x="-50" y="-180" on="0"/>
        <pt x="-52" y="-187" on="1"/>
        <pt x="-60" y="-270" on="0"/>
        <pt x="-339" y="-360" on="1"/>
        <pt x="-619" y="-450" on="1"/>
        <pt x="-574" y="-450" on="1"/>
        <pt x="-394" y="-450" on="0"/>
        <pt x="-256" y="-374" on="1"/>
        <pt x="-208" y="-365" on="0"/>
        <pt x="-175" y="-365" on="1"/>
        <pt x="-95" y="-365" on="0"/>
        <pt x="-95" y="-418" on="1"/>
        <pt x="-95" y="-426" on="0"/>
        <pt x="-96" y="-434" on="1"/>
        <pt x="-113" y="-529" on="1"/>
        <pt x="-131" y="-614" on="1"/>
        <pt x="-150" y="-700" on="0"/>
        <pt x="-242" y="-700" on="1"/>
        <pt x="-322" y="-700" on="0"/>
        <pt x="-322" y="-647" on="1"/>
        <pt x="-322" y="-639" on="0"/>
        <pt x="-320" y="-629" on="1"/>
        <pt x="-306" y="-559" on="1"/>
        <pt x="-404" y="-650" on="0"/>
        <pt x="-574" y="-650" on="1"/>
        <pt x="-791" y="-650" on="1"/>
        <pt x="-1084" y="-650" on="0"/>
        <pt x="-1084" y="-522" on="1"/>
        <pt x="-1084" y="-511" on="0"/>
        <pt x="-1082" y="-500" on="1"/>
        <pt x="-1074" y="-450" on="0"/>
        <pt x="-865" y="-375" on="1"/>
        <pt x="-720" y="-320" on="1"/>
        <pt x="-765" y="-300" on="0"/>
        <pt x="-874" y="-300" on="1"/>
        <pt x="-1031" y="-300" on="0"/>
        <pt x="-1031" y="-218" on="1"/>
        <pt x="-1031" y="-209" on="0"/>
        <pt x="-1029" y="-200" on="1"/>
        <pt x="-1012" y="-100" on="0"/>
        <pt x="-814" y="-100" on="1"/>
        <pt x="-647" y="-100" on="0"/>
      </contour>
    </TTGlyph>
    <TTGlyph name="glyph213" xMin="-1180" yMin="-650" xMax="-50" yMax="-100">
      <contour>
        <pt x="-921" y="-650" on="1"/>
        <pt x="-1180" y="-650" on="0"/>
        <pt x="-1180" y="-445" on="1"/>
        <pt x="-1180" y="-412" on="0"/>
        <pt x="-1174" y="-375" on="1"/>
        <pt x="-1126" y="-100" on="0"/>
        <pt x="-721" y="-100" on="1"/>
        <pt x="-50" y="-100" on="0"/>
        <pt x="-50" y="-431" on="1"/>
        <pt x="-50" y="-462" on="0"/>
        <pt x="-56" y="-498" on="1"/>
        <pt x="-69" y="-574" on="1"/>
        <pt x="-82" y="-650" on="0"/>
        <pt x="-183" y="-650" on="1"/>
        <pt x="-272" y="-650" on="0"/>
        <pt x="-272" y="-583" on="1"/>
        <pt x="-272" y="-573" on="0"/>
        <pt x="-270" y="-562" on="1"/>
        <pt x="-254" y="-475" on="1"/>
        <pt x="-252" y="-465" on="0"/>
        <pt x="-252" y="-456" on="1"/>
        <pt x="-252" y="-300" on="0"/>
        <pt x="-721" y="-300" on="1"/>
        <pt x="-958" y="-300" on="0"/>
        <pt x="-977" y="-412" on="1"/>
        <pt x="-978" y="-416" on="0"/>
        <pt x="-978" y="-419" on="1"/>
        <pt x="-978" y="-450" on="0"/>
        <pt x="-921" y="-450" on="1"/>
        <pt x="-863" y="-450" on="0"/>
        <pt x="-857" y="-400" on="1"/>
        <pt x="-857" y="-398" on="1"/>
        <pt x="-857" y="-322" on="0"/>
        <pt x="-779" y="-319" on="1"/>
        <pt x="-775" y="-319" on="1"/>
        <pt x="-700" y="-319" on="0"/>
        <pt x="-692" y="-423" on="1"/>
        <pt x="-725" y="-650" on="0"/>
      </contour>
    </TTGlyph>
    <TTGlyph name="glyph214" xMin="-1210" yMin="-650" xMax="-50" yMax="-100">
      <contour>
        <pt x="-660" y="-481" on="1"/>
        <pt x="-660" y="-557" on="0"/>
        <pt x="-709" y="-595" on="1"/>
        <pt x="-759" y="-634" on="0"/>
        <pt x="-859" y="-634" on="1"/>
        <pt x="-1034" y="-634" on="0"/>
        <pt x="-1122" y="-566" on="1"/>
        <pt x="-1210" y="-500" on="0"/>
        <pt x="-1210" y="-387" on="1"/>
        <pt x="-1210" y="-234" on="0"/>
        <pt x="-1110" y="-167" on="1"/>
        <pt x="-1010" y="-100" on="0"/>
        <pt x="-810" y="-100" on="1"/>
        <pt x="-648" y="-100" on="0"/>
        <pt x="-468" y="-207" on="1"/>
        <pt x="-289" y="-314" on="0"/>
        <pt x="-92" y="-528" on="1"/>
        <pt x="-50" y="-571" on="0"/>
        <pt x="-50" y="-601" on="1"/>
        <pt x="-50" y="-625" on="0"/>
        <pt x="-78" y="-640" on="1"/>
        <pt x="-95" y="-650" on="0"/>
        <pt x="-114" y="-650" on="1"/>
        <pt x="-212" y="-650" on="0"/>
        <pt x="-270" y="-589" on="1"/>
        <pt x="-442" y="-451" on="0"/>
        <pt x="-687" y="-264" on="0"/>
        <pt x="-810" y="-264" on="1"/>
        <pt x="-935" y="-264" on="0"/>
        <pt x="-1009" y="-340" on="0"/>
        <pt x="-1009" y="-386" on="1"/>
        <pt x="-1009" y="-442" on="0"/>
        <pt x="-959" y="-468" on="0"/>
        <pt x="-858" y="-468" on="1"/>
        <pt x="-809" y="-468" on="0"/>
        <pt x="-809" y="-436" on="1"/>
        <pt x="-809" y="-405" on="0"/>
        <pt x="-735" y="-405" on="1"/>
        <pt x="-733" y="-405" on="1"/>
        <pt x="-660" y="-405" on="0"/>
      </contour>
    </TTGlyph>
    <TTGlyph name="glyph215" xMin="-956" yMin="-650" xMax="-50" yMax="-100">
      <contour>
        <pt x="-560" y="-102" on="1"/>
        <pt x="-500" y="-112" on="0"/>
        <pt x="-500" y="-157" on="1"/>
        <pt x="-500" y="-166" on="0"/>
        <pt x="-502" y="-176" on="1"/>
        <pt x="-515" y="-246" on="0"/>
        <pt x="-572" y="-296" on="1"/>
        <pt x="-629" y="-344" on="0"/>
        <pt x="-747" y="-392" on="0"/>
        <pt x="-754" y="-423" on="1"/>
        <pt x="-755" y="-427" on="0"/>
        <pt x="-755" y="-432" on="1"/>
        <pt x="-755" y="-456" on="0"/>
        <pt x="-719" y="-466" on="1"/>
        <pt x="-677" y="-478" on="0"/>
        <pt x="-609" y="-478" on="1"/>
        <pt x="-551" y="-478" on="0"/>
        <pt x="-393" y="-256" on="1"/>
        <pt x="-339" y="-165" on="0"/>
        <pt x="-268" y="-143" on="1"/>
        <pt x="-244" y="-136" on="0"/>
        <pt x="-220" y="-136" on="1"/>
        <pt x="-173" y="-136" on="0"/>
        <pt x="-127" y="-164" on="1"/>
        <pt x="-57" y="-208" on="0"/>
        <pt x="-51" y="-270" on="1"/>
        <pt x="-50" y="-277" on="0"/>
        <pt x="-50" y="-285" on="1"/>
        <pt x="-50" y="-303" on="0"/>
        <pt x="-55" y="-326" on="1"/>
        <pt x="-110" y="-603" on="1"/>
        <pt x="-120" y="-650" on="0"/>
        <pt x="-223" y="-650" on="1"/>
        <pt x="-233" y="-650" on="0"/>
        <pt x="-245" y="-648" on="1"/>
        <pt x="-307" y="-640" on="0"/>
        <pt x="-307" y="-592" on="1"/>
        <pt x="-307" y="-583" on="0"/>
        <pt x="-305" y="-573" on="1"/>
        <pt x="-266" y="-374" on="1"/>
        <pt x="-352" y="-503" on="0"/>
        <pt x="-437" y="-568" on="1"/>
        <pt x="-520" y="-633" on="0"/>
        <pt x="-602" y="-633" on="1"/>
        <pt x="-715" y="-633" on="0"/>
        <pt x="-844" y="-565" on="1"/>
        <pt x="-909" y="-530" on="0"/>
        <pt x="-937" y="-490" on="1"/>
        <pt x="-953" y="-465" on="0"/>
        <pt x="-956" y="-438" on="1"/>
        <pt x="-956" y="-429" on="1"/>
        <pt x="-956" y="-416" on="0"/>
        <pt x="-954" y="-404" on="1"/>
        <pt x="-945" y="-358" on="0"/>
        <pt x="-906" y="-326" on="1"/>
        <pt x="-868" y="-294" on="0"/>
        <pt x="-783" y="-256" on="0"/>
        <pt x="-745" y="-227" on="1"/>
        <pt x="-707" y="-197" on="0"/>
        <pt x="-697" y="-155" on="1"/>
        <pt x="-686" y="-100" on="0"/>
        <pt x="-582" y="-100" on="1"/>
        <pt x="-572" y="-100" on="0"/>
      </contour>
    </TTGlyph>
    <TTGlyph name="glyph216" xMin="-1243" yMin="-650" xMax="-50" yMax="-100">
      <contour>
        <pt x="-210" y="-280" on="1"/>
        <pt x="-479" y="-351" on="1"/>
        <pt x="-380" y="-423" on="0"/>
        <pt x="-336" y="-423" on="1"/>
        <pt x="-332" y="-423" on="0"/>
        <pt x="-328" y="-422" on="1"/>
        <pt x="-285" y="-414" on="0"/>
        <pt x="-265" y="-386" on="1"/>
        <pt x="-252" y="-366" on="0"/>
        <pt x="-252" y="-346" on="1"/>
        <pt x="-252" y="-338" on="0"/>
        <pt x="-254" y="-330" on="1"/>
        <pt x="-254" y="-297" on="0"/>
      </contour>
      <contour>
        <pt x="-997" y="-480" on="1"/>
        <pt x="-967" y="-509" on="0"/>
        <pt x="-916" y="-509" on="1"/>
        <pt x="-906" y="-509" on="1"/>
        <pt x="-849" y="-506" on="0"/>
        <pt x="-755" y="-448" on="0"/>
        <pt x="-749" y="-415" on="1"/>
      </contour>
      <contour>
        <pt x="-131" y="-262" on="1"/>
        <pt x="-123" y="-262" on="1"/>
        <pt x="-57" y="-262" on="0"/>
        <pt x="-52" y="-324" on="1"/>
        <pt x="-50" y="-342" on="0"/>
        <pt x="-50" y="-360" on="1"/>
        <pt x="-50" y="-415" on="0"/>
        <pt x="-91" y="-482" on="1"/>
        <pt x="-139" y="-561" on="0"/>
        <pt x="-242" y="-579" on="1"/>
        <pt x="-273" y="-584" on="0"/>
        <pt x="-303" y="-584" on="1"/>
        <pt x="-360" y="-584" on="0"/>
        <pt x="-417" y="-566" on="1"/>
        <pt x="-505" y="-539" on="0"/>
        <pt x="-590" y="-469" on="1"/>
        <pt x="-627" y="-561" on="0"/>
        <pt x="-697" y="-590" on="1"/>
        <pt x="-757" y="-625" on="0"/>
        <pt x="-850" y="-641" on="1"/>
        <pt x="-895" y="-650" on="0"/>
        <pt x="-936" y="-650" on="1"/>
        <pt x="-1010" y="-650" on="0"/>
        <pt x="-1068" y="-623" on="1"/>
        <pt x="-1160" y="-583" on="0"/>
        <pt x="-1213" y="-523" on="1"/>
        <pt x="-1243" y="-489" on="0"/>
        <pt x="-1243" y="-459" on="1"/>
        <pt x="-1243" y="-439" on="0"/>
        <pt x="-1230" y="-421" on="1"/>
        <pt x="-1197" y="-375" on="0"/>
        <pt x="-1079" y="-338" on="1"/>
        <pt x="-183" y="-108" on="1"/>
        <pt x="-152" y="-100" on="0"/>
        <pt x="-129" y="-100" on="1"/>
        <pt x="-79" y="-100" on="0"/>
        <pt x="-63" y="-135" on="1"/>
        <pt x="-56" y="-145" on="0"/>
        <pt x="-56" y="-156" on="1"/>
        <pt x="-56" y="-241" on="0"/>
        <pt x="-130" y="-260" on="1"/>
        <pt x="-142" y="-263" on="1"/>
        <pt x="-136" y="-262" on="0"/>
      </contour>
    </TTGlyph>
    <TTGlyph name="glyph217" xMin="-1295" yMin="-650" xMax="100" yMax="-50">
      <contour>
        <pt x="-346" y="-287" on="1"/>
        <pt x="-942" y="-287" on="1"/>
        <pt x="-1008" y="-287" on="0"/>
        <pt x="-1085" y="-306" on="0"/>
        <pt x="-1095" y="-345" on="1"/>
        <pt x="-1097" y="-352" on="0"/>
        <pt x="-1097" y="-359" on="1"/>
        <pt x="-1097" y="-387" on="0"/>
        <pt x="-1063" y="-398" on="1"/>
        <pt x="-1021" y="-413" on="0"/>
        <pt x="-927" y="-413" on="1"/>
        <pt x="-789" y="-413" on="0"/>
        <pt x="-649" y="-374" on="1"/>
        <pt x="-516" y="-346" on="0"/>
        <pt x="-356" y="-338" on="1"/>
      </contour>
      <contour>
        <pt x="-149" y="-335" on="1"/>
        <pt x="-70" y="-337" on="0"/>
        <pt x="-16" y="-383" on="1"/>
        <pt x="25" y="-417" on="0"/>
        <pt x="25" y="-475" on="1"/>
        <pt x="25" y="-499" on="0"/>
        <pt x="17" y="-529" on="1"/>
        <pt x="-1" y="-589" on="0"/>
        <pt x="-52" y="-619" on="1"/>
        <pt x="-104" y="-650" on="0"/>
        <pt x="-189" y="-650" on="1"/>
        <pt x="-314" y="-650" on="0"/>
        <pt x="-357" y="-577" on="1"/>
        <pt x="-380" y="-539" on="0"/>
        <pt x="-380" y="-515" on="1"/>
        <pt x="-380" y="-511" on="0"/>
        <pt x="-379" y="-507" on="1"/>
        <pt x="-501" y="-516" on="0"/>
        <pt x="-606" y="-537" on="1"/>
        <pt x="-770" y="-582" on="0"/>
        <pt x="-929" y="-582" on="1"/>
        <pt x="-1164" y="-582" on="0"/>
        <pt x="-1295" y="-436" on="0"/>
        <pt x="-1295" y="-368" on="1"/>
        <pt x="-1295" y="-340" on="0"/>
        <pt x="-1287" y="-289" on="1"/>
        <pt x="-1267" y="-204" on="0"/>
        <pt x="-1193" y="-161" on="1"/>
        <pt x="-1120" y="-119" on="0"/>
        <pt x="-943" y="-119" on="1"/>
        <pt x="-301" y="-119" on="1"/>
        <pt x="-276" y="-50" on="0"/>
        <pt x="-218" y="-50" on="1"/>
        <pt x="-210" y="-50" on="0"/>
        <pt x="-201" y="-51" on="1"/>
        <pt x="-96" y="-62" on="0"/>
        <pt x="-96" y="-106" on="1"/>
        <pt x="-96" y="-112" on="0"/>
        <pt x="-98" y="-119" on="1"/>
        <pt x="16" y="-119" on="1"/>
        <pt x="100" y="-119" on="0"/>
        <pt x="100" y="-204" on="1"/>
        <pt x="100" y="-215" on="0"/>
        <pt x="98" y="-228" on="1"/>
        <pt x="98" y="-287" on="0"/>
        <pt x="2" y="-287" on="1"/>
        <pt x="-141" y="-287" on="1"/>
      </contour>
    </TTGlyph>
    <TTGlyph name="glyph218" xMin="-1178" yMin="-650" xMax="-50" yMax="-100">
      <contour>
        <pt x="-934" y="-381" on="1"/>
        <pt x="-903" y="-356" on="0"/>
        <pt x="-807" y="-356" on="1"/>
        <pt x="-726" y="-356" on="0"/>
        <pt x="-667" y="-384" on="1"/>
        <pt x="-606" y="-411" on="0"/>
        <pt x="-493" y="-490" on="0"/>
        <pt x="-353" y="-490" on="1"/>
        <pt x="-278" y="-483" on="0"/>
        <pt x="-268" y="-427" on="1"/>
        <pt x="-256" y="-354" on="1"/>
        <pt x="-254" y="-342" on="0"/>
        <pt x="-254" y="-332" on="1"/>
        <pt x="-254" y="-308" on="0"/>
        <pt x="-267" y="-291" on="1"/>
        <pt x="-285" y="-268" on="0"/>
        <pt x="-327" y="-268" on="1"/>
        <pt x="-382" y="-268" on="0"/>
        <pt x="-386" y="-303" on="1"/>
        <pt x="-387" y="-307" on="0"/>
        <pt x="-387" y="-310" on="1"/>
        <pt x="-387" y="-329" on="0"/>
        <pt x="-357" y="-329" on="1"/>
        <pt x="-355" y="-329" on="1"/>
        <pt x="-305" y="-329" on="0"/>
        <pt x="-299" y="-383" on="1"/>
        <pt x="-299" y="-392" on="1"/>
        <pt x="-299" y="-438" on="0"/>
        <pt x="-345" y="-439" on="1"/>
        <pt x="-456" y="-439" on="0"/>
        <pt x="-502" y="-391" on="1"/>
        <pt x="-538" y="-355" on="0"/>
        <pt x="-538" y="-309" on="1"/>
        <pt x="-538" y="-297" on="0"/>
        <pt x="-535" y="-284" on="1"/>
        <pt x="-523" y="-221" on="0"/>
        <pt x="-446" y="-108" on="0"/>
        <pt x="-338" y="-108" on="1"/>
        <pt x="-191" y="-108" on="0"/>
        <pt x="-57" y="-254" on="0"/>
        <pt x="-51" y="-315" on="1"/>
        <pt x="-50" y="-323" on="0"/>
        <pt x="-50" y="-333" on="1"/>
        <pt x="-50" y="-352" on="0"/>
        <pt x="-54" y="-373" on="1"/>
        <pt x="-68" y="-444" on="1"/>
        <pt x="-88" y="-548" on="0"/>
        <pt x="-160" y="-598" on="1"/>
        <pt x="-234" y="-650" on="0"/>
        <pt x="-352" y="-650" on="1"/>
        <pt x="-492" y="-650" on="0"/>
        <pt x="-566" y="-611" on="1"/>
        <pt x="-642" y="-572" on="0"/>
        <pt x="-731" y="-516" on="0"/>
        <pt x="-797" y="-516" on="1"/>
        <pt x="-871" y="-516" on="0"/>
        <pt x="-994" y="-650" on="0"/>
        <pt x="-1067" y="-650" on="1"/>
        <pt x="-1174" y="-650" on="0"/>
        <pt x="-1178" y="-607" on="1"/>
        <pt x="-1178" y="-598" on="1"/>
        <pt x="-1178" y="-590" on="0"/>
        <pt x="-1177" y="-582" on="1"/>
        <pt x="-1164" y="-515" on="1"/>
        <pt x="-1097" y="-170" on="1"/>
        <pt x="-1083" y="-100" on="0"/>
        <pt x="-986" y="-100" on="1"/>
        <pt x="-893" y="-100" on="0"/>
        <pt x="-893" y="-164" on="1"/>
        <pt x="-893" y="-173" on="0"/>
        <pt x="-895" y="-183" on="1"/>
      </contour>
    </TTGlyph>
    <TTGlyph name="glyph219" xMin="-1181" yMin="-650" xMax="-50" yMax="-100">
      <contour>
        <pt x="-951" y="-650" on="1"/>
        <pt x="-1181" y="-650" on="0"/>
        <pt x="-1181" y="-451" on="1"/>
        <pt x="-1181" y="-416" on="0"/>
        <pt x="-1174" y="-375" on="1"/>
        <pt x="-1126" y="-100" on="0"/>
        <pt x="-878" y="-100" on="1"/>
        <pt x="-714" y="-100" on="0"/>
        <pt x="-591" y="-200" on="1"/>
        <pt x="-450" y="-100" on="0"/>
        <pt x="-325" y="-100" on="1"/>
        <pt x="-50" y="-100" on="0"/>
        <pt x="-50" y="-431" on="1"/>
        <pt x="-50" y="-462" on="0"/>
        <pt x="-56" y="-498" on="1"/>
        <pt x="-69" y="-574" on="1"/>
        <pt x="-82" y="-650" on="0"/>
        <pt x="-183" y="-650" on="1"/>
        <pt x="-272" y="-650" on="0"/>
        <pt x="-272" y="-583" on="1"/>
        <pt x="-272" y="-573" on="0"/>
        <pt x="-270" y="-562" on="1"/>
        <pt x="-254" y="-475" on="1"/>
        <pt x="-249" y="-446" on="0"/>
        <pt x="-249" y="-422" on="1"/>
        <pt x="-249" y="-300" on="0"/>
        <pt x="-377" y="-300" on="1"/>
        <pt x="-489" y="-300" on="0"/>
        <pt x="-543" y="-405" on="1"/>
        <pt x="-561" y="-440" on="0"/>
        <pt x="-591" y="-440" on="1"/>
        <pt x="-621" y="-440" on="0"/>
        <pt x="-644" y="-405" on="1"/>
        <pt x="-712" y="-300" on="0"/>
        <pt x="-794" y="-300" on="1"/>
        <pt x="-958" y="-300" on="0"/>
        <pt x="-977" y="-412" on="1"/>
        <pt x="-978" y="-419" on="0"/>
        <pt x="-978" y="-424" on="1"/>
        <pt x="-978" y="-450" on="0"/>
        <pt x="-951" y="-450" on="1"/>
        <pt x="-923" y="-450" on="0"/>
        <pt x="-917" y="-400" on="1"/>
        <pt x="-917" y="-398" on="1"/>
        <pt x="-917" y="-322" on="0"/>
        <pt x="-835" y="-319" on="1"/>
        <pt x="-831" y="-319" on="1"/>
        <pt x="-752" y="-319" on="0"/>
        <pt x="-752" y="-423" on="1"/>
        <pt x="-785" y="-650" on="0"/>
      </contour>
    </TTGlyph>
    <TTGlyph name="glyph220" xMin="-1430" yMin="-649" xMax="-50" yMax="-99">
      <contour>
        <pt x="-1150" y="-447" on="1"/>
        <pt x="-1190" y="-441" on="0"/>
        <pt x="-1213" y="-440" on="1"/>
        <pt x="-1221" y="-440" on="1"/>
        <pt x="-1237" y="-440" on="0"/>
        <pt x="-1242" y="-446" on="1"/>
        <pt x="-1247" y="-451" on="0"/>
        <pt x="-1247" y="-456" on="1"/>
        <pt x="-1247" y="-463" on="0"/>
        <pt x="-1238" y="-472" on="1"/>
        <pt x="-1222" y="-486" on="0"/>
        <pt x="-1180" y="-498" on="1"/>
        <pt x="-1175" y="-499" on="0"/>
        <pt x="-1170" y="-499" on="1"/>
        <pt x="-1153" y="-499" on="0"/>
        <pt x="-1147" y="-479" on="1"/>
        <pt x="-1139" y="-450" on="1"/>
      </contour>
      <contour>
        <pt x="-1426" y="-491" on="0"/>
        <pt x="-1430" y="-458" on="1"/>
        <pt x="-1430" y="-445" on="1"/>
        <pt x="-1430" y="-412" on="0"/>
        <pt x="-1412" y="-376" on="1"/>
        <pt x="-1377" y="-310" on="0"/>
        <pt x="-1335" y="-298" on="1"/>
        <pt x="-1317" y="-295" on="0"/>
        <pt x="-1296" y="-295" on="1"/>
        <pt x="-1223" y="-295" on="0"/>
        <pt x="-1120" y="-328" on="1"/>
        <pt x="-1119" y="-318" on="1"/>
        <pt x="-1110" y="-266" on="0"/>
        <pt x="-1046" y="-198" on="1"/>
        <pt x="-980" y="-131" on="0"/>
        <pt x="-864" y="-110" on="1"/>
        <pt x="-799" y="-99" on="0"/>
        <pt x="-737" y="-99" on="1"/>
        <pt x="-688" y="-99" on="0"/>
        <pt x="-640" y="-106" on="1"/>
        <pt x="-532" y="-121" on="0"/>
        <pt x="-426" y="-151" on="1"/>
        <pt x="-320" y="-181" on="0"/>
        <pt x="-211" y="-242" on="1"/>
        <pt x="-101" y="-303" on="0"/>
        <pt x="-71" y="-372" on="1"/>
        <pt x="-56" y="-405" on="0"/>
        <pt x="-52" y="-443" on="1"/>
        <pt x="-50" y="-455" on="0"/>
        <pt x="-50" y="-469" on="1"/>
        <pt x="-50" y="-499" on="0"/>
        <pt x="-57" y="-533" on="1"/>
        <pt x="-67" y="-582" on="1"/>
        <pt x="-75" y="-615" on="0"/>
        <pt x="-97" y="-632" on="1"/>
        <pt x="-120" y="-649" on="0"/>
        <pt x="-159" y="-649" on="1"/>
        <pt x="-247" y="-649" on="0"/>
        <pt x="-263" y="-629" on="1"/>
        <pt x="-272" y="-616" on="0"/>
        <pt x="-272" y="-595" on="1"/>
        <pt x="-272" y="-585" on="0"/>
        <pt x="-270" y="-572" on="1"/>
        <pt x="-257" y="-510" on="1"/>
        <pt x="-252" y="-504" on="0"/>
        <pt x="-252" y="-494" on="1"/>
        <pt x="-252" y="-478" on="0"/>
        <pt x="-263" y="-453" on="1"/>
        <pt x="-281" y="-412" on="0"/>
        <pt x="-390" y="-325" on="0"/>
        <pt x="-475" y="-301" on="1"/>
        <pt x="-561" y="-277" on="0"/>
        <pt x="-631" y="-264" on="1"/>
        <pt x="-666" y="-258" on="0"/>
        <pt x="-700" y="-258" on="1"/>
        <pt x="-734" y="-258" on="0"/>
        <pt x="-767" y="-264" on="1"/>
        <pt x="-833" y="-277" on="0"/>
        <pt x="-914" y="-313" on="0"/>
        <pt x="-915" y="-324" on="1"/>
        <pt x="-951" y="-520" on="1"/>
        <pt x="-969" y="-604" on="0"/>
        <pt x="-1074" y="-649" on="0"/>
        <pt x="-1147" y="-649" on="1"/>
        <pt x="-1194" y="-649" on="0"/>
        <pt x="-1252" y="-630" on="1"/>
        <pt x="-1355" y="-585" on="0"/>
        <pt x="-1404" y="-521" on="1"/>
      </contour>
    </TTGlyph>
    <TTGlyph name="glyph221" xMin="-1364" yMin="-647" xMax="190" yMax="123">
      <contour>
        <pt x="-124" y="-461" on="1"/>
        <pt x="-127" y="-471" on="0"/>
        <pt x="-127" y="-478" on="1"/>
        <pt x="-127" y="-508" on="0"/>
        <pt x="-74" y="-508" on="1"/>
        <pt x="-26" y="-508" on="0"/>
        <pt x="-13" y="-469" on="1"/>
        <pt x="-12" y="-464" on="0"/>
        <pt x="-12" y="-459" on="1"/>
        <pt x="-12" y="-419" on="0"/>
        <pt x="-99" y="-419" on="1"/>
        <pt x="-113" y="-419" on="1"/>
      </contour>
      <contour>
        <pt x="-319" y="-428" on="1"/>
        <pt x="-436" y="-441" on="0"/>
        <pt x="-564" y="-471" on="1"/>
        <pt x="-851" y="-538" on="0"/>
        <pt x="-1040" y="-538" on="1"/>
        <pt x="-1225" y="-538" on="0"/>
        <pt x="-1307" y="-482" on="1"/>
        <pt x="-1355" y="-442" on="0"/>
        <pt x="-1363" y="-318" on="1"/>
        <pt x="-1364" y="-308" on="0"/>
        <pt x="-1364" y="-297" on="1"/>
        <pt x="-1364" y="-275" on="0"/>
        <pt x="-1360" y="-251" on="1"/>
        <pt x="-1348" y="-184" on="0"/>
        <pt x="-1118" y="-91" on="1"/>
        <pt x="-1158" y="-267" on="1"/>
        <pt x="-1160" y="-278" on="0"/>
        <pt x="-1160" y="-289" on="1"/>
        <pt x="-1160" y="-333" on="0"/>
        <pt x="-1124" y="-349" on="1"/>
        <pt x="-1080" y="-369" on="0"/>
        <pt x="-989" y="-369" on="1"/>
        <pt x="-881" y="-369" on="0"/>
        <pt x="-629" y="-310" on="1"/>
        <pt x="-404" y="-269" on="0"/>
        <pt x="-298" y="-256" on="1"/>
        <pt x="-247" y="53" on="1"/>
        <pt x="-234" y="123" on="0"/>
        <pt x="-176" y="123" on="1"/>
        <pt x="-168" y="123" on="0"/>
        <pt x="-158" y="121" on="1"/>
        <pt x="-47" y="110" on="0"/>
        <pt x="-47" y="42" on="1"/>
        <pt x="-47" y="35" on="0"/>
        <pt x="-48" y="27" on="1"/>
        <pt x="-94" y="-250" on="1"/>
        <pt x="6" y="-253" on="0"/>
        <pt x="128" y="-314" on="1"/>
        <pt x="182" y="-358" on="0"/>
        <pt x="189" y="-425" on="1"/>
        <pt x="190" y="-434" on="0"/>
        <pt x="190" y="-444" on="1"/>
        <pt x="190" y="-463" on="0"/>
        <pt x="186" y="-485" on="1"/>
        <pt x="170" y="-567" on="0"/>
        <pt x="110" y="-607" on="1"/>
        <pt x="51" y="-647" on="0"/>
        <pt x="-34" y="-647" on="1"/>
        <pt x="-189" y="-647" on="0"/>
        <pt x="-289" y="-574" on="1"/>
        <pt x="-328" y="-518" on="0"/>
        <pt x="-328" y="-479" on="1"/>
        <pt x="-328" y="-467" on="0"/>
        <pt x="-324" y="-456" on="1"/>
      </contour>
    </TTGlyph>
    <TTGlyph name="glyph222" xMin="-1399" yMin="-650" xMax="0" yMax="-100">
      <contour>
        <pt x="-1386" y="-352" on="1"/>
        <pt x="-1353" y="-226" on="0"/>
        <pt x="-1258" y="-162" on="1"/>
        <pt x="-1162" y="-100" on="0"/>
        <pt x="-1005" y="-100" on="1"/>
        <pt x="-874" y="-100" on="0"/>
        <pt x="-767" y="-163" on="1"/>
        <pt x="-660" y="-227" on="0"/>
        <pt x="-597" y="-315" on="1"/>
        <pt x="-468" y="-474" on="0"/>
        <pt x="-422" y="-474" on="1"/>
        <pt x="-384" y="-474" on="0"/>
        <pt x="-310" y="-354" on="1"/>
        <pt x="-197" y="-150" on="1"/>
        <pt x="-165" y="-102" on="0"/>
        <pt x="-75" y="-102" on="1"/>
        <pt x="-58" y="-102" on="0"/>
        <pt x="-39" y="-111" on="1"/>
        <pt x="0" y="-130" on="0"/>
        <pt x="0" y="-162" on="1"/>
        <pt x="0" y="-184" on="0"/>
        <pt x="-17" y="-211" on="1"/>
        <pt x="-176" y="-465" on="1"/>
        <pt x="-235" y="-557" on="0"/>
        <pt x="-299" y="-603" on="1"/>
        <pt x="-362" y="-650" on="0"/>
        <pt x="-432" y="-650" on="1"/>
        <pt x="-545" y="-650" on="0"/>
        <pt x="-613" y="-593" on="1"/>
        <pt x="-682" y="-536" on="0"/>
        <pt x="-756" y="-422" on="1"/>
        <pt x="-817" y="-344" on="0"/>
        <pt x="-917" y="-297" on="0"/>
        <pt x="-1005" y="-297" on="1"/>
        <pt x="-1102" y="-297" on="0"/>
        <pt x="-1178" y="-350" on="0"/>
        <pt x="-1186" y="-374" on="1"/>
        <pt x="-1188" y="-380" on="0"/>
        <pt x="-1188" y="-387" on="1"/>
        <pt x="-1188" y="-408" on="0"/>
        <pt x="-1169" y="-437" on="1"/>
        <pt x="-1145" y="-474" on="0"/>
        <pt x="-1076" y="-474" on="1"/>
        <pt x="-1041" y="-416" on="0"/>
        <pt x="-994" y="-416" on="1"/>
        <pt x="-992" y="-416" on="1"/>
        <pt x="-945" y="-417" on="0"/>
        <pt x="-922" y="-490" on="1"/>
        <pt x="-916" y="-509" on="0"/>
        <pt x="-916" y="-525" on="1"/>
        <pt x="-916" y="-575" on="0"/>
        <pt x="-968" y="-607" on="1"/>
        <pt x="-1037" y="-650" on="0"/>
        <pt x="-1136" y="-650" on="1"/>
        <pt x="-1297" y="-650" on="0"/>
        <pt x="-1360" y="-575" on="1"/>
        <pt x="-1399" y="-527" on="0"/>
        <pt x="-1399" y="-450" on="1"/>
        <pt x="-1399" y="-406" on="0"/>
      </contour>
    </TTGlyph>
    <TTGlyph name="glyph223" xMin="-1179" yMin="-650" xMax="-50" yMax="-50">
      <contour>
        <pt x="-406" y="-301" on="0"/>
        <pt x="-551" y="-344" on="1"/>
        <pt x="-777" y="-412" on="0"/>
        <pt x="-938" y="-421" on="1"/>
        <pt x="-981" y="-424" on="1"/>
        <pt x="-982" y="-427" on="0"/>
        <pt x="-982" y="-429" on="1"/>
        <pt x="-982" y="-451" on="0"/>
        <pt x="-902" y="-468" on="1"/>
        <pt x="-813" y="-487" on="0"/>
        <pt x="-753" y="-487" on="1"/>
        <pt x="-613" y="-487" on="0"/>
        <pt x="-528" y="-450" on="1"/>
        <pt x="-420" y="-406" on="0"/>
        <pt x="-336" y="-275" on="1"/>
        <pt x="-306" y="-235" on="1"/>
      </contour>
      <contour>
        <pt x="-85" y="-152" on="1"/>
        <pt x="-77" y="-172" on="0"/>
        <pt x="-77" y="-191" on="1"/>
        <pt x="-77" y="-224" on="0"/>
        <pt x="-101" y="-257" on="1"/>
        <pt x="-150" y="-322" on="1"/>
        <pt x="-310" y="-540" on="0"/>
        <pt x="-423" y="-588" on="1"/>
        <pt x="-545" y="-650" on="0"/>
        <pt x="-756" y="-650" on="1"/>
        <pt x="-958" y="-650" on="0"/>
        <pt x="-1082" y="-592" on="1"/>
        <pt x="-1179" y="-546" on="0"/>
        <pt x="-1179" y="-439" on="1"/>
        <pt x="-1179" y="-412" on="0"/>
        <pt x="-1173" y="-379" on="1"/>
        <pt x="-1153" y="-261" on="0"/>
        <pt x="-1003" y="-261" on="1"/>
        <pt x="-1000" y="-261" on="1"/>
        <pt x="-810" y="-252" on="0"/>
        <pt x="-607" y="-191" on="1"/>
        <pt x="-404" y="-130" on="0"/>
        <pt x="-248" y="-68" on="1"/>
        <pt x="-213" y="-50" on="0"/>
        <pt x="-125" y="-50" on="1"/>
        <pt x="-94" y="-50" on="0"/>
        <pt x="-71" y="-74" on="1"/>
        <pt x="-50" y="-93" on="0"/>
        <pt x="-50" y="-110" on="1"/>
        <pt x="-50" y="-132" on="0"/>
        <pt x="-82" y="-150" on="1"/>
        <pt x="-83" y="-151" on="0"/>
      </contour>
    </TTGlyph>
    <TTGlyph name="glyph224" xMin="-1494" yMin="-650" xMax="0" yMax="-100">
      <contour>
        <pt x="-1355" y="-101" on="1"/>
        <pt x="-1241" y="-110" on="0"/>
        <pt x="-1241" y="-164" on="1"/>
        <pt x="-1241" y="-169" on="0"/>
        <pt x="-1242" y="-174" on="1"/>
        <pt x="-1282" y="-388" on="1"/>
        <pt x="-1283" y="-395" on="0"/>
        <pt x="-1283" y="-402" on="1"/>
        <pt x="-1283" y="-443" on="0"/>
        <pt x="-1233" y="-465" on="1"/>
        <pt x="-1175" y="-490" on="0"/>
        <pt x="-1097" y="-490" on="1"/>
        <pt x="-970" y="-490" on="0"/>
        <pt x="-852" y="-435" on="0"/>
        <pt x="-841" y="-381" on="1"/>
        <pt x="-823" y="-292" on="1"/>
        <pt x="-806" y="-197" on="0"/>
        <pt x="-580" y="-102" on="0"/>
        <pt x="-393" y="-102" on="1"/>
        <pt x="-176" y="-102" on="0"/>
        <pt x="-79" y="-162" on="1"/>
        <pt x="-8" y="-205" on="0"/>
        <pt x="-1" y="-280" on="1"/>
        <pt x="0" y="-288" on="0"/>
        <pt x="0" y="-296" on="1"/>
        <pt x="0" y="-316" on="0"/>
        <pt x="-5" y="-340" on="1"/>
        <pt x="-51" y="-578" on="1"/>
        <pt x="-65" y="-649" on="0"/>
        <pt x="-141" y="-649" on="1"/>
        <pt x="-254" y="-649" on="0"/>
        <pt x="-254" y="-585" on="1"/>
        <pt x="-254" y="-577" on="0"/>
        <pt x="-252" y="-568" on="1"/>
        <pt x="-216" y="-372" on="1"/>
        <pt x="-214" y="-363" on="0"/>
        <pt x="-214" y="-355" on="1"/>
        <pt x="-214" y="-313" on="0"/>
        <pt x="-263" y="-290" on="1"/>
        <pt x="-319" y="-262" on="0"/>
        <pt x="-394" y="-262" on="1"/>
        <pt x="-519" y="-262" on="0"/>
        <pt x="-626" y="-317" on="0"/>
        <pt x="-636" y="-371" on="1"/>
        <pt x="-649" y="-455" on="1"/>
        <pt x="-669" y="-552" on="0"/>
        <pt x="-909" y="-650" on="0"/>
        <pt x="-1098" y="-650" on="1"/>
        <pt x="-1318" y="-650" on="0"/>
        <pt x="-1416" y="-587" on="1"/>
        <pt x="-1485" y="-542" on="0"/>
        <pt x="-1493" y="-465" on="1"/>
        <pt x="-1494" y="-455" on="0"/>
        <pt x="-1494" y="-445" on="1"/>
        <pt x="-1494" y="-424" on="0"/>
        <pt x="-1490" y="-401" on="1"/>
        <pt x="-1443" y="-153" on="1"/>
        <pt x="-1431" y="-100" on="0"/>
        <pt x="-1375" y="-100" on="1"/>
        <pt x="-1366" y="-100" on="0"/>
      </contour>
    </TTGlyph>
    <TTGlyph name="glyph225" xMin="-1176" yMin="-650" xMax="-50" yMax="-100">
      <contour>
        <pt x="-361" y="-380" on="1"/>
        <pt x="-356" y="-353" on="1"/>
        <pt x="-400" y="-304" on="1"/>
        <pt x="-428" y="-273" on="0"/>
        <pt x="-428" y="-241" on="1"/>
        <pt x="-428" y="-194" on="0"/>
        <pt x="-367" y="-145" on="1"/>
        <pt x="-311" y="-100" on="0"/>
        <pt x="-241" y="-100" on="1"/>
        <pt x="-150" y="-100" on="1"/>
        <pt x="-60" y="-100" on="0"/>
        <pt x="-51" y="-187" on="1"/>
        <pt x="-50" y="-188" on="0"/>
        <pt x="-50" y="-189" on="1"/>
        <pt x="-50" y="-201" on="0"/>
        <pt x="-60" y="-216" on="1"/>
        <pt x="-78" y="-244" on="0"/>
        <pt x="-146" y="-244" on="1"/>
        <pt x="-193" y="-244" on="0"/>
        <pt x="-265" y="-230" on="1"/>
        <pt x="-147" y="-317" on="1"/>
        <pt x="-176" y="-485" on="1"/>
        <pt x="-208" y="-650" on="0"/>
        <pt x="-400" y="-650" on="1"/>
        <pt x="-502" y="-650" on="0"/>
        <pt x="-507" y="-594" on="1"/>
        <pt x="-507" y="-587" on="1"/>
        <pt x="-507" y="-539" on="0"/>
        <pt x="-441" y="-539" on="1"/>
        <pt x="-402" y="-539" on="0"/>
        <pt x="-382" y="-489" on="1"/>
        <pt x="-704" y="-461" on="1"/>
        <pt x="-755" y="-458" on="0"/>
        <pt x="-779" y="-442" on="1"/>
        <pt x="-802" y="-427" on="0"/>
        <pt x="-802" y="-401" on="1"/>
        <pt x="-802" y="-399" on="1"/>
        <pt x="-801" y="-371" on="0"/>
        <pt x="-776" y="-360" on="1"/>
        <pt x="-755" y="-350" on="0"/>
        <pt x="-719" y="-350" on="1"/>
        <pt x="-710" y="-350" on="0"/>
        <pt x="-700" y="-351" on="1"/>
      </contour>
      <contour>
        <pt x="-1026" y="-353" on="1"/>
        <pt x="-1070" y="-304" on="1"/>
        <pt x="-1098" y="-273" on="0"/>
        <pt x="-1098" y="-241" on="1"/>
        <pt x="-1098" y="-194" on="0"/>
        <pt x="-1037" y="-145" on="1"/>
        <pt x="-981" y="-100" on="0"/>
        <pt x="-911" y="-100" on="1"/>
        <pt x="-804" y="-100" on="1"/>
        <pt x="-725" y="-106" on="0"/>
        <pt x="-725" y="-175" on="1"/>
        <pt x="-725" y="-194" on="0"/>
        <pt x="-730" y="-216" on="1"/>
        <pt x="-748" y="-244" on="0"/>
        <pt x="-816" y="-244" on="1"/>
        <pt x="-863" y="-244" on="0"/>
        <pt x="-935" y="-230" on="1"/>
        <pt x="-817" y="-317" on="1"/>
        <pt x="-846" y="-485" on="1"/>
        <pt x="-878" y="-650" on="0"/>
        <pt x="-1070" y="-650" on="1"/>
        <pt x="-1171" y="-650" on="0"/>
        <pt x="-1176" y="-594" on="1"/>
        <pt x="-1176" y="-584" on="1"/>
        <pt x="-1176" y="-539" on="0"/>
        <pt x="-1121" y="-539" on="1"/>
        <pt x="-1060" y="-539" on="0"/>
        <pt x="-1046" y="-466" on="1"/>
      </contour>
    </TTGlyph>
    <TTGlyph name="glyph226" xMin="-2442" yMin="-650" xMax="-1290" yMax="-100">
      <contour>
        <pt x="-2360" y="-650" on="1"/>
        <pt x="-2442" y="-650" on="0"/>
        <pt x="-2442" y="-559" on="1"/>
        <pt x="-2442" y="-538" on="0"/>
        <pt x="-2438" y="-512" on="1"/>
        <pt x="-2414" y="-375" on="1"/>
        <pt x="-2366" y="-100" on="0"/>
        <pt x="-1961" y="-100" on="1"/>
        <pt x="-1290" y="-100" on="0"/>
        <pt x="-1290" y="-431" on="1"/>
        <pt x="-1290" y="-462" on="0"/>
        <pt x="-1296" y="-498" on="1"/>
        <pt x="-1309" y="-574" on="1"/>
        <pt x="-1322" y="-650" on="0"/>
        <pt x="-1423" y="-650" on="1"/>
        <pt x="-1512" y="-650" on="0"/>
        <pt x="-1512" y="-583" on="1"/>
        <pt x="-1512" y="-573" on="0"/>
        <pt x="-1510" y="-562" on="1"/>
        <pt x="-1494" y="-475" on="1"/>
        <pt x="-1492" y="-465" on="0"/>
        <pt x="-1492" y="-456" on="1"/>
        <pt x="-1492" y="-300" on="0"/>
        <pt x="-1961" y="-300" on="1"/>
        <pt x="-2198" y="-300" on="0"/>
        <pt x="-2217" y="-412" on="1"/>
        <pt x="-2238" y="-531" on="1"/>
        <pt x="-2259" y="-650" on="0"/>
      </contour>
    </TTGlyph>
    <TTGlyph name="glyph227" xMin="-2383" yMin="-650" xMax="-1349" yMax="-100">
      <contour>
        <pt x="-1751" y="-100" on="1"/>
        <pt x="-1349" y="-100" on="0"/>
        <pt x="-1349" y="-214" on="1"/>
        <pt x="-1349" y="-220" on="0"/>
        <pt x="-1351" y="-227" on="1"/>
        <pt x="-1359" y="-270" on="0"/>
        <pt x="-1638" y="-360" on="1"/>
        <pt x="-1918" y="-450" on="1"/>
        <pt x="-1773" y="-450" on="1"/>
        <pt x="-1633" y="-450" on="0"/>
        <pt x="-1505" y="-414" on="1"/>
        <pt x="-1471" y="-405" on="0"/>
        <pt x="-1447" y="-405" on="1"/>
        <pt x="-1393" y="-405" on="0"/>
        <pt x="-1393" y="-453" on="1"/>
        <pt x="-1393" y="-463" on="0"/>
        <pt x="-1395" y="-474" on="1"/>
        <pt x="-1412" y="-569" on="0"/>
        <pt x="-1527" y="-609" on="1"/>
        <pt x="-1643" y="-650" on="0"/>
        <pt x="-1773" y="-650" on="1"/>
        <pt x="-2090" y="-650" on="1"/>
        <pt x="-2383" y="-650" on="0"/>
        <pt x="-2383" y="-522" on="1"/>
        <pt x="-2383" y="-511" on="0"/>
        <pt x="-2381" y="-500" on="1"/>
        <pt x="-2373" y="-450" on="0"/>
        <pt x="-2164" y="-375" on="1"/>
        <pt x="-1956" y="-300" on="1"/>
        <pt x="-2173" y="-300" on="1"/>
        <pt x="-2330" y="-300" on="0"/>
        <pt x="-2330" y="-218" on="1"/>
        <pt x="-2330" y="-209" on="0"/>
        <pt x="-2328" y="-200" on="1"/>
        <pt x="-2311" y="-100" on="0"/>
        <pt x="-2173" y="-100" on="1"/>
      </contour>
    </TTGlyph>
    <TTGlyph name="glyph228" xMin="-2442" yMin="-650" xMax="-1290" yMax="-100">
      <contour>
        <pt x="-2227" y="-473" on="1"/>
        <pt x="-2103" y="-424" on="1"/>
        <pt x="-1969" y="-369" on="0"/>
        <pt x="-1899" y="-369" on="1"/>
        <pt x="-1873" y="-369" on="0"/>
        <pt x="-1856" y="-377" on="1"/>
        <pt x="-1759" y="-418" on="0"/>
        <pt x="-1759" y="-484" on="1"/>
        <pt x="-1759" y="-506" on="0"/>
        <pt x="-1769" y="-530" on="1"/>
        <pt x="-1796" y="-592" on="0"/>
        <pt x="-1857" y="-592" on="1"/>
        <pt x="-1892" y="-592" on="0"/>
        <pt x="-1939" y="-572" on="1"/>
        <pt x="-1957" y="-564" on="0"/>
        <pt x="-1983" y="-564" on="1"/>
        <pt x="-2054" y="-564" on="0"/>
        <pt x="-2187" y="-618" on="1"/>
        <pt x="-2257" y="-646" on="1"/>
        <pt x="-2281" y="-650" on="0"/>
        <pt x="-2360" y="-650" on="1"/>
        <pt x="-2442" y="-650" on="0"/>
        <pt x="-2442" y="-559" on="1"/>
        <pt x="-2442" y="-538" on="0"/>
        <pt x="-2438" y="-512" on="1"/>
        <pt x="-2414" y="-375" on="1"/>
        <pt x="-2366" y="-100" on="0"/>
        <pt x="-1961" y="-100" on="1"/>
        <pt x="-1290" y="-100" on="0"/>
        <pt x="-1290" y="-431" on="1"/>
        <pt x="-1290" y="-462" on="0"/>
        <pt x="-1296" y="-498" on="1"/>
        <pt x="-1309" y="-574" on="1"/>
        <pt x="-1322" y="-650" on="0"/>
        <pt x="-1423" y="-650" on="1"/>
        <pt x="-1512" y="-650" on="0"/>
        <pt x="-1512" y="-583" on="1"/>
        <pt x="-1512" y="-573" on="0"/>
        <pt x="-1510" y="-562" on="1"/>
        <pt x="-1494" y="-475" on="1"/>
        <pt x="-1492" y="-465" on="0"/>
        <pt x="-1492" y="-456" on="1"/>
        <pt x="-1492" y="-300" on="0"/>
        <pt x="-1961" y="-300" on="1"/>
        <pt x="-2198" y="-300" on="0"/>
        <pt x="-2217" y="-412" on="1"/>
      </contour>
    </TTGlyph>
    <TTGlyph name="glyph229" xMin="-2395" yMin="-650" xMax="-1336" yMax="-100">
      <contour>
        <pt x="-1995" y="-194" on="1"/>
        <pt x="-1995" y="-289" on="0"/>
        <pt x="-2094" y="-289" on="1"/>
        <pt x="-2144" y="-289" on="0"/>
        <pt x="-2194" y="-325" on="0"/>
        <pt x="-2194" y="-362" on="1"/>
        <pt x="-2194" y="-400" on="0"/>
        <pt x="-2092" y="-450" on="0"/>
        <pt x="-2015" y="-450" on="1"/>
        <pt x="-1843" y="-450" on="0"/>
        <pt x="-1652" y="-351" on="0"/>
        <pt x="-1538" y="-164" on="1"/>
        <pt x="-1519" y="-100" on="0"/>
        <pt x="-1427" y="-100" on="1"/>
        <pt x="-1336" y="-100" on="0"/>
        <pt x="-1336" y="-158" on="1"/>
        <pt x="-1336" y="-173" on="0"/>
        <pt x="-1342" y="-192" on="1"/>
        <pt x="-1408" y="-421" on="0"/>
        <pt x="-1577" y="-535" on="1"/>
        <pt x="-1746" y="-650" on="0"/>
        <pt x="-2015" y="-650" on="1"/>
        <pt x="-2172" y="-650" on="0"/>
        <pt x="-2395" y="-556" on="0"/>
        <pt x="-2395" y="-412" on="1"/>
        <pt x="-2395" y="-269" on="0"/>
        <pt x="-2220" y="-100" on="0"/>
        <pt x="-2095" y="-100" on="1"/>
        <pt x="-1995" y="-100" on="0"/>
      </contour>
    </TTGlyph>
    <TTGlyph name="glyph230" xMin="-2421" yMin="-650" xMax="-1310" yMax="-100">
      <contour>
        <pt x="-1456" y="-388" on="1"/>
        <pt x="-1396" y="-411" on="0"/>
        <pt x="-1360" y="-439" on="1"/>
        <pt x="-1310" y="-475" on="0"/>
        <pt x="-1310" y="-539" on="1"/>
        <pt x="-1310" y="-547" on="0"/>
        <pt x="-1311" y="-555" on="1"/>
        <pt x="-1318" y="-631" on="0"/>
        <pt x="-1385" y="-636" on="1"/>
        <pt x="-1396" y="-636" on="1"/>
        <pt x="-1462" y="-636" on="0"/>
        <pt x="-1468" y="-566" on="1"/>
        <pt x="-1470" y="-538" on="0"/>
        <pt x="-1581" y="-503" on="1"/>
        <pt x="-1622" y="-531" on="0"/>
        <pt x="-1673" y="-561" on="1"/>
        <pt x="-1749" y="-605" on="0"/>
        <pt x="-1840" y="-628" on="1"/>
        <pt x="-1930" y="-650" on="0"/>
        <pt x="-2034" y="-650" on="1"/>
        <pt x="-2043" y="-650" on="1"/>
        <pt x="-2161" y="-650" on="0"/>
        <pt x="-2235" y="-631" on="1"/>
        <pt x="-2361" y="-611" on="0"/>
        <pt x="-2390" y="-573" on="1"/>
        <pt x="-2421" y="-530" on="0"/>
        <pt x="-2421" y="-491" on="1"/>
        <pt x="-2421" y="-472" on="0"/>
        <pt x="-2414" y="-454" on="1"/>
        <pt x="-2391" y="-399" on="0"/>
        <pt x="-2297" y="-353" on="1"/>
        <pt x="-2183" y="-297" on="0"/>
        <pt x="-2119" y="-246" on="1"/>
        <pt x="-2056" y="-196" on="0"/>
        <pt x="-2042" y="-152" on="1"/>
        <pt x="-2027" y="-100" on="0"/>
        <pt x="-1923" y="-100" on="1"/>
        <pt x="-1913" y="-100" on="0"/>
        <pt x="-1902" y="-102" on="1"/>
        <pt x="-1842" y="-111" on="0"/>
        <pt x="-1842" y="-154" on="1"/>
        <pt x="-1842" y="-163" on="0"/>
        <pt x="-1845" y="-174" on="1"/>
        <pt x="-1864" y="-240" on="0"/>
        <pt x="-2006" y="-425" on="0"/>
        <pt x="-2164" y="-470" on="1"/>
        <pt x="-2087" y="-481" on="0"/>
        <pt x="-2022" y="-481" on="1"/>
        <pt x="-1966" y="-481" on="0"/>
        <pt x="-1919" y="-472" on="1"/>
        <pt x="-1820" y="-455" on="0"/>
        <pt x="-1759" y="-420" on="1"/>
        <pt x="-1741" y="-410" on="0"/>
        <pt x="-1725" y="-399" on="1"/>
        <pt x="-1749" y="-387" on="0"/>
        <pt x="-1759" y="-376" on="1"/>
        <pt x="-1804" y="-350" on="0"/>
        <pt x="-1804" y="-305" on="1"/>
        <pt x="-1804" y="-276" on="0"/>
        <pt x="-1784" y="-238" on="1"/>
        <pt x="-1735" y="-147" on="0"/>
        <pt x="-1611" y="-147" on="1"/>
        <pt x="-1603" y="-147" on="1"/>
        <pt x="-1535" y="-147" on="0"/>
        <pt x="-1460" y="-187" on="1"/>
        <pt x="-1397" y="-220" on="0"/>
        <pt x="-1394" y="-271" on="1"/>
        <pt x="-1394" y="-278" on="1"/>
        <pt x="-1394" y="-325" on="0"/>
        <pt x="-1430" y="-360" on="1"/>
        <pt x="-1442" y="-374" on="0"/>
      </contour>
    </TTGlyph>
    <TTGlyph name="glyph231" xMin="-2417" yMin="-650" xMax="-1315" yMax="-100">
      <contour>
        <pt x="-2192" y="-149" on="1"/>
        <pt x="-2183" y="-100" on="0"/>
        <pt x="-2081" y="-100" on="1"/>
        <pt x="-1989" y="-100" on="0"/>
        <pt x="-1989" y="-152" on="1"/>
        <pt x="-1989" y="-158" on="0"/>
        <pt x="-1990" y="-164" on="1"/>
        <pt x="-2019" y="-320" on="1"/>
        <pt x="-1955" y="-320" on="0"/>
        <pt x="-1896" y="-347" on="1"/>
        <pt x="-1835" y="-375" on="0"/>
        <pt x="-1776" y="-432" on="1"/>
        <pt x="-1721" y="-487" on="0"/>
        <pt x="-1632" y="-487" on="1"/>
        <pt x="-1626" y="-487" on="0"/>
        <pt x="-1620" y="-486" on="1"/>
        <pt x="-1523" y="-483" on="0"/>
        <pt x="-1513" y="-427" on="1"/>
        <pt x="-1501" y="-354" on="1"/>
        <pt x="-1499" y="-342" on="0"/>
        <pt x="-1499" y="-332" on="1"/>
        <pt x="-1499" y="-308" on="0"/>
        <pt x="-1512" y="-291" on="1"/>
        <pt x="-1530" y="-268" on="0"/>
        <pt x="-1572" y="-268" on="1"/>
        <pt x="-1627" y="-268" on="0"/>
        <pt x="-1631" y="-303" on="1"/>
        <pt x="-1632" y="-307" on="0"/>
        <pt x="-1632" y="-310" on="1"/>
        <pt x="-1632" y="-329" on="0"/>
        <pt x="-1602" y="-329" on="1"/>
        <pt x="-1600" y="-329" on="1"/>
        <pt x="-1550" y="-329" on="0"/>
        <pt x="-1544" y="-383" on="1"/>
        <pt x="-1544" y="-392" on="1"/>
        <pt x="-1544" y="-438" on="0"/>
        <pt x="-1590" y="-439" on="1"/>
        <pt x="-1701" y="-439" on="0"/>
        <pt x="-1747" y="-391" on="1"/>
        <pt x="-1783" y="-355" on="0"/>
        <pt x="-1783" y="-309" on="1"/>
        <pt x="-1783" y="-297" on="0"/>
        <pt x="-1780" y="-284" on="1"/>
        <pt x="-1768" y="-171" on="0"/>
        <pt x="-1720" y="-140" on="1"/>
        <pt x="-1671" y="-108" on="0"/>
        <pt x="-1583" y="-108" on="1"/>
        <pt x="-1476" y="-108" on="0"/>
        <pt x="-1389" y="-166" on="1"/>
        <pt x="-1315" y="-215" on="0"/>
        <pt x="-1315" y="-339" on="1"/>
        <pt x="-1315" y="-361" on="0"/>
        <pt x="-1317" y="-386" on="1"/>
        <pt x="-1333" y="-548" on="0"/>
        <pt x="-1529" y="-650" on="0"/>
        <pt x="-1637" y="-650" on="1"/>
        <pt x="-1707" y="-650" on="0"/>
        <pt x="-1857" y="-572" on="0"/>
        <pt x="-1970" y="-480" on="0"/>
        <pt x="-2022" y="-480" on="1"/>
        <pt x="-2049" y="-480" on="1"/>
        <pt x="-2066" y="-564" on="1"/>
        <pt x="-2081" y="-650" on="0"/>
        <pt x="-2202" y="-650" on="1"/>
        <pt x="-2302" y="-650" on="0"/>
        <pt x="-2355" y="-613" on="1"/>
        <pt x="-2409" y="-576" on="0"/>
        <pt x="-2416" y="-503" on="1"/>
        <pt x="-2417" y="-489" on="0"/>
        <pt x="-2417" y="-477" on="1"/>
        <pt x="-2417" y="-404" on="0"/>
        <pt x="-2372" y="-365" on="1"/>
        <pt x="-2320" y="-320" on="0"/>
        <pt x="-2274" y="-320" on="1"/>
        <pt x="-2224" y="-320" on="1"/>
      </contour>
    </TTGlyph>
    <TTGlyph name="glyph232" xMin="-2450" yMin="-650" xMax="-1281" yMax="-100">
      <contour>
        <pt x="-1434" y="-250" on="1"/>
        <pt x="-1409" y="-250" on="1"/>
        <pt x="-1281" y="-250" on="0"/>
        <pt x="-1281" y="-350" on="1"/>
        <pt x="-1281" y="-450" on="0"/>
        <pt x="-1419" y="-450" on="1"/>
        <pt x="-1484" y="-450" on="1"/>
        <pt x="-1511" y="-511" on="0"/>
        <pt x="-1552" y="-562" on="1"/>
        <pt x="-1620" y="-649" on="0"/>
        <pt x="-1721" y="-649" on="1"/>
        <pt x="-1723" y="-649" on="1"/>
        <pt x="-1869" y="-649" on="0"/>
        <pt x="-1961" y="-540" on="1"/>
        <pt x="-2056" y="-650" on="0"/>
        <pt x="-2209" y="-650" on="1"/>
        <pt x="-2356" y="-650" on="0"/>
        <pt x="-2413" y="-567" on="1"/>
        <pt x="-2442" y="-524" on="0"/>
        <pt x="-2448" y="-461" on="1"/>
        <pt x="-2450" y="-442" on="0"/>
        <pt x="-2450" y="-422" on="1"/>
        <pt x="-2450" y="-375" on="0"/>
        <pt x="-2439" y="-321" on="1"/>
        <pt x="-2419" y="-210" on="0"/>
        <pt x="-2348" y="-155" on="1"/>
        <pt x="-2279" y="-100" on="0"/>
        <pt x="-2161" y="-100" on="1"/>
        <pt x="-2062" y="-100" on="0"/>
        <pt x="-2056" y="-180" on="1"/>
        <pt x="-2056" y="-188" on="1"/>
        <pt x="-2056" y="-260" on="0"/>
        <pt x="-2149" y="-260" on="1"/>
        <pt x="-2207" y="-260" on="0"/>
        <pt x="-2232" y="-295" on="1"/>
        <pt x="-2254" y="-326" on="0"/>
        <pt x="-2254" y="-377" on="1"/>
        <pt x="-2254" y="-390" on="1"/>
        <pt x="-2251" y="-450" on="0"/>
        <pt x="-2214" y="-450" on="1"/>
        <pt x="-2171" y="-450" on="0"/>
        <pt x="-2028" y="-365" on="0"/>
        <pt x="-1972" y="-365" on="1"/>
        <pt x="-1916" y="-365" on="0"/>
        <pt x="-1809" y="-450" on="0"/>
        <pt x="-1759" y="-450" on="1"/>
        <pt x="-1709" y="-450" on="0"/>
        <pt x="-1685" y="-425" on="1"/>
        <pt x="-1755" y="-414" on="0"/>
        <pt x="-1815" y="-361" on="1"/>
        <pt x="-1880" y="-304" on="0"/>
        <pt x="-1880" y="-243" on="1"/>
        <pt x="-1880" y="-232" on="0"/>
        <pt x="-1878" y="-220" on="1"/>
        <pt x="-1867" y="-160" on="0"/>
        <pt x="-1814" y="-130" on="1"/>
        <pt x="-1761" y="-100" on="0"/>
        <pt x="-1665" y="-100" on="1"/>
        <pt x="-1539" y="-100" on="0"/>
        <pt x="-1486" y="-150" on="1"/>
        <pt x="-1434" y="-198" on="0"/>
        <pt x="-1434" y="-245" on="1"/>
      </contour>
    </TTGlyph>
    <TTGlyph name="glyph233" xMin="-2702" yMin="-650" xMax="-1029" yMax="-100">
      <contour>
        <pt x="-1278" y="-246" on="1"/>
        <pt x="-1301" y="-231" on="0"/>
        <pt x="-1301" y="-209" on="1"/>
        <pt x="-1301" y="-176" on="0"/>
        <pt x="-1244" y="-126" on="1"/>
        <pt x="-1213" y="-100" on="0"/>
        <pt x="-1178" y="-100" on="1"/>
        <pt x="-1143" y="-100" on="0"/>
        <pt x="-1097" y="-137" on="1"/>
        <pt x="-1029" y="-190" on="0"/>
        <pt x="-1029" y="-285" on="1"/>
        <pt x="-1029" y="-317" on="0"/>
        <pt x="-1038" y="-356" on="1"/>
        <pt x="-1070" y="-503" on="0"/>
        <pt x="-1273" y="-650" on="0"/>
        <pt x="-1484" y="-650" on="1"/>
        <pt x="-1625" y="-650" on="0"/>
        <pt x="-1848" y="-554" on="0"/>
        <pt x="-2124" y="-358" on="0"/>
        <pt x="-2279" y="-358" on="1"/>
        <pt x="-2421" y="-358" on="0"/>
        <pt x="-2535" y="-409" on="1"/>
        <pt x="-2570" y="-426" on="0"/>
        <pt x="-2598" y="-426" on="1"/>
        <pt x="-2656" y="-426" on="0"/>
        <pt x="-2688" y="-356" on="1"/>
        <pt x="-2702" y="-341" on="0"/>
        <pt x="-2702" y="-324" on="1"/>
        <pt x="-2702" y="-282" on="0"/>
        <pt x="-2615" y="-232" on="1"/>
        <pt x="-2482" y="-161" on="0"/>
        <pt x="-2276" y="-161" on="1"/>
        <pt x="-2089" y="-161" on="0"/>
        <pt x="-1761" y="-378" on="0"/>
        <pt x="-1589" y="-453" on="0"/>
        <pt x="-1480" y="-453" on="1"/>
        <pt x="-1382" y="-453" on="0"/>
        <pt x="-1247" y="-400" on="0"/>
        <pt x="-1236" y="-341" on="1"/>
        <pt x="-1235" y="-332" on="0"/>
        <pt x="-1235" y="-322" on="1"/>
        <pt x="-1235" y="-277" on="0"/>
      </contour>
    </TTGlyph>
    <TTGlyph name="glyph234" xMin="-2431" yMin="-650" xMax="-1301" yMax="-100">
      <contour>
        <pt x="-2172" y="-650" on="1"/>
        <pt x="-2431" y="-650" on="0"/>
        <pt x="-2431" y="-445" on="1"/>
        <pt x="-2431" y="-412" on="0"/>
        <pt x="-2425" y="-375" on="1"/>
        <pt x="-2377" y="-100" on="0"/>
        <pt x="-1972" y="-100" on="1"/>
        <pt x="-1301" y="-100" on="0"/>
        <pt x="-1301" y="-431" on="1"/>
        <pt x="-1301" y="-462" on="0"/>
        <pt x="-1307" y="-498" on="1"/>
        <pt x="-1320" y="-574" on="1"/>
        <pt x="-1333" y="-650" on="0"/>
        <pt x="-1434" y="-650" on="1"/>
        <pt x="-1523" y="-650" on="0"/>
        <pt x="-1523" y="-583" on="1"/>
        <pt x="-1523" y="-573" on="0"/>
        <pt x="-1521" y="-562" on="1"/>
        <pt x="-1505" y="-475" on="1"/>
        <pt x="-1503" y="-465" on="0"/>
        <pt x="-1503" y="-456" on="1"/>
        <pt x="-1503" y="-300" on="0"/>
        <pt x="-1972" y="-300" on="1"/>
        <pt x="-2209" y="-300" on="0"/>
        <pt x="-2228" y="-412" on="1"/>
        <pt x="-2229" y="-416" on="0"/>
        <pt x="-2229" y="-419" on="1"/>
        <pt x="-2229" y="-450" on="0"/>
        <pt x="-2172" y="-450" on="1"/>
        <pt x="-2114" y="-450" on="0"/>
        <pt x="-2108" y="-400" on="1"/>
        <pt x="-2108" y="-398" on="1"/>
        <pt x="-2108" y="-322" on="0"/>
        <pt x="-2030" y="-319" on="1"/>
        <pt x="-2026" y="-319" on="1"/>
        <pt x="-1951" y="-319" on="0"/>
        <pt x="-1943" y="-423" on="1"/>
        <pt x="-1976" y="-650" on="0"/>
      </contour>
    </TTGlyph>
    <TTGlyph name="glyph235" xMin="-2731" yMin="-643" xMax="-1001" yMax="-43">
      <contour>
        <pt x="-2247" y="-397" on="1"/>
        <pt x="-2235" y="-465" on="0"/>
        <pt x="-2210" y="-483" on="0"/>
        <pt x="-2147" y="-484" on="1"/>
        <pt x="-2090" y="-484" on="0"/>
        <pt x="-2022" y="-438" on="0"/>
        <pt x="-1954" y="-350" on="1"/>
        <pt x="-2250" y="-381" on="1"/>
      </contour>
      <contour>
        <pt x="-1687" y="-429" on="0"/>
        <pt x="-1594" y="-484" on="0"/>
        <pt x="-1550" y="-484" on="1"/>
        <pt x="-1486" y="-483" on="0"/>
        <pt x="-1455" y="-341" on="1"/>
        <pt x="-1446" y="-312" on="1"/>
        <pt x="-1754" y="-340" on="1"/>
      </contour>
      <contour>
        <pt x="-2451" y="-391" on="1"/>
        <pt x="-2467" y="-392" on="0"/>
        <pt x="-2482" y="-392" on="1"/>
        <pt x="-2553" y="-392" on="0"/>
        <pt x="-2625" y="-370" on="1"/>
        <pt x="-2728" y="-337" on="0"/>
        <pt x="-2731" y="-258" on="1"/>
        <pt x="-2731" y="-248" on="1"/>
        <pt x="-2731" y="-175" on="0"/>
        <pt x="-2676" y="-138" on="1"/>
        <pt x="-2618" y="-98" on="0"/>
        <pt x="-2498" y="-98" on="1"/>
        <pt x="-2408" y="-98" on="0"/>
        <pt x="-2346" y="-145" on="1"/>
        <pt x="-2288" y="-188" on="0"/>
        <pt x="-2273" y="-222" on="1"/>
        <pt x="-2241" y="-220" on="0"/>
        <pt x="-2207" y="-218" on="1"/>
        <pt x="-1413" y="-150" on="1"/>
        <pt x="-1398" y="-98" on="1"/>
        <pt x="-1380" y="-43" on="0"/>
        <pt x="-1271" y="-43" on="1"/>
        <pt x="-1263" y="-43" on="0"/>
        <pt x="-1255" y="-44" on="1"/>
        <pt x="-1195" y="-51" on="0"/>
        <pt x="-1195" y="-96" on="1"/>
        <pt x="-1195" y="-105" on="0"/>
        <pt x="-1198" y="-117" on="1"/>
        <pt x="-1204" y="-138" on="1"/>
        <pt x="-1107" y="-131" on="1"/>
        <pt x="-1099" y="-130" on="0"/>
        <pt x="-1091" y="-130" on="1"/>
        <pt x="-1007" y="-130" on="0"/>
        <pt x="-1002" y="-203" on="1"/>
        <pt x="-1001" y="-207" on="0"/>
        <pt x="-1001" y="-210" on="1"/>
        <pt x="-1001" y="-282" on="0"/>
        <pt x="-1088" y="-289" on="1"/>
        <pt x="-1241" y="-300" on="1"/>
        <pt x="-1265" y="-370" on="1"/>
        <pt x="-1301" y="-506" on="0"/>
        <pt x="-1372" y="-574" on="1"/>
        <pt x="-1443" y="-643" on="0"/>
        <pt x="-1549" y="-643" on="1"/>
        <pt x="-1640" y="-643" on="0"/>
        <pt x="-1716" y="-601" on="1"/>
        <pt x="-1792" y="-560" on="0"/>
        <pt x="-1853" y="-478" on="1"/>
        <pt x="-1918" y="-560" on="0"/>
        <pt x="-2049" y="-643" on="0"/>
        <pt x="-2144" y="-643" on="1"/>
        <pt x="-2276" y="-643" on="0"/>
        <pt x="-2351" y="-588" on="1"/>
        <pt x="-2427" y="-534" on="0"/>
        <pt x="-2446" y="-424" on="1"/>
      </contour>
    </TTGlyph>
    <TTGlyph name="glyph236" xMin="-2383" yMin="-700" xMax="-1349" yMax="-100">
      <contour>
        <pt x="-1801" y="-187" on="1"/>
        <pt x="-1650" y="-100" on="0"/>
        <pt x="-1520" y="-100" on="1"/>
        <pt x="-1349" y="-100" on="0"/>
        <pt x="-1349" y="-174" on="1"/>
        <pt x="-1349" y="-180" on="0"/>
        <pt x="-1351" y="-187" on="1"/>
        <pt x="-1359" y="-270" on="0"/>
        <pt x="-1638" y="-360" on="1"/>
        <pt x="-1918" y="-450" on="1"/>
        <pt x="-1873" y="-450" on="1"/>
        <pt x="-1693" y="-450" on="0"/>
        <pt x="-1555" y="-374" on="1"/>
        <pt x="-1507" y="-365" on="0"/>
        <pt x="-1474" y="-365" on="1"/>
        <pt x="-1394" y="-365" on="0"/>
        <pt x="-1394" y="-418" on="1"/>
        <pt x="-1394" y="-426" on="0"/>
        <pt x="-1395" y="-434" on="1"/>
        <pt x="-1412" y="-529" on="1"/>
        <pt x="-1430" y="-614" on="1"/>
        <pt x="-1449" y="-700" on="0"/>
        <pt x="-1541" y="-700" on="1"/>
        <pt x="-1621" y="-700" on="0"/>
        <pt x="-1621" y="-647" on="1"/>
        <pt x="-1621" y="-639" on="0"/>
        <pt x="-1619" y="-629" on="1"/>
        <pt x="-1605" y="-559" on="1"/>
        <pt x="-1703" y="-650" on="0"/>
        <pt x="-1873" y="-650" on="1"/>
        <pt x="-2090" y="-650" on="1"/>
        <pt x="-2383" y="-650" on="0"/>
        <pt x="-2383" y="-522" on="1"/>
        <pt x="-2383" y="-511" on="0"/>
        <pt x="-2381" y="-500" on="1"/>
        <pt x="-2373" y="-450" on="0"/>
        <pt x="-2164" y="-375" on="1"/>
        <pt x="-2019" y="-320" on="1"/>
        <pt x="-2064" y="-300" on="0"/>
        <pt x="-2173" y="-300" on="1"/>
        <pt x="-2330" y="-300" on="0"/>
        <pt x="-2330" y="-218" on="1"/>
        <pt x="-2330" y="-209" on="0"/>
        <pt x="-2328" y="-200" on="1"/>
        <pt x="-2311" y="-100" on="0"/>
        <pt x="-2113" y="-100" on="1"/>
        <pt x="-1946" y="-100" on="0"/>
      </contour>
    </TTGlyph>
    <TTGlyph name="glyph237" xMin="-2431" yMin="-650" xMax="-1301" yMax="-100">
      <contour>
        <pt x="-2172" y="-650" on="1"/>
        <pt x="-2431" y="-650" on="0"/>
        <pt x="-2431" y="-445" on="1"/>
        <pt x="-2431" y="-412" on="0"/>
        <pt x="-2425" y="-375" on="1"/>
        <pt x="-2377" y="-100" on="0"/>
        <pt x="-1972" y="-100" on="1"/>
        <pt x="-1301" y="-100" on="0"/>
        <pt x="-1301" y="-431" on="1"/>
        <pt x="-1301" y="-462" on="0"/>
        <pt x="-1307" y="-498" on="1"/>
        <pt x="-1320" y="-574" on="1"/>
        <pt x="-1333" y="-650" on="0"/>
        <pt x="-1434" y="-650" on="1"/>
        <pt x="-1523" y="-650" on="0"/>
        <pt x="-1523" y="-583" on="1"/>
        <pt x="-1523" y="-573" on="0"/>
        <pt x="-1521" y="-562" on="1"/>
        <pt x="-1505" y="-475" on="1"/>
        <pt x="-1503" y="-465" on="0"/>
        <pt x="-1503" y="-456" on="1"/>
        <pt x="-1503" y="-300" on="0"/>
        <pt x="-1972" y="-300" on="1"/>
        <pt x="-2209" y="-300" on="0"/>
        <pt x="-2228" y="-412" on="1"/>
        <pt x="-2229" y="-416" on="0"/>
        <pt x="-2229" y="-419" on="1"/>
        <pt x="-2229" y="-450" on="0"/>
        <pt x="-2172" y="-450" on="1"/>
        <pt x="-2114" y="-450" on="0"/>
        <pt x="-2108" y="-400" on="1"/>
        <pt x="-2108" y="-398" on="1"/>
        <pt x="-2108" y="-322" on="0"/>
        <pt x="-2030" y="-319" on="1"/>
        <pt x="-2026" y="-319" on="1"/>
        <pt x="-1951" y="-319" on="0"/>
        <pt x="-1943" y="-423" on="1"/>
        <pt x="-1976" y="-650" on="0"/>
      </contour>
    </TTGlyph>
    <TTGlyph name="glyph238" xMin="-2446" yMin="-650" xMax="-1286" yMax="-100">
      <contour>
        <pt x="-1896" y="-481" on="1"/>
        <pt x="-1896" y="-557" on="0"/>
        <pt x="-1945" y="-595" on="1"/>
        <pt x="-1995" y="-634" on="0"/>
        <pt x="-2095" y="-634" on="1"/>
        <pt x="-2270" y="-634" on="0"/>
        <pt x="-2358" y="-566" on="1"/>
        <pt x="-2446" y="-500" on="0"/>
        <pt x="-2446" y="-387" on="1"/>
        <pt x="-2446" y="-234" on="0"/>
        <pt x="-2346" y="-167" on="1"/>
        <pt x="-2246" y="-100" on="0"/>
        <pt x="-2046" y="-100" on="1"/>
        <pt x="-1884" y="-100" on="0"/>
        <pt x="-1704" y="-207" on="1"/>
        <pt x="-1525" y="-314" on="0"/>
        <pt x="-1328" y="-528" on="1"/>
        <pt x="-1286" y="-571" on="0"/>
        <pt x="-1286" y="-601" on="1"/>
        <pt x="-1286" y="-625" on="0"/>
        <pt x="-1314" y="-640" on="1"/>
        <pt x="-1331" y="-650" on="0"/>
        <pt x="-1350" y="-650" on="1"/>
        <pt x="-1448" y="-650" on="0"/>
        <pt x="-1506" y="-589" on="1"/>
        <pt x="-1678" y="-451" on="0"/>
        <pt x="-1923" y="-264" on="0"/>
        <pt x="-2046" y="-264" on="1"/>
        <pt x="-2171" y="-264" on="0"/>
        <pt x="-2245" y="-340" on="0"/>
        <pt x="-2245" y="-386" on="1"/>
        <pt x="-2245" y="-442" on="0"/>
        <pt x="-2195" y="-468" on="0"/>
        <pt x="-2094" y="-468" on="1"/>
        <pt x="-2045" y="-468" on="0"/>
        <pt x="-2045" y="-436" on="1"/>
        <pt x="-2045" y="-405" on="0"/>
        <pt x="-1971" y="-405" on="1"/>
        <pt x="-1969" y="-405" on="1"/>
        <pt x="-1896" y="-405" on="0"/>
      </contour>
    </TTGlyph>
    <TTGlyph name="glyph239" xMin="-2319" yMin="-650" xMax="-1413" yMax="-100">
      <contour>
        <pt x="-1923" y="-102" on="1"/>
        <pt x="-1863" y="-112" on="0"/>
        <pt x="-1863" y="-157" on="1"/>
        <pt x="-1863" y="-166" on="0"/>
        <pt x="-1865" y="-176" on="1"/>
        <pt x="-1878" y="-246" on="0"/>
        <pt x="-1935" y="-296" on="1"/>
        <pt x="-1992" y="-344" on="0"/>
        <pt x="-2110" y="-392" on="0"/>
        <pt x="-2117" y="-423" on="1"/>
        <pt x="-2118" y="-427" on="0"/>
        <pt x="-2118" y="-432" on="1"/>
        <pt x="-2118" y="-456" on="0"/>
        <pt x="-2082" y="-466" on="1"/>
        <pt x="-2040" y="-478" on="0"/>
        <pt x="-1972" y="-478" on="1"/>
        <pt x="-1914" y="-478" on="0"/>
        <pt x="-1756" y="-256" on="1"/>
        <pt x="-1702" y="-165" on="0"/>
        <pt x="-1631" y="-143" on="1"/>
        <pt x="-1607" y="-136" on="0"/>
        <pt x="-1583" y="-136" on="1"/>
        <pt x="-1536" y="-136" on="0"/>
        <pt x="-1490" y="-164" on="1"/>
        <pt x="-1420" y="-208" on="0"/>
        <pt x="-1414" y="-270" on="1"/>
        <pt x="-1413" y="-277" on="0"/>
        <pt x="-1413" y="-285" on="1"/>
        <pt x="-1413" y="-303" on="0"/>
        <pt x="-1418" y="-326" on="1"/>
        <pt x="-1473" y="-603" on="1"/>
        <pt x="-1483" y="-650" on="0"/>
        <pt x="-1586" y="-650" on="1"/>
        <pt x="-1596" y="-650" on="0"/>
        <pt x="-1608" y="-648" on="1"/>
        <pt x="-1670" y="-640" on="0"/>
        <pt x="-1670" y="-592" on="1"/>
        <pt x="-1670" y="-583" on="0"/>
        <pt x="-1668" y="-573" on="1"/>
        <pt x="-1629" y="-374" on="1"/>
        <pt x="-1715" y="-503" on="0"/>
        <pt x="-1800" y="-568" on="1"/>
        <pt x="-1883" y="-633" on="0"/>
        <pt x="-1965" y="-633" on="1"/>
        <pt x="-2078" y="-633" on="0"/>
        <pt x="-2207" y="-565" on="1"/>
        <pt x="-2272" y="-530" on="0"/>
        <pt x="-2300" y="-490" on="1"/>
        <pt x="-2316" y="-465" on="0"/>
        <pt x="-2319" y="-438" on="1"/>
        <pt x="-2319" y="-429" on="1"/>
        <pt x="-2319" y="-416" on="0"/>
        <pt x="-2317" y="-404" on="1"/>
        <pt x="-2308" y="-358" on="0"/>
        <pt x="-2269" y="-326" on="1"/>
        <pt x="-2231" y="-294" on="0"/>
        <pt x="-2146" y="-256" on="0"/>
        <pt x="-2108" y="-227" on="1"/>
        <pt x="-2070" y="-197" on="0"/>
        <pt x="-2060" y="-155" on="1"/>
        <pt x="-2049" y="-100" on="0"/>
        <pt x="-1945" y="-100" on="1"/>
        <pt x="-1935" y="-100" on="0"/>
      </contour>
    </TTGlyph>
    <TTGlyph name="glyph240" xMin="-2462" yMin="-650" xMax="-1269" yMax="-100">
      <contour>
        <pt x="-1429" y="-280" on="1"/>
        <pt x="-1698" y="-351" on="1"/>
        <pt x="-1599" y="-423" on="0"/>
        <pt x="-1555" y="-423" on="1"/>
        <pt x="-1551" y="-423" on="0"/>
        <pt x="-1547" y="-422" on="1"/>
        <pt x="-1504" y="-414" on="0"/>
        <pt x="-1484" y="-386" on="1"/>
        <pt x="-1471" y="-366" on="0"/>
        <pt x="-1471" y="-346" on="1"/>
        <pt x="-1471" y="-338" on="0"/>
        <pt x="-1473" y="-330" on="1"/>
        <pt x="-1473" y="-297" on="0"/>
      </contour>
      <contour>
        <pt x="-2216" y="-480" on="1"/>
        <pt x="-2186" y="-509" on="0"/>
        <pt x="-2135" y="-509" on="1"/>
        <pt x="-2125" y="-509" on="1"/>
        <pt x="-2068" y="-506" on="0"/>
        <pt x="-1974" y="-448" on="0"/>
        <pt x="-1968" y="-415" on="1"/>
      </contour>
      <contour>
        <pt x="-1350" y="-262" on="1"/>
        <pt x="-1342" y="-262" on="1"/>
        <pt x="-1276" y="-262" on="0"/>
        <pt x="-1271" y="-324" on="1"/>
        <pt x="-1269" y="-342" on="0"/>
        <pt x="-1269" y="-360" on="1"/>
        <pt x="-1269" y="-415" on="0"/>
        <pt x="-1310" y="-482" on="1"/>
        <pt x="-1358" y="-561" on="0"/>
        <pt x="-1461" y="-579" on="1"/>
        <pt x="-1492" y="-584" on="0"/>
        <pt x="-1522" y="-584" on="1"/>
        <pt x="-1579" y="-584" on="0"/>
        <pt x="-1636" y="-566" on="1"/>
        <pt x="-1724" y="-539" on="0"/>
        <pt x="-1809" y="-469" on="1"/>
        <pt x="-1846" y="-561" on="0"/>
        <pt x="-1916" y="-590" on="1"/>
        <pt x="-1976" y="-625" on="0"/>
        <pt x="-2069" y="-641" on="1"/>
        <pt x="-2114" y="-650" on="0"/>
        <pt x="-2155" y="-650" on="1"/>
        <pt x="-2229" y="-650" on="0"/>
        <pt x="-2287" y="-623" on="1"/>
        <pt x="-2379" y="-583" on="0"/>
        <pt x="-2432" y="-523" on="1"/>
        <pt x="-2462" y="-489" on="0"/>
        <pt x="-2462" y="-459" on="1"/>
        <pt x="-2462" y="-439" on="0"/>
        <pt x="-2449" y="-421" on="1"/>
        <pt x="-2416" y="-375" on="0"/>
        <pt x="-2298" y="-338" on="1"/>
        <pt x="-1402" y="-108" on="1"/>
        <pt x="-1371" y="-100" on="0"/>
        <pt x="-1348" y="-100" on="1"/>
        <pt x="-1298" y="-100" on="0"/>
        <pt x="-1282" y="-135" on="1"/>
        <pt x="-1275" y="-145" on="0"/>
        <pt x="-1275" y="-156" on="1"/>
        <pt x="-1275" y="-241" on="0"/>
        <pt x="-1349" y="-260" on="1"/>
        <pt x="-1361" y="-263" on="1"/>
        <pt x="-1355" y="-262" on="0"/>
      </contour>
    </TTGlyph>
    <TTGlyph name="glyph241" xMin="-2563" yMin="-650" xMax="-1168" yMax="-50">
      <contour>
        <pt x="-1614" y="-287" on="1"/>
        <pt x="-2210" y="-287" on="1"/>
        <pt x="-2276" y="-287" on="0"/>
        <pt x="-2353" y="-306" on="0"/>
        <pt x="-2363" y="-345" on="1"/>
        <pt x="-2365" y="-352" on="0"/>
        <pt x="-2365" y="-359" on="1"/>
        <pt x="-2365" y="-387" on="0"/>
        <pt x="-2331" y="-398" on="1"/>
        <pt x="-2289" y="-413" on="0"/>
        <pt x="-2195" y="-413" on="1"/>
        <pt x="-2057" y="-413" on="0"/>
        <pt x="-1917" y="-374" on="1"/>
        <pt x="-1784" y="-346" on="0"/>
        <pt x="-1624" y="-338" on="1"/>
      </contour>
      <contour>
        <pt x="-1417" y="-335" on="1"/>
        <pt x="-1338" y="-337" on="0"/>
        <pt x="-1284" y="-383" on="1"/>
        <pt x="-1243" y="-417" on="0"/>
        <pt x="-1243" y="-475" on="1"/>
        <pt x="-1243" y="-499" on="0"/>
        <pt x="-1251" y="-529" on="1"/>
        <pt x="-1269" y="-589" on="0"/>
        <pt x="-1320" y="-619" on="1"/>
        <pt x="-1372" y="-650" on="0"/>
        <pt x="-1457" y="-650" on="1"/>
        <pt x="-1582" y="-650" on="0"/>
        <pt x="-1625" y="-577" on="1"/>
        <pt x="-1648" y="-539" on="0"/>
        <pt x="-1648" y="-515" on="1"/>
        <pt x="-1648" y="-511" on="0"/>
        <pt x="-1647" y="-507" on="1"/>
        <pt x="-1769" y="-516" on="0"/>
        <pt x="-1874" y="-537" on="1"/>
        <pt x="-2038" y="-582" on="0"/>
        <pt x="-2197" y="-582" on="1"/>
        <pt x="-2432" y="-582" on="0"/>
        <pt x="-2563" y="-436" on="0"/>
        <pt x="-2563" y="-368" on="1"/>
        <pt x="-2563" y="-340" on="0"/>
        <pt x="-2555" y="-289" on="1"/>
        <pt x="-2535" y="-204" on="0"/>
        <pt x="-2461" y="-161" on="1"/>
        <pt x="-2388" y="-119" on="0"/>
        <pt x="-2211" y="-119" on="1"/>
        <pt x="-1569" y="-119" on="1"/>
        <pt x="-1544" y="-50" on="0"/>
        <pt x="-1486" y="-50" on="1"/>
        <pt x="-1478" y="-50" on="0"/>
        <pt x="-1469" y="-51" on="1"/>
        <pt x="-1364" y="-62" on="0"/>
        <pt x="-1364" y="-106" on="1"/>
        <pt x="-1364" y="-112" on="0"/>
        <pt x="-1366" y="-119" on="1"/>
        <pt x="-1252" y="-119" on="1"/>
        <pt x="-1168" y="-119" on="0"/>
        <pt x="-1168" y="-204" on="1"/>
        <pt x="-1168" y="-215" on="0"/>
        <pt x="-1170" y="-228" on="1"/>
        <pt x="-1170" y="-287" on="0"/>
        <pt x="-1266" y="-287" on="1"/>
        <pt x="-1409" y="-287" on="1"/>
      </contour>
    </TTGlyph>
    <TTGlyph name="glyph242" xMin="-2430" yMin="-650" xMax="-1302" yMax="-100">
      <contour>
        <pt x="-2186" y="-381" on="1"/>
        <pt x="-2155" y="-356" on="0"/>
        <pt x="-2059" y="-356" on="1"/>
        <pt x="-1978" y="-356" on="0"/>
        <pt x="-1919" y="-384" on="1"/>
        <pt x="-1858" y="-411" on="0"/>
        <pt x="-1745" y="-490" on="0"/>
        <pt x="-1605" y="-490" on="1"/>
        <pt x="-1530" y="-483" on="0"/>
        <pt x="-1520" y="-427" on="1"/>
        <pt x="-1508" y="-354" on="1"/>
        <pt x="-1506" y="-342" on="0"/>
        <pt x="-1506" y="-332" on="1"/>
        <pt x="-1506" y="-308" on="0"/>
        <pt x="-1519" y="-291" on="1"/>
        <pt x="-1537" y="-268" on="0"/>
        <pt x="-1579" y="-268" on="1"/>
        <pt x="-1634" y="-268" on="0"/>
        <pt x="-1638" y="-303" on="1"/>
        <pt x="-1639" y="-307" on="0"/>
        <pt x="-1639" y="-310" on="1"/>
        <pt x="-1639" y="-329" on="0"/>
        <pt x="-1609" y="-329" on="1"/>
        <pt x="-1607" y="-329" on="1"/>
        <pt x="-1557" y="-329" on="0"/>
        <pt x="-1551" y="-383" on="1"/>
        <pt x="-1551" y="-392" on="1"/>
        <pt x="-1551" y="-438" on="0"/>
        <pt x="-1597" y="-439" on="1"/>
        <pt x="-1708" y="-439" on="0"/>
        <pt x="-1754" y="-391" on="1"/>
        <pt x="-1790" y="-355" on="0"/>
        <pt x="-1790" y="-309" on="1"/>
        <pt x="-1790" y="-297" on="0"/>
        <pt x="-1787" y="-284" on="1"/>
        <pt x="-1775" y="-221" on="0"/>
        <pt x="-1698" y="-108" on="0"/>
        <pt x="-1590" y="-108" on="1"/>
        <pt x="-1443" y="-108" on="0"/>
        <pt x="-1309" y="-254" on="0"/>
        <pt x="-1303" y="-315" on="1"/>
        <pt x="-1302" y="-323" on="0"/>
        <pt x="-1302" y="-333" on="1"/>
        <pt x="-1302" y="-352" on="0"/>
        <pt x="-1306" y="-373" on="1"/>
        <pt x="-1320" y="-444" on="1"/>
        <pt x="-1340" y="-548" on="0"/>
        <pt x="-1412" y="-598" on="1"/>
        <pt x="-1486" y="-650" on="0"/>
        <pt x="-1604" y="-650" on="1"/>
        <pt x="-1744" y="-650" on="0"/>
        <pt x="-1818" y="-611" on="1"/>
        <pt x="-1894" y="-572" on="0"/>
        <pt x="-1983" y="-516" on="0"/>
        <pt x="-2049" y="-516" on="1"/>
        <pt x="-2123" y="-516" on="0"/>
        <pt x="-2246" y="-650" on="0"/>
        <pt x="-2319" y="-650" on="1"/>
        <pt x="-2426" y="-650" on="0"/>
        <pt x="-2430" y="-607" on="1"/>
        <pt x="-2430" y="-598" on="1"/>
        <pt x="-2430" y="-590" on="0"/>
        <pt x="-2429" y="-582" on="1"/>
        <pt x="-2416" y="-515" on="1"/>
        <pt x="-2349" y="-170" on="1"/>
        <pt x="-2335" y="-100" on="0"/>
        <pt x="-2238" y="-100" on="1"/>
        <pt x="-2145" y="-100" on="0"/>
        <pt x="-2145" y="-164" on="1"/>
        <pt x="-2145" y="-173" on="0"/>
        <pt x="-2147" y="-183" on="1"/>
      </contour>
    </TTGlyph>
    <TTGlyph name="glyph243" xMin="-2431" yMin="-650" xMax="-1300" yMax="-100">
      <contour>
        <pt x="-2201" y="-650" on="1"/>
        <pt x="-2431" y="-650" on="0"/>
        <pt x="-2431" y="-451" on="1"/>
        <pt x="-2431" y="-416" on="0"/>
        <pt x="-2424" y="-375" on="1"/>
        <pt x="-2376" y="-100" on="0"/>
        <pt x="-2128" y="-100" on="1"/>
        <pt x="-1964" y="-100" on="0"/>
        <pt x="-1841" y="-200" on="1"/>
        <pt x="-1700" y="-100" on="0"/>
        <pt x="-1575" y="-100" on="1"/>
        <pt x="-1300" y="-100" on="0"/>
        <pt x="-1300" y="-431" on="1"/>
        <pt x="-1300" y="-462" on="0"/>
        <pt x="-1306" y="-498" on="1"/>
        <pt x="-1319" y="-574" on="1"/>
        <pt x="-1332" y="-650" on="0"/>
        <pt x="-1433" y="-650" on="1"/>
        <pt x="-1522" y="-650" on="0"/>
        <pt x="-1522" y="-583" on="1"/>
        <pt x="-1522" y="-573" on="0"/>
        <pt x="-1520" y="-562" on="1"/>
        <pt x="-1504" y="-475" on="1"/>
        <pt x="-1499" y="-446" on="0"/>
        <pt x="-1499" y="-422" on="1"/>
        <pt x="-1499" y="-300" on="0"/>
        <pt x="-1627" y="-300" on="1"/>
        <pt x="-1739" y="-300" on="0"/>
        <pt x="-1793" y="-405" on="1"/>
        <pt x="-1811" y="-440" on="0"/>
        <pt x="-1841" y="-440" on="1"/>
        <pt x="-1871" y="-440" on="0"/>
        <pt x="-1894" y="-405" on="1"/>
        <pt x="-1962" y="-300" on="0"/>
        <pt x="-2044" y="-300" on="1"/>
        <pt x="-2208" y="-300" on="0"/>
        <pt x="-2227" y="-412" on="1"/>
        <pt x="-2228" y="-419" on="0"/>
        <pt x="-2228" y="-424" on="1"/>
        <pt x="-2228" y="-450" on="0"/>
        <pt x="-2201" y="-450" on="1"/>
        <pt x="-2173" y="-450" on="0"/>
        <pt x="-2167" y="-400" on="1"/>
        <pt x="-2167" y="-398" on="1"/>
        <pt x="-2167" y="-322" on="0"/>
        <pt x="-2085" y="-319" on="1"/>
        <pt x="-2081" y="-319" on="1"/>
        <pt x="-2002" y="-319" on="0"/>
        <pt x="-2002" y="-423" on="1"/>
        <pt x="-2035" y="-650" on="0"/>
      </contour>
    </TTGlyph>
    <TTGlyph name="glyph244" xMin="-2556" yMin="-649" xMax="-1176" yMax="-99">
      <contour>
        <pt x="-2276" y="-447" on="1"/>
        <pt x="-2316" y="-441" on="0"/>
        <pt x="-2339" y="-440" on="1"/>
        <pt x="-2347" y="-440" on="1"/>
        <pt x="-2363" y="-440" on="0"/>
        <pt x="-2368" y="-446" on="1"/>
        <pt x="-2373" y="-451" on="0"/>
        <pt x="-2373" y="-456" on="1"/>
        <pt x="-2373" y="-463" on="0"/>
        <pt x="-2364" y="-472" on="1"/>
        <pt x="-2348" y="-486" on="0"/>
        <pt x="-2306" y="-498" on="1"/>
        <pt x="-2301" y="-499" on="0"/>
        <pt x="-2296" y="-499" on="1"/>
        <pt x="-2279" y="-499" on="0"/>
        <pt x="-2273" y="-479" on="1"/>
        <pt x="-2265" y="-450" on="1"/>
      </contour>
      <contour>
        <pt x="-2552" y="-491" on="0"/>
        <pt x="-2556" y="-458" on="1"/>
        <pt x="-2556" y="-445" on="1"/>
        <pt x="-2556" y="-412" on="0"/>
        <pt x="-2538" y="-376" on="1"/>
        <pt x="-2503" y="-310" on="0"/>
        <pt x="-2461" y="-298" on="1"/>
        <pt x="-2443" y="-295" on="0"/>
        <pt x="-2422" y="-295" on="1"/>
        <pt x="-2349" y="-295" on="0"/>
        <pt x="-2246" y="-328" on="1"/>
        <pt x="-2245" y="-318" on="1"/>
        <pt x="-2236" y="-266" on="0"/>
        <pt x="-2172" y="-198" on="1"/>
        <pt x="-2106" y="-131" on="0"/>
        <pt x="-1990" y="-110" on="1"/>
        <pt x="-1925" y="-99" on="0"/>
        <pt x="-1863" y="-99" on="1"/>
        <pt x="-1814" y="-99" on="0"/>
        <pt x="-1766" y="-106" on="1"/>
        <pt x="-1658" y="-121" on="0"/>
        <pt x="-1552" y="-151" on="1"/>
        <pt x="-1446" y="-181" on="0"/>
        <pt x="-1337" y="-242" on="1"/>
        <pt x="-1227" y="-303" on="0"/>
        <pt x="-1197" y="-372" on="1"/>
        <pt x="-1182" y="-405" on="0"/>
        <pt x="-1178" y="-443" on="1"/>
        <pt x="-1176" y="-455" on="0"/>
        <pt x="-1176" y="-469" on="1"/>
        <pt x="-1176" y="-499" on="0"/>
        <pt x="-1183" y="-533" on="1"/>
        <pt x="-1193" y="-582" on="1"/>
        <pt x="-1201" y="-615" on="0"/>
        <pt x="-1223" y="-632" on="1"/>
        <pt x="-1246" y="-649" on="0"/>
        <pt x="-1285" y="-649" on="1"/>
        <pt x="-1373" y="-649" on="0"/>
        <pt x="-1389" y="-629" on="1"/>
        <pt x="-1398" y="-616" on="0"/>
        <pt x="-1398" y="-595" on="1"/>
        <pt x="-1398" y="-585" on="0"/>
        <pt x="-1396" y="-572" on="1"/>
        <pt x="-1383" y="-510" on="1"/>
        <pt x="-1378" y="-504" on="0"/>
        <pt x="-1378" y="-494" on="1"/>
        <pt x="-1378" y="-478" on="0"/>
        <pt x="-1389" y="-453" on="1"/>
        <pt x="-1407" y="-412" on="0"/>
        <pt x="-1516" y="-325" on="0"/>
        <pt x="-1601" y="-301" on="1"/>
        <pt x="-1687" y="-277" on="0"/>
        <pt x="-1757" y="-264" on="1"/>
        <pt x="-1792" y="-258" on="0"/>
        <pt x="-1826" y="-258" on="1"/>
        <pt x="-1860" y="-258" on="0"/>
        <pt x="-1893" y="-264" on="1"/>
        <pt x="-1959" y="-277" on="0"/>
        <pt x="-2040" y="-313" on="0"/>
        <pt x="-2041" y="-324" on="1"/>
        <pt x="-2077" y="-520" on="1"/>
        <pt x="-2095" y="-604" on="0"/>
        <pt x="-2200" y="-649" on="0"/>
        <pt x="-2273" y="-649" on="1"/>
        <pt x="-2320" y="-649" on="0"/>
        <pt x="-2378" y="-630" on="1"/>
        <pt x="-2481" y="-585" on="0"/>
        <pt x="-2530" y="-521" on="1"/>
      </contour>
    </TTGlyph>
    <TTGlyph name="glyph245" xMin="-2643" yMin="-647" xMax="-1089" yMax="123">
      <contour>
        <pt x="-1403" y="-461" on="1"/>
        <pt x="-1406" y="-471" on="0"/>
        <pt x="-1406" y="-478" on="1"/>
        <pt x="-1406" y="-508" on="0"/>
        <pt x="-1353" y="-508" on="1"/>
        <pt x="-1305" y="-508" on="0"/>
        <pt x="-1292" y="-469" on="1"/>
        <pt x="-1291" y="-464" on="0"/>
        <pt x="-1291" y="-459" on="1"/>
        <pt x="-1291" y="-419" on="0"/>
        <pt x="-1378" y="-419" on="1"/>
        <pt x="-1392" y="-419" on="1"/>
      </contour>
      <contour>
        <pt x="-1598" y="-428" on="1"/>
        <pt x="-1715" y="-441" on="0"/>
        <pt x="-1843" y="-471" on="1"/>
        <pt x="-2130" y="-538" on="0"/>
        <pt x="-2319" y="-538" on="1"/>
        <pt x="-2504" y="-538" on="0"/>
        <pt x="-2586" y="-482" on="1"/>
        <pt x="-2634" y="-442" on="0"/>
        <pt x="-2642" y="-318" on="1"/>
        <pt x="-2643" y="-308" on="0"/>
        <pt x="-2643" y="-297" on="1"/>
        <pt x="-2643" y="-275" on="0"/>
        <pt x="-2639" y="-251" on="1"/>
        <pt x="-2627" y="-184" on="0"/>
        <pt x="-2397" y="-91" on="1"/>
        <pt x="-2437" y="-267" on="1"/>
        <pt x="-2439" y="-278" on="0"/>
        <pt x="-2439" y="-289" on="1"/>
        <pt x="-2439" y="-333" on="0"/>
        <pt x="-2403" y="-349" on="1"/>
        <pt x="-2359" y="-369" on="0"/>
        <pt x="-2268" y="-369" on="1"/>
        <pt x="-2160" y="-369" on="0"/>
        <pt x="-1908" y="-310" on="1"/>
        <pt x="-1683" y="-269" on="0"/>
        <pt x="-1577" y="-256" on="1"/>
        <pt x="-1526" y="53" on="1"/>
        <pt x="-1513" y="123" on="0"/>
        <pt x="-1455" y="123" on="1"/>
        <pt x="-1447" y="123" on="0"/>
        <pt x="-1437" y="121" on="1"/>
        <pt x="-1326" y="110" on="0"/>
        <pt x="-1326" y="42" on="1"/>
        <pt x="-1326" y="35" on="0"/>
        <pt x="-1327" y="27" on="1"/>
        <pt x="-1373" y="-250" on="1"/>
        <pt x="-1273" y="-253" on="0"/>
        <pt x="-1151" y="-314" on="1"/>
        <pt x="-1097" y="-358" on="0"/>
        <pt x="-1090" y="-425" on="1"/>
        <pt x="-1089" y="-434" on="0"/>
        <pt x="-1089" y="-444" on="1"/>
        <pt x="-1089" y="-463" on="0"/>
        <pt x="-1093" y="-485" on="1"/>
        <pt x="-1109" y="-567" on="0"/>
        <pt x="-1169" y="-607" on="1"/>
        <pt x="-1228" y="-647" on="0"/>
        <pt x="-1313" y="-647" on="1"/>
        <pt x="-1468" y="-647" on="0"/>
        <pt x="-1568" y="-574" on="1"/>
        <pt x="-1607" y="-518" on="0"/>
        <pt x="-1607" y="-479" on="1"/>
        <pt x="-1607" y="-467" on="0"/>
        <pt x="-1603" y="-456" on="1"/>
      </contour>
    </TTGlyph>
    <TTGlyph name="glyph246" xMin="-2565" yMin="-650" xMax="-1166" yMax="-100">
      <contour>
        <pt x="-2552" y="-352" on="1"/>
        <pt x="-2519" y="-226" on="0"/>
        <pt x="-2424" y="-162" on="1"/>
        <pt x="-2328" y="-100" on="0"/>
        <pt x="-2171" y="-100" on="1"/>
        <pt x="-2040" y="-100" on="0"/>
        <pt x="-1933" y="-163" on="1"/>
        <pt x="-1826" y="-227" on="0"/>
        <pt x="-1763" y="-315" on="1"/>
        <pt x="-1634" y="-474" on="0"/>
        <pt x="-1588" y="-474" on="1"/>
        <pt x="-1550" y="-474" on="0"/>
        <pt x="-1476" y="-354" on="1"/>
        <pt x="-1363" y="-150" on="1"/>
        <pt x="-1331" y="-102" on="0"/>
        <pt x="-1241" y="-102" on="1"/>
        <pt x="-1224" y="-102" on="0"/>
        <pt x="-1205" y="-111" on="1"/>
        <pt x="-1166" y="-130" on="0"/>
        <pt x="-1166" y="-162" on="1"/>
        <pt x="-1166" y="-184" on="0"/>
        <pt x="-1183" y="-211" on="1"/>
        <pt x="-1342" y="-465" on="1"/>
        <pt x="-1401" y="-557" on="0"/>
        <pt x="-1465" y="-603" on="1"/>
        <pt x="-1528" y="-650" on="0"/>
        <pt x="-1598" y="-650" on="1"/>
        <pt x="-1711" y="-650" on="0"/>
        <pt x="-1779" y="-593" on="1"/>
        <pt x="-1848" y="-536" on="0"/>
        <pt x="-1922" y="-422" on="1"/>
        <pt x="-1983" y="-344" on="0"/>
        <pt x="-2083" y="-297" on="0"/>
        <pt x="-2171" y="-297" on="1"/>
        <pt x="-2268" y="-297" on="0"/>
        <pt x="-2344" y="-350" on="0"/>
        <pt x="-2352" y="-374" on="1"/>
        <pt x="-2354" y="-380" on="0"/>
        <pt x="-2354" y="-387" on="1"/>
        <pt x="-2354" y="-408" on="0"/>
        <pt x="-2335" y="-437" on="1"/>
        <pt x="-2311" y="-474" on="0"/>
        <pt x="-2242" y="-474" on="1"/>
        <pt x="-2207" y="-416" on="0"/>
        <pt x="-2160" y="-416" on="1"/>
        <pt x="-2158" y="-416" on="1"/>
        <pt x="-2111" y="-417" on="0"/>
        <pt x="-2088" y="-490" on="1"/>
        <pt x="-2082" y="-509" on="0"/>
        <pt x="-2082" y="-525" on="1"/>
        <pt x="-2082" y="-575" on="0"/>
        <pt x="-2134" y="-607" on="1"/>
        <pt x="-2203" y="-650" on="0"/>
        <pt x="-2302" y="-650" on="1"/>
        <pt x="-2463" y="-650" on="0"/>
        <pt x="-2526" y="-575" on="1"/>
        <pt x="-2565" y="-527" on="0"/>
        <pt x="-2565" y="-450" on="1"/>
        <pt x="-2565" y="-406" on="0"/>
      </contour>
    </TTGlyph>
</ttFont>
